<svg xmlns="http://www.w3.org/2000/svg" viewBox="0 0 373 164"><path d="M349.5 96c-10.4 0-19.3 6.7-22.3 15.9L259.8 99c1.5-3.4 2.2-6.8 2.2-10.4s-.8-7.3-2.4-10.7l20.1-4.2c3.9 10.7 14.2 18.4 26.3 18.4s28-12.5 28-28-12.5-28-28-28-28 12.5-28 28 .1 3.2.4 4.7l-21.3 4.5c-3.3-4.9-8.2-9.3-14.5-13.1 3.4-5.9 5.4-12.8 5.4-20.1 0-22.1-17.9-40-40-40s-40 17.9-40 40 .5 7.3 1.5 10.7c-8.5 1.9-16.3 4.9-23 8.8-2 1.1-3.8 2.3-5.5 3.6L97.9 44.5c0-.8.1-1.6.1-2.3 0-12.7-10.5-23-23.5-23S51 29.5 51 42.2s10.5 23 23.5 23 19.2-6.6 22.3-15.7l39.9 17.3c-6.9 6.4-10.6 14-10.6 21.9v.8l-71.6 3.1c-2.6-12.2-13.7-21.4-26.9-21.4S0 83.1 0 98s12.3 27 27.5 27S55 112.9 55 98v-.6l71.7-3.1c1.5 6.5 5.6 12.6 12 17.8l-16.8 7.9c-5.1-8.4-14.3-14-24.8-14-16 0-29 13-29 29s13 29 29 29 29-13 29-29-.7-7.3-2-10.5l19.2-9c1 .7 2.1 1.4 3.2 2 12.7 7.4 29.6 11.5 47.6 11.5s32.7-3.6 45.1-10.1l14.4 8.7c-1.6 3.1-2.5 6.7-2.5 10.4 0 12.7 10.5 23 23.5 23s23.5-10.3 23.5-23-10.5-23-23.5-23-13.9 3.3-18.2 8.4l-12.3-7.4c5.7-3.7 10.2-7.9 13.2-12.5l68.9 13.2c0 .7-.1 1.5-.1 2.3 0 12.7 10.5 23 23.5 23s23.5-10.3 23.5-23-10.5-23-23.5-23ZM194 124c-34.7 0-63-15.9-63-35.5S159.3 53 194 53s63 15.9 63 35.5-28.3 35.5-63 35.5" fill="#e7ebf0"/><path fill="none" d="M182 10h54v54h-54z"/><g fill="#28497c"><path d="M222 21.5h-31c-3 0-5.4 2.4-5.5 5.5v16.4c0 3 2.4 5.4 5.5 5.5h5.3v8.8c5.3 0 10-3.6 11.3-8.8H222c3 0 5.4-2.4 5.5-5.5V27c0-3-2.4-5.4-5.5-5.5m2.5 21.8c0 1.4-1.1 2.5-2.5 2.5h-17c0 3.7-2.3 7-5.8 8.3v-8.3H191c-1.4 0-2.5-1.1-2.5-2.5V26.9c0-1.4 1.1-2.5 2.5-2.5h31c1.4 0 2.5 1.1 2.5 2.5z"/><path d="M227 16.6h-31.3c-2 0-3.8 1.1-4.7 2.9h36.5c1.1.3 1.9 1.3 1.9 2.4v21.4c1.8-.9 2.9-2.7 2.9-4.7V22c0-2.9-2.4-5.3-5.3-5.3Z"/><path d="M192.3 29.3h29.3v3.9h-29.3zm0 6.8h29.3V40h-29.3z"/></g><path fill="none" d="M133 66h49v49h-49z"/><g fill="#28497c"><path d="M165.2 77.7c-2.1 0-3.9 1.7-3.9 3.9s1.7 3.9 3.9 3.9 3.9-1.7 3.9-3.9c0-2.1-1.7-3.9-3.9-3.9m0-3.1c3.8 0 7 3.1 7 7 0 3.8-3.1 7-7 7-3.8 0-7-3.1-7-7 0-3.8 3.1-7 7-7m-5.4 18.5c-1.7 0-3.1 1.4-3.1 3.1v6.1c2.7 1.2 5.7 1.8 8.6 1.6 4.6 0 7.1-1 8.4-1.6v-6.1c0-1.7-1.4-3.1-3.1-3.1zm0-3h10.8c3.4 0 6.2 2.8 6.2 6.2v7.7s-3.1 3.1-11.5 3.1-11.7-3.1-11.7-3.1v-7.7c0-3.4 2.8-6.2 6.2-6.2m-10.8-14c-1.7 0-3.1 1.4-3.1 3.1s1.4 3.1 3.1 3.1 3.1-1.4 3.1-3.1-1.4-3.1-3.1-3.1m0-3c3.4 0 6.2 2.8 6.2 6.2s-2.8 6.2-6.2 6.2-6.2-2.8-6.2-6.2 2.8-6.2 6.2-6.2"/><path d="M144 87.5h10.1c1.2 0 2.3.3 3.2 1-1.7 0-3.3.8-4.4 2.1H144c-1.5 0-2.7 1.2-2.7 2.7v5.5q3.75 1.65 7.8 1.5h2.2v3.1h-2.2c-8 0-10.9-2.9-10.9-2.9v-7.2c0-3.2 2.6-5.8 5.8-5.8"/></g><path fill="none" d="M206 50h50v49h-50z"/><g fill="#28497c"><path d="M223.2 61.6c2.1 0 3.9 1.7 3.9 3.9s-1.7 3.9-3.9 3.9-3.9-1.7-3.9-3.9c0-2.1 1.7-3.9 3.9-3.9m0-3.1c-3.8 0-7 3.1-7 7s3.1 7 7 7 7-3.1 7-7-3.1-7-7-7m5.4 18.6c1.7 0 3.1 1.4 3.1 3.1v6.1c-2.7 1.2-5.7 1.8-8.6 1.6-4.6 0-7.1-1-8.4-1.6v-6.1c0-1.7 1.4-3.1 3.1-3.1zm0-3.1h-10.8c-3.4 0-6.2 2.8-6.2 6.2v7.7s3.1 3.1 11.5 3.1 11.7-3.1 11.7-3.1v-7.7c0-3.4-2.8-6.2-6.2-6.2m10.8-13.9c1.7 0 3.1 1.4 3.1 3.1s-1.4 3.1-3.1 3.1-3.1-1.4-3.1-3.1 1.4-3.1 3.1-3.1m0-3.1c-3.4 0-6.2 2.8-6.2 6.2s2.8 6.2 6.2 6.2 6.2-2.8 6.2-6.2-2.8-6.2-6.2-6.2"/><path d="M244.5 71.5h-10.1c-1.2 0-2.3.3-3.2 1 1.7 0 3.3.8 4.4 2.1h8.9c1.5 0 2.7 1.2 2.7 2.7v5.5q-3.75 1.65-7.8 1.5h-2.2v3.1h2.2c8 0 10.9-2.9 10.9-2.9v-7.2c0-3.2-2.6-5.8-5.8-5.8"/></g><path fill="none" d="M269 131h12v12h-12z"/><path d="M273 134.4h-.7l1.3-1.3v-1.9l-3.7 3.7 3.7 3.7v-1.9l-1.3-1.3h.7c3.4 0 6.2 2.8 6.2 6.2h1.1c0-4-3.3-7.3-7.3-7.3Z" fill="#28497c"/><path fill="none" d="M261 125h27v28h-27z"/><path d="M284.2 128.1h-18.3c-1.5 0-2.8 1.2-2.8 2.8v10.9c0 1.5 1.2 2.8 2.8 2.8h3.7v4.5c2.7 0 5.1-1.9 5.8-4.5h8.9c1.5 0 2.8-1.2 2.8-2.8v-10.9c0-1.5-1.2-2.8-2.8-2.8Zm1.3 13.7c0 .7-.6 1.3-1.3 1.3h-10.1c0 1.9-1.2 3.6-3 4.2v-4.2h-5.2c-.7 0-1.3-.6-1.3-1.3v-10.9c0-.7.6-1.3 1.3-1.3h18.3c.7 0 1.3.6 1.3 1.3z" fill="#28497c"/><path fill="none" d="M286 43h40v40h-40z"/><g fill="#28497c"><path d="M310.3 74.1h-8.1c-.6 0-1.1.5-1.1 1.1s.5 1.1 1.1 1.1h8.1c.6 0 1.1-.5 1.1-1.1s-.5-1.1-1.1-1.1m-.8 3.7h-6.7c-.6 0-1.1.5-1.1 1.1s.5 1.1 1.1 1.1h6.7c.6 0 1.1-.5 1.1-1.1s-.5-1.1-1.1-1.1m-3.3-33.3c-6.9 0-12.6 5.6-12.6 12.6 0 4.4 2.3 8.4 6 10.7.4.3.7.7.7 1.2v2.5c0 .6.5 1.1 1.1 1.1h9.6c.6 0 1.1-.5 1.1-1.1V69c0-.5.2-1 .7-1.2 5.9-3.6 7.8-11.4 4.1-17.3-2.3-3.7-6.3-6-10.7-6m5.4 21.4c-1.1.7-1.7 1.9-1.7 3.1v1.4h-7.4V69c0-1.3-.6-2.5-1.7-3.1-4.9-3-6.4-9.4-3.4-14.2 1.7-2.7 4.5-4.5 7.6-4.9h1.2c5.7 0 10.4 4.6 10.4 10.4 0 3.6-1.9 6.9-4.9 8.8Z"/><path d="M310.2 49a9.4 9.4 0 0 0-11.5 3.2c-.4.6-.3 1.4.3 1.8s1.4.3 1.8-.3c1.3-1.8 3.4-2.9 5.6-2.9 1 0 1.9.2 2.8.6.3.1.7.2 1 0 .7-.3 1-1 .7-1.7-.1-.3-.4-.6-.7-.7m-11.4 5.3c-.7-.2-1.4.2-1.6.9s-.3 1.5-.3 2.2 0 1.3.2 2c.1.6.6 1 1.2 1h.3c.7-.2 1.1-.8 1-1.5-.1-.5-.2-1-.2-1.4 0-.5 0-1.1.2-1.6 0-.3 0-.7-.1-1-.2-.3-.5-.5-.8-.6Z"/></g><path fill="none" d="M79 118h33v34H79z"/><path d="M95.5 143c-2.2 0-4 1.6-4.1 3.8 0 2.2 1.6 4 3.8 4.1h.2c2.2 0 4.1-1.6 4.2-3.8 0-2.2-1.6-4.1-3.8-4.2h-.4Zm.7-22.5c-2.7 0-5.3.6-7.7 1.8l1.6 4.8c1.4-.8 3-1.3 4.6-1.3 2.3 0 3.4 1.1 3.4 2.6s-1.2 2.9-2.7 4.6c-1.8 1.8-2.8 4.3-2.7 6.8v1.1h6.2v-.8c0-2.1.8-4.1 2.4-5.5 1.8-1.8 3.9-4 3.9-7.3s-2.8-6.8-8.9-6.8Z" fill="#28497c"/><path fill="none" d="M177 80h43v43h-43z"/><path d="M198.4 86c2.5 0 4.5 2 4.5 4.5s-2 4.5-4.5 4.5-4.5-2-4.5-4.5 2-4.5 4.5-4.5m0-3.6c-4.5 0-8.1 3.6-8.1 8.1s3.6 8.1 8.1 8.1 8.1-3.6 8.1-8.1-3.6-8.1-8.1-8.1m6.3 21.5c2 0 3.6 1.6 3.6 3.6v7c-1.5.8-4.6 1.9-10 1.9s-8.2-1.1-9.7-1.9v-7c0-2 1.6-3.6 3.6-3.6zm0-3.6h-12.5c-3.9 0-7.2 3.2-7.2 7.1v8.9s3.6 3.6 13.3 3.6 13.6-3.6 13.6-3.6v-8.9c0-3.9-3.2-7.1-7.2-7.1" fill="#28497c"/><path fill="none" d="M165 47h27v27h-27z"/><path d="M178.1 51.1c1.6 0 2.9 1.3 2.9 2.9s-1.3 2.9-2.9 2.9-2.9-1.3-2.9-2.9 1.3-2.9 2.9-2.9m0-2.3c-2.8 0-5.1 2.3-5.1 5.1s2.3 5.1 5.1 5.1 5.1-2.3 5.1-5.1-2.3-5.1-5.1-5.1m4 13.7c1.3 0 2.3 1 2.3 2.3v4.5c-2 .9-4.2 1.3-6.4 1.2-2.1.1-4.3-.3-6.2-1.2v-4.5c0-1.3 1-2.3 2.3-2.3zm0-2.3h-8c-2.5 0-4.6 2-4.6 4.5v5.7s2.3 2.3 8.5 2.3 8.6-2.3 8.6-2.3v-5.7c0-2.5-2.1-4.5-4.6-4.5Z" fill="#28497c"/><path fill="none" d="M55 27h35v33H55z"/><g fill="#28497c"><path d="m73.6 53.6-.6-4.9c2.6-1.5 4.9-3.3 7-5.4 7.2-7.2 6.3-13.7 6.3-13.7s-6.9-.5-13.7 6.3c-2.1 2.1-3.9 4.4-5.4 7l-4.9-.6c-.3 0-.6 0-.8.3l-3.1 3.1c-.4.4-.4 1 0 1.4.1.1.3.2.4.3l5.1 1.5-.6.9 3 3 .9-.6 1.5 5.1c.2.5.7.8 1.2.7.2 0 .3-.1.4-.2l3.1-3.1c.2-.2.3-.5.3-.8Zm-1.9-6.5c-1 .5-2.3.1-2.8-.9-.3-.6-.3-1.3 0-1.9 1.4-2.5 3.2-4.8 5.2-6.8 2.7-2.8 6.2-4.8 10-5.5-.4 2.2-1.6 6-5.6 10-2 2.1-4.3 3.8-6.8 5.2Z"/><circle cx="75.9" cy="40" r="2.1"/><circle cx="79.6" cy="36.3" r="1.6"/><circle cx="72.2" cy="43.7" r="1.6"/><path d="m78.7 50.3-.9 2.4-2.4.9 2.4.9.9 2.4.9-2.4 2.4-.9-2.4-.9zm-14.4-9.9 1.3-3.4 3.4-1.3-3.4-1.3-1.3-3.4-1.3 3.4-3.4 1.3L63 37zm19 9.1.8-2.2 2.2-.8-2.2-.8-.8-2.2-.8 2.2-2.2.8 2.2.8z"/></g><path d="M343.7 111.4c1.7 0 3.8.8 4.5 2.6l.6 1.7c.2.6.9.9 1.5.7.3-.1.5-.4.7-.7l.6-1.7c.7-1.8 2.7-2.6 4.5-2.6 1.3 0 2.6.5 3.6 1.4.9 1.1 1.4 2.5 1.2 4-.1 2.3-2 4.4-5.1 7.3-2.8 2.6-4.7 4.2-5.8 5-1.1-.8-3-2.4-5.8-5-3.1-2.9-5-5-5.1-7.3-.2-1.4.3-2.9 1.2-4 1-.9 2.3-1.4 3.6-1.4Zm12.3-1.8c-2.6 0-5.2 1.3-6.2 3.7-.9-2.4-3.5-3.7-6.2-3.7s-6.9 2.3-6.6 7.3c.2 3 2.5 5.6 5.7 8.5 2.2 2.1 4.6 4.1 7.1 5.9 2.5-1.8 4.8-3.8 7.1-5.9 3.2-3 5.5-5.5 5.7-8.5.3-5-3.2-7.3-6.6-7.3" fill="#28497c"/><path fill="none" d="M12 85h27v27H12z"/><path d="M37.5 90.8H27.3v2.6c0 4.6.7 9.3 2.3 13.6h3.7c-.2-.3-.3-.7-.5-1.1-.6-1.6-1.1-3.2-1.4-4.9h6.1zm-13.6 0H13.7v2.6c0 4.6.7 9.3 2.3 13.6h3.7c-.2-.3-.3-.7-.5-1.1-.6-1.6-1.1-3.2-1.4-4.9h6.1z" fill="#28497c"/></svg>