<svg xmlns="http://www.w3.org/2000/svg" viewBox="0 0 64 64"><path fill="none" d="M0 0h64v64H0z"/><g fill="#000000"><path d="M32 4.03c-15.46 0-28 12.54-28 28.01s12.53 27.98 28 27.98c15.46 0 27.98-12.53 27.99-27.98C59.99 16.57 47.46 4.03 32 4.03Zm0 50.32c-12.33-.02-22.31-10-22.34-22.32.03-12.34 10-22.32 22.34-22.34 12.33.02 22.3 10 22.33 22.34-.02 12.32-10 22.29-22.33 22.32Z"/><circle cx="32" cy="19" r="5"/><path d="M44.94 23.92c-2.66.47-9.61 1.69-12.03 2.12H31.2l-12.03-2.12c-.87-.15-1.81.21-2.22 1-.65 1.28.13 2.69 1.42 2.92l9.6 1.69s.03.02.03.03v9.09l-3.38 9.29c-.3.83-.11 1.82.6 2.36a2 2 0 0 0 3.12-.89l3.63-9.97s.05-.03.06 0l3.58 9.84c.36 1 1.42 1.66 2.44 1.38a2.008 2.008 0 0 0 1.37-2.62L36 38.65v-9.08s.01-.03.03-.03l9.71-1.71a2.007 2.007 0 0 0 1.42-2.92c-.4-.79-1.34-1.15-2.21-1Z"/></g></svg>