<svg data-name="Ebene 2" xmlns="http://www.w3.org/2000/svg" viewBox="0 0 64 64"><path fill="none" d="M0 0h64v64H0z" data-name="Viewbox 64x64"/><g fill="#000000" data-name="VIPS – excercise"><path d="m43.7 12.03 11.67 20-11.67 20H20.29l-11.67-20 11.67-20zm2.3-4H18l-14 24 14 24h28l14-24z"/><path d="M35.88 43.33h-7.76c-.58 0-1.06.48-1.06 1.06s.47 1.06 1.06 1.06h7.76c.58 0 1.06-.48 1.06-1.06s-.47-1.06-1.06-1.06m-.7 3.55h-6.35c-.58 0-1.06.48-1.06 1.06S28.24 49 28.83 49h6.35c.58 0 1.06-.48 1.06-1.06s-.47-1.06-1.06-1.06M32 15c-.46 0-.92.03-1.38.08-5.44.61-9.86 4.99-10.52 10.45-.6 4.96 1.8 9.41 5.62 11.77.41.25.64.71.64 1.19v2.36c0 .59.47 1.06 1.06 1.06h9.18c.58 0 1.06-.48 1.06-1.06v-2.37c0-.48.23-.93.64-1.18 3.43-2.12 5.71-5.92 5.71-10.26 0-6.65-5.37-12.04-12-12.04Zm5.17 20.49a3.54 3.54 0 0 0-1.65 2.99v1.31h-7.06v-1.3c0-1.22-.63-2.37-1.65-3-3.33-2.06-5.11-5.78-4.63-9.7.55-4.48 4.19-8.09 8.66-8.59.38-.04.77-.06 1.15-.06 5.45 0 9.88 4.45 9.88 9.92 0 3.47-1.76 6.62-4.71 8.45Z"/><path d="M35.81 19.31a8.8 8.8 0 0 0-3.64-.78c-2.91 0-5.65 1.43-7.32 3.82-.39.55-.25 1.32.3 1.71.21.14.45.22.7.22.4 0 .77-.2 1-.52a6.485 6.485 0 0 1 7.96-2.22c.3.13.63.14.94.03a1.231 1.231 0 0 0 .06-2.27Zm-10.84 5.14c-.66-.17-1.32.24-1.48.9-.17.7-.26 1.42-.26 2.15 0 .63.07 1.27.2 1.89.12.56.62.97 1.19.97.08 0 .17 0 .26-.03.66-.14 1.08-.8.94-1.46-.1-.45-.15-.91-.15-1.37 0-.53.06-1.05.19-1.56.08-.32.03-.65-.14-.93s-.44-.48-.75-.56"/></g></svg>