<svg xmlns="http://www.w3.org/2000/svg" viewBox="0 0 64 64"><path fill="none" d="M0 0h64v64H0z"/><g fill="#000000"><path d="m43.68 17.52-2.93 2.93c-.96-.72-1.76-1.07-2.02-.81l-1.69 1.69a20.98 20.98 0 0 0-26.59 2.55c-8.2 8.2-8.2 21.5 0 29.7 4.1 4.1 9.47 6.15 14.85 6.15s10.75-2.05 14.85-6.15c7.23-7.23 8.08-18.42 2.55-26.59l1.69-1.69c.26-.26-.09-1.06-.81-2.02l2.93-2.93c.78-.78.78-2.05 0-2.83s-2.05-.78-2.83 0Zm-6.36 33.23c-3.21 3.21-7.48 4.98-12.02 4.98s-8.81-1.77-12.02-4.98c-6.63-6.63-6.63-17.41 0-24.04 3.21-3.21 7.48-4.98 12.02-4.98s8.81 1.77 12.02 4.98c6.63 6.63 6.63 17.41 0 24.04Zm2.83-35.35c.78.78 2.05.78 2.83 0s.78-2.05 0-2.83l-2.83-2.83c-.78-.78-2.05-.78-2.83 0-.78.78-.78 2.05 0 2.83l2.83 2.83Zm11.31 5.66c-.78-.78-2.05-.78-2.83 0s-.78 2.05 0 2.83l2.83 2.83c.78.78 2.05.78 2.83 0 .78-.78.78-2.05 0-2.83l-2.83-2.83Zm.71-6.37L55 11.86c.78-.78.78-2.05 0-2.83s-2.05-.78-2.83 0l-2.83 2.83c-.78.78-.78 2.05 0 2.83s2.05.78 2.83 0Zm5.53 1.54h-4c-1.1 0-2 .9-2 2s.9 2 2 2h4c1.1 0 2-.9 2-2s-.9-2-2-2ZM45.8 4.33c-1.1 0-2 .9-2 2v4c0 1.1.9 2 2 2s2-.9 2-2v-4c0-1.1-.9-2-2-2Z"/><path d="M31.27 25.6a14.43 14.43 0 0 0-5.69-1.15c-5.61 0-10.8 3.31-13.21 8.43-.41.87-.04 1.92.84 2.33a1.725 1.725 0 0 0 2.32-.84c1.83-3.9 5.78-6.42 10.04-6.42 1.49 0 2.95.3 4.32.88.89.38 1.92-.04 2.29-.93.38-.89-.04-1.92-.93-2.29ZM12.75 37.27c-.97 0-1.75.78-1.75 1.75 0 .76.06 1.52.18 2.27.14.86.88 1.48 1.73 1.48.09 0 .18 0 .27-.02.95-.15 1.61-1.05 1.46-2-.09-.57-.14-1.15-.14-1.73 0-.97-.78-1.75-1.75-1.75Z"/></g></svg>