<svg xmlns="http://www.w3.org/2000/svg" viewBox="0 0 64 64"><path fill="none" d="M0 0h64v64H0z"/><g fill="#000000"><path d="M41.61 16.53c-1.97-1.1-4.49-.45-5.63 1.45l-.69 1.15-1.03 1.72-9.27 15.47.09 7.69 7.05-3.72 9.27-15.47 1.03-1.72.69-1.15c1.14-1.9.46-4.33-1.51-5.42Zm-4.53 3.59.69-1.15c.57-.95 1.83-1.27 2.81-.73s1.32 1.76.75 2.71l-.69 1.15-3.57-1.98ZM6 58V36h4.17L28 53.83V58H6z"/><path d="M9.34 38 26 54.66V56H8V38h1.34M11 34H4v26h26v-7L11 34Zm27 21v-2h18V8H11v18H9V6h49v49H38z"/><path d="M7 4v24h6V10h41v41H36v6h24V4H7z"/></g></svg>