<svg xmlns="http://www.w3.org/2000/svg" viewBox="0 0 64 64"><path fill="none" d="M0 0h64v64H0z"/><g fill="#000000"><path d="M18 4.03c-3.87 0-7 3.13-7 7v42.36c0 3.67 2.97 6.64 6.64 6.64H46v-45.5H18.07c-1.97 0-3.57-1.6-3.57-3.57s1.53-3.43 3.43-3.43H49.5v42.09H53V4.03H18Zm0 14h24.5v38.5H18.01c-1.94 0-3.51-1.57-3.51-3.51V16.79s1.12 1.24 3.5 1.24Z"/><path d="M23.59 36.34c2.18 0 3.94-1.76 3.94-3.94s-1.76-3.94-3.94-3.94-3.94 1.76-3.94 3.94 1.77 3.94 3.94 3.94Zm3.6 2.11a4.01 4.01 0 0 0-.99-.14h-5.25c-2.18 0-3.94 1.77-3.94 3.94v5.26h7.23v-5.26c0-1.84 1.26-3.36 2.96-3.8Zm6.26-2.11c2.18 0 3.94-1.76 3.94-3.94s-1.76-3.94-3.94-3.94-3.94 1.76-3.94 3.94 1.77 3.94 3.94 3.94ZM40 47.51H26.86v-5.26c0-2.18 1.77-3.94 3.94-3.94h5.25c2.18 0 3.94 1.77 3.94 3.94v5.26Z"/></g></svg>