<svg xmlns="http://www.w3.org/2000/svg" viewBox="0 0 64 64"><path fill="none" d="M0 0h64v64H0z"/><g fill="#000000"><path d="M28 48.02h4v4h-4zm8 8h7.99v-4H40v-4h-4v8zm4-24v4.01h-8v-4.01h8v-3.99h-4v-4h-8v4h-4v8h4v4h4v3.99h8v-3.99h3.99v3.99h8v-3.99h-4v-12h-4v3.99H40zm0 12h4v4h-4zM4.02 28.03h4v3.99h-4zm7.99-4H24v-7.99h4v-4h-4V4.05H4.02v19.98h4v4h4v-4Zm-4-15.99H20v11.99H8.01V8.04Zm39.98 51.97h4v-3.99h3.99v-4h-3.99v-4h-4v11.99z"/><path d="M51.99 44.02h4v4h-4zm3.99-12h4v4.01h-4zm-43.97 16h4v4h-4z"/><path d="M24 44.02v-4h-7.99v-4h4v-8h-4v3.99h-4v8H4.02v19.98H24V56h4v-4h-4v-7.99ZM8.01 56.01V44.02H20v11.99H8.01Zm4-43.96h4v4h-4zm35.98 0h4v4h-4z"/><path d="M55.98 4.05H39.99v4h-8v11.99h4v-7.99h4v15.99h4v-4h15.99V4.05h-4Zm0 15.99H43.99V8.05h11.99v11.99Z"/></g></svg>