<svg xmlns="http://www.w3.org/2000/svg" viewBox="0 0 64 64"><path fill="none" d="M0 0h64v64H0z"/><path d="M44.05 28.66c5.6 0 10.11-4.52 10.11-10.11s-4.51-10.1-10.11-10.1-10.1 4.52-10.1 10.1 4.53 10.11 10.1 10.11ZM60 55.62H28V42.56c0-5.34 4.33-9.68 9.68-9.68h12.65c5.34 0 9.68 4.33 9.68 9.68v13.06ZM20.05 28.66c5.6 0 10.11-4.52 10.11-10.11s-4.51-10.1-10.11-10.1-10.1 4.52-10.1 10.1 4.53 10.11 10.1 10.11Zm8.45 4.47c-.7-.16-1.43-.25-2.17-.25H13.68C8.34 32.88 4 37.21 4 42.56v13.06h17V42.56c0-4.59 3.21-8.43 7.5-9.42Z" fill="#000000"/></svg>