<svg xmlns="http://www.w3.org/2000/svg" viewBox="0 0 64 64"><path fill="none" d="M0 0h64v64H0z"/><g fill="#000000"><path d="M22.53 17.39v13.48l-8.34 4.86 3.3 5.78 11.64-6.76h.07l-.01-17.35-6.66-.01z"/><path d="M38.26 10.3H25.73C13.73 10.3 4 20.03 4 32.04s9.73 21.71 21.73 21.72h12.53c12 0 21.72-9.73 21.72-21.72 0-12.01-9.72-21.74-21.72-21.74ZM25.73 49.35c-9.57-.02-17.31-7.76-17.33-17.32.02-9.58 7.76-17.32 17.33-17.34 9.57.02 17.31 7.76 17.33 17.34-.02 9.56-7.76 17.3-17.33 17.32Zm13.1-.03c5.23-3.97 8.62-10.22 8.62-17.29 0-7.07-3.39-13.34-8.62-17.31 9.3.32 16.73 7.93 16.75 17.31-.02 9.37-7.45 16.97-16.75 17.29Z"/></g></svg>