<svg xmlns="http://www.w3.org/2000/svg" viewBox="0 0 64 64"><path fill="none" d="M0 0h64v64H0z"/><g fill="#000000"><path d="M26.01 14.43c3.9 0 7.06-.77 7.06-1.71s-3.16-1.71-7.06-1.71-7.06.77-7.06 1.71 3.16 1.71 7.06 1.71Zm17 0c3.9 0 7.06-.77 7.06-1.71s-3.16-1.71-7.06-1.71-7.05.77-7.05 1.71 3.16 1.71 7.05 1.71Zm-9.94-.89v2.82c-1.1.3-1.78.69-1.78 1.13 0 .94 3.16 1.71 7.05 1.71s7.06-.77 7.06-1.71-3.16-1.71-7.06-1.71c-.85 0-1.65.04-2.41.11v-2.35h-2.86Z"/><path d="M50.07 13.54v4.61c0 .74-1.95 1.36-4.67 1.61v3.17c0 .94-3.16 1.71-7.06 1.71s-7.05-.77-7.05-1.71h-.02v-3.64c-.77.21-1.75.37-2.86.47v3.17c0 .94-3.16 1.71-7.06 1.71s-7.06-.77-7.06-1.71h-.02v-5.58h.08s-.06.09-.06.15c0 .94 3.16 1.71 7.06 1.71s7.06-.77 7.06-1.71-3.16-1.71-7.06-1.71c-.85 0-1.65.04-2.41.11v-2.35h-1.12L4.01 27.44v27.57H46.2l13.81-13.89V13.54h-9.93Zm-6.88 38.05H7.62V30.3h35.57v21.29Zm14.75-12.66L47.43 49.49V28.84l10.51-10.57v20.65Z"/></g></svg>