<svg xmlns="http://www.w3.org/2000/svg" viewBox="0 0 64 64"><path fill="none" d="M0 0h64v64H0z"/><path d="M49.74 16.61c.43-1.05.68-2.2.68-3.4 0-5.02-4.11-9.08-9.19-9.08-4.33 0-7.93 2.95-8.91 6.93C31.42 7.02 27.79 4 23.43 4c-5.03 0-9.12 4.03-9.12 9 0 1.12.24 2.18.61 3.16C8.87 19.98 5 26.11 5 34.18 5 48.44 17.08 60 32 60s27-11.56 27-25.82c0-7.77-3.6-13.73-9.26-17.56Zm-17.91-3.65c4.54 0 8.22 4.57 8.22 10.21s-3.68 10.2-8.22 10.2-8.22-4.57-8.22-10.2 3.68-10.21 8.22-10.21Zm.79 41.65c-18.86 0-20.05-18.55-20.05-18.55s8.48 2.54 19.42 2.54c12.06 0 20.61-2.61 20.61-2.61s-2.88 18.62-19.98 18.62Z" fill="#000000"/></svg>