<svg xmlns="http://www.w3.org/2000/svg" viewBox="0 0 64 64"><path fill="none" d="M0 0h64v64H0z"/><g fill="#000000"><path d="M60 32.15c0-5.69-1.72-11.15-4.96-15.81a1.892 1.892 0 0 0-2.6-.47 1.85 1.85 0 0 0-.47 2.58 23.819 23.819 0 0 1 3.86 18.2c-3.23 4.27-8.26 7.05-13.97 7.05-9.78 0-17.71-8.04-17.71-17.96 0-.09.03-.18.03-.27-6.6 2.36-12.05 7.08-15.53 13.11-.57-2.05-.91-4.2-.91-6.44 0-4.98 1.52-9.76 4.39-13.82.59-.84.39-1.99-.46-2.58-.85-.58-2.01-.38-2.6.45a27.506 27.506 0 0 0-5.06 15.95c0 9.44 4.77 17.78 12.04 22.81-.1.35-.22.69-.22 1.07A3.99 3.99 0 0 0 19.81 60h24.3a3.99 3.99 0 0 0 3.98-3.98c0-.36-.12-.68-.21-1.01C55.19 49.99 60 41.61 60 32.14Z"/><path d="M31.86 19.61c2.33-.53 5.84-1.75 8.34-4.47 5.22-5.7 3.86-11.1 3.86-11.1s-5.54-.83-10.76 4.87c-2.5 2.73-3.38 6.32-3.69 8.67l-5.98 1.9 6.89 6.22 1.34-6.09Z"/></g></svg>