<svg xmlns="http://www.w3.org/2000/svg" viewBox="0 0 64 64"><path fill="none" d="M0 0h64v64H0z"/><g fill="#000000"><path d="M28.5 25.5c-6.08 0-11 4.93-11 11s4.93 10.99 11 11c6.07 0 11-4.92 11-11s-4.92-11-11-11Zm0 19.77c-4.85 0-8.77-3.93-8.78-8.77a8.792 8.792 0 0 1 8.78-8.78c4.84 0 8.76 3.93 8.77 8.78 0 4.84-3.93 8.76-8.77 8.77Z"/><path d="M26.88 29.09v6.83l-4.23 2.45 1.67 2.93 5.9-3.42h.03v-8.79h-3.37z"/><path d="M33 8H21c-1.66 0-3 1.34-3 3v1h-7v4h45v31h4V12H36v-1c0-1.66-1.34-3-3-3Z"/><path d="M49 23v27H8V23h41m4-4H4v35h49V19Z"/></g></svg>