<svg xmlns="http://www.w3.org/2000/svg" viewBox="0 0 64 64"><path fill="none" d="M0 0h64v64H0z"/><path d="M32 4C16.53 4 4 16.53 4 32.01 4 47.47 16.53 59.99 32 60c15.47 0 28-12.53 28-27.99S47.46 4 32 4Zm2 20.66c1.96-.08 3.98-.26 5.96-.49.17 1.81.28 3.77.33 5.85H34v-5.35Zm0-3.99V9.77c1.19.11 2.34.32 3.47.61.53 1.78 1.39 5.18 2.04 9.83-1.84.22-3.71.39-5.51.47Zm-3.98 0a70.33 70.33 0 0 1-5.46-.48c.65-4.7 1.51-8.08 2.05-9.83 1.11-.28 2.25-.48 3.41-.59v10.9Zm0 3.99v5.36H23.8c.05-2.09.16-4.05.32-5.86 1.98.24 3.98.43 5.9.51Zm-10.2 5.36H9.78c.26-2.84 1.05-5.52 2.27-7.95 2.01.44 4.9 1.02 8.12 1.53-.18 1.98-.3 4.12-.35 6.42ZM19.81 34c.05 2.43.17 4.7.37 6.8-3.15.5-5.96 1.07-7.96 1.51A22.254 22.254 0 0 1 9.78 34h10.03Zm3.98 0h6.23v5.76c-1.94.07-3.94.25-5.89.48-.18-1.93-.29-4.02-.34-6.25Zm6.23 9.75v10.49a22.85 22.85 0 0 1-3.53-.62c-.54-1.87-1.32-5.12-1.92-9.41 1.82-.22 3.66-.38 5.44-.46Zm3.98 0c1.78.08 3.66.26 5.52.49-.59 4.3-1.37 7.5-1.91 9.35-1.17.31-2.38.53-3.62.64V43.75Zm0-3.99v-5.77h6.3c-.04 2.25-.16 4.35-.33 6.28-2-.25-4.03-.43-5.97-.51Zm10.28-5.77h9.96a22.18 22.18 0 0 1-2.45 8.33c-1.99-.43-4.78-.99-7.87-1.48.19-2.1.32-4.38.36-6.84Zm-.01-3.98c-.05-2.28-.17-4.42-.36-6.4 3.22-.51 6.07-1.09 8.07-1.54 1.21 2.43 2 5.1 2.26 7.94h-9.97Zm5.47-11.53c-1.74.37-3.91.79-6.28 1.17-.42-3.05-.93-5.61-1.41-7.56a22.46 22.46 0 0 1 7.69 6.4Zm-27.72-6.42c-.48 1.94-.98 4.49-1.4 7.56-2.37-.38-4.55-.8-6.32-1.16 2.05-2.68 4.68-4.87 7.72-6.4Zm-7.47 33.82c1.71-.36 3.81-.76 6.08-1.12.4 2.85.86 5.25 1.31 7.15a22.43 22.43 0 0 1-7.4-6.03Zm27.65 5.97c.44-1.87.9-4.23 1.29-7.05 2.22.36 4.28.75 5.98 1.1a22.558 22.558 0 0 1-7.27 5.95Z" fill="#000000"/></svg>