<svg data-name="Ebene 2" xmlns="http://www.w3.org/2000/svg" viewBox="0 0 64 64"><path fill="none" d="M0 0h64v64H0z" data-name="Viewbox 64x64"/><g fill="#000000" data-name="media &amp;amp; books"><path d="M18 4.03c-3.87 0-7 3.13-7 7v42.36c0 3.67 2.97 6.64 6.64 6.64H46v-45.5H18.07c-1.97 0-3.57-1.6-3.57-3.57s1.53-3.43 3.43-3.43H49.5v42.09H53V4.03zm0 14h24.5v38.5H18.01c-1.94 0-3.51-1.57-3.51-3.51V16.79s1.12 1.24 3.5 1.24"/><path d="M39.96 33.05 35.93 29l-9.79 9.84-5.13-5.14-4.02 4.05 9.15 9.2 13.81-13.88Z"/></g></svg>