<svg xmlns="http://www.w3.org/2000/svg" viewBox="0 0 64 64"><path fill="none" d="M0 0h64v64H0z"/><g fill="#000000"><path d="M15.08 24.85c3.68 0 6.66-2.98 6.66-6.66s-2.98-6.66-6.66-6.66-6.66 2.98-6.66 6.66 2.98 6.66 6.66 6.66m5.18 1.48H9.9a5.92 5.92 0 0 0-5.92 5.92v7.4s2.96 2.96 11 2.96 11.21-2.96 11.21-2.96v-7.4a5.92 5.92 0 0 0-5.92-5.92Z"/><circle cx="30.62" cy="15.96" r="5.92"/><path d="M35.46 23.91h-9.67c-1.15 0-2.21.35-3.1.95 1.69.06 3.2.82 4.24 2.01.49.52 1.47 1.69 1.47 3.92v8.23c.66.05 1.36.09 2.12.09 7.7 0 10.46-2.76 10.46-2.76v-6.91c0-3.05-2.47-5.53-5.53-5.53Zm13.41 12.35c3.68 0 6.66-2.98 6.66-6.66s-2.98-6.66-6.66-6.66-6.66 2.98-6.66 6.66 2.98 6.66 6.66 6.66m5.18 1.48H43.69a5.92 5.92 0 0 0-5.92 5.92v7.4s2.96 2.96 11 2.96 11.21-2.96 11.21-2.96v-7.4a5.92 5.92 0 0 0-5.92-5.92Z"/></g></svg>