<svg xmlns="http://www.w3.org/2000/svg" viewBox="0 0 64 64"><path fill="none" d="M0 0h64v64H0z"/><path d="M50.71 13h-.42c-.82 0-1.59.2-2.29.54V12.5c0-1.97-1.04-3.69-2.59-4.66-.26-.16-.52-.3-.8-.42-.05-.02-.09-.03-.14-.05-.25-.09-.5-.17-.77-.23-.02 0-.04-.01-.06-.02h-.02c-.32-.07-.65-.1-.99-.11h-.13a4.938 4.938 0 0 0-1.11.13c-.22.05-.44.11-.65.18-.08.03-.16.05-.24.08-.27.11-.54.23-.79.38a5.498 5.498 0 0 0-5.22-3.76c-2.74 0-5 2-5.42 4.62-.74-.38-1.56-.62-2.45-.62h-.25c-2.97 0-5.37 2.41-5.37 5.37V33.3l-3.18-6c-.93-1.76-2.74-2.76-4.61-2.76-.82 0-1.65.19-2.42.6-2.55 1.33-3.53 4.45-2.19 6.98l12.17 22.9c2.01 3.99 4.02 4.99 7.04 4.99h17.2c7.18 0 11-5.82 11-12.99V18.31c0-2.92-2.37-5.29-5.29-5.29ZM45 56H27.8c-1.32 0-2.05 0-3.46-2.8-.01-.03-.03-.05-.04-.08l-12.16-22.9c-.18-.35-.15-.67-.08-.87.07-.21.22-.5.6-.69a1.214 1.214 0 0 1 1.63.49l3.18 6A4.01 4.01 0 0 0 21 37.28a3.992 3.992 0 0 0 4-4V13.37c0-.76.62-1.37 1.37-1.37h.25c.19 0 .39.06.61.17.04.02.08.03.12.04.39.24.64.67.64 1.16V29.5a2.5 2.5 0 0 0 5 0v-20c0-.08.01-.16.02-.24.03-.17.09-.33.17-.48 0-.01.01-.03.02-.04.08-.13.18-.25.29-.35a.18.18 0 0 1 .07-.05c.12-.09.24-.17.38-.23.02 0 .04-.01.07-.02.15-.05.31-.09.48-.09s.32.03.46.08c.03 0 .06.02.08.03.13.05.25.12.36.2.02.01.04.03.06.05.22.18.37.42.45.65.06.16.09.32.09.5v18a2.5 2.5 0 0 0 5 0v-15a1.501 1.501 0 0 1 1.07-1.43c.02 0 .04-.02.07-.02.12-.03.24-.05.36-.05.83 0 1.5.67 1.5 1.5v19a2.5 2.5 0 0 0 5 0V18.3c0-.5.29-.92.71-1.14 0 0 .02 0 .03-.01.06-.03.12-.05.18-.07.12-.04.24-.07.37-.07h.42c.71 0 1.29.58 1.29 1.29v28.71c0 2.11-.5 9-7 9Z" fill="#000000"/></svg>