<svg xmlns="http://www.w3.org/2000/svg" viewBox="0 0 64 64"><path fill="none" d="M0 0h64v64H0z"/><g fill="#000000"><path d="M20.36 26.28c.17-7.81 6.57-14.12 14.43-14.12s14.45 6.47 14.45 14.43c0 5.8-3.45 10.79-8.39 13.09l1.64.67 9.66-3.31c1.84-3.05 2.93-6.62 2.93-10.44C55.08 15.41 46 6.34 34.8 6.34S14.52 15.4 14.52 26.59c0 .14.02.28.02.42l5.83-.73Z"/><path d="M59.75 42.45a4.355 4.355 0 0 0-4.09-2.93c-.48 0-.97.08-1.46.26l-11.91 4.14-15.97-6.57 10.18-1.38c2.34-.3 3.99-2.46 3.69-4.82-.27-2.19-2.11-3.78-4.22-3.78-.18 0-.36.01-.54.03l-23.17 2.96c-.65.08-1.24.33-1.76.66-.64.26-1.18.78-1.44 1.48l-.21.57c-.06.14-.12.28-.16.43L4.17 45.74c-.29.77-.18 1.59.22 2.24 1.06 2.35 6.02 5.68 10.6 7.42L26 57.48c.57.09 1.11.14 1.63.14.17 0 .35 0 .52-.01.23.04.46.05.7.05.46 0 .93-.07 1.4-.24l1.79-.62c.46-.14.95-.29 1.5-.47C39.56 54.38 46.26 52 48.78 51c.03-.01.05-.03.08-.05l8.26-2.87c2.26-.82 3.44-3.33 2.64-5.62Z"/></g></svg>