<svg xmlns="http://www.w3.org/2000/svg" viewBox="0 0 64 64"><path fill="none" d="M0 0h64v64H0z"/><path d="M59.11 25.01c-.8-3.09-5.58-4.8-12.36-4.94.78.96 1.47 2 2.05 3.1 5.12.41 7.21 1.84 7.41 2.59.2.79-.95 2.95-4.95 5.66-.71.48-1.49.95-2.3 1.41.01-.28.04-.55.04-.83 0-9.39-7.61-17-17-17s-17 7.61-17 17c0 3.28.95 6.34 2.56 8.93-6.85-.1-9.54-1.84-9.76-2.69-.2-.79.95-2.95 4.95-5.66.08-.06.18-.11.27-.17 0-.14-.01-.27-.01-.41 0-1.13.12-2.23.31-3.31-5.87 3.4-9.22 7.2-8.42 10.3.83 3.23 6.01 4.95 13.29 4.95.56 0 1.13-.01 1.71-.03C22.98 47.05 27.27 49 32.02 49c7.8 0 14.36-5.26 16.36-12.43 7.29-3.7 11.65-8.08 10.75-11.56ZM32 18.78c7.29 0 13.22 5.93 13.22 13.22 0 1-.12 1.97-.33 2.9-3.33 1.51-7.11 2.84-11.14 3.88-4 1.03-7.95 1.71-11.61 2-2.08-2.34-3.36-5.41-3.36-8.78 0-7.29 5.93-13.22 13.22-13.22Zm0 26.44c-2.4 0-4.65-.65-6.59-1.78 2.89-.37 5.95-.95 9.09-1.76 3.13-.81 6.09-1.77 8.8-2.85-2.32 3.82-6.51 6.38-11.3 6.38Z" fill="#000000"/></svg>