<svg xmlns="http://www.w3.org/2000/svg" viewBox="0 0 64 64"><path fill="none" d="M0 0h64v64H0z"/><g fill="#000000"><path d="M5.5 58.5v-53h53v53h-53Zm20.07-25c-6.1 0-11.07 4.96-11.07 11.07V56.5h35V44.57c0-6.1-4.96-11.07-11.07-11.07H25.56Zm6.49-25c-6.34 0-11.5 5.16-11.5 11.5s5.16 11.5 11.5 11.5 11.5-5.16 11.5-11.5S38.4 8.5 32.06 8.5Z"/><path d="M57 7v50h-6V44.57C51 37.64 45.36 32 38.43 32h-1.38c4.69-1.96 8-6.6 8-12 0-7.17-5.83-13-13-13H57M32.05 7c-7.17 0-13 5.83-13 13 0 5.4 3.31 10.04 8 12h-1.49c-6.93 0-12.57 5.64-12.57 12.57V57h-6V7h25.05m27.95-3H4v56h56V4ZM32.04 30c-5.52 0-10-4.47-10-10s4.48-10 10-10 10 4.47 10 10-4.46 10-10 10ZM15.99 55V44.57c0-5.28 4.28-9.57 9.57-9.57h12.87c5.28 0 9.57 4.28 9.57 9.57V55H16Z"/></g></svg>