<svg xmlns="http://www.w3.org/2000/svg" viewBox="0 0 64 64"><path fill="none" d="M0 0h64v64H0z"/><g fill="#000000"><path d="m32.02 8.15 19.97 4.89c-.08 8.63-.51 24.57-1.86 29.99-.84 3.38-9.71 9.04-18.03 12.63-10.42-4.96-17.51-10.83-18.21-13.63-1.35-5.39-1.78-20.54-1.86-28.8l20-5.07m-.02-4.12-24 6.09s0 24.88 2 32.88c2 8 22 17.03 22 17.03s20-8.03 22-16.03c2-8 2-34.09 2-34.09l-24-5.88Z"/><path d="M44.92 25.43v-.12h-2.87v-2.26C42.05 17.5 37.55 13 32 13s-10.05 4.5-10.05 10.05v2.26h-2.87V45h25.85V25.44Zm-2.46 2.34v14.77H21.54V27.77h20.92Zm-16.92-4.72c0-3.56 2.9-6.46 6.46-6.46s6.46 2.9 6.46 6.46v2.26H25.54v-2.26Z"/><path d="M29.85 35.21v3.14c0 1.19.96 2.15 2.15 2.15s2.15-.96 2.15-2.15v-3.14c.44-.5.72-1.16.72-1.88 0-1.59-1.29-2.87-2.87-2.87s-2.87 1.29-2.87 2.87c0 .72.28 1.38.72 1.88Z"/></g></svg>