<svg xmlns="http://www.w3.org/2000/svg" viewBox="0 0 64 64"><path fill="none" d="M0 0h64v64H0z"/><path d="M30.67 40.37c-2.6 0-4.46 1.86-4.46 4.56s1.8 4.57 4.41 4.57h.05c2.71 0 4.52-1.96 4.52-4.57-.04-2.7-1.81-4.56-4.52-4.56Zm.71-25.87c-3.56 0-6.52 1.01-8.37 2.06l1.71 5.47c1.3-.9 3.3-1.5 4.97-1.5 2.51.1 3.66 1.25 3.66 3.01s-1.31 3.32-2.92 5.27c-2.26 2.66-3.1 5.27-2.95 7.84l.05 1.31h6.67v-.9c-.05-2.26.7-4.23 2.56-6.28 1.91-2.12 4.26-4.63 4.26-8.45 0-4.17-3.01-7.83-9.63-7.83ZM32.01 4C16.54 4 4 16.54 4 32s12.54 28 28 28 28-12.54 28-28S47.46 4 32 4Zm0 50c-12.13 0-22-9.87-22-22S19.87 10 32 10s22 9.87 22 22-9.87 22-22 22Z" fill="#000000"/></svg>