<svg xmlns="http://www.w3.org/2000/svg" viewBox="0 0 64 64"><path fill="none" d="M0 0h64v64H0z"/><g fill="#000000"><path d="M31.92 25.98c-5.51 0-10-4.49-10-10s4.49-10 10-10 10 4.49 10 10-4.49 10-10 10"/><path d="M31.92 7.98c4.41 0 8 3.59 8 8s-3.59 8-8 8-8-3.59-8-8 3.59-8 8-8m0-4c-6.63 0-12 5.37-12 12s5.37 12 12 12 12-5.37 12-12-5.37-12-12-12M31.81 58C21.08 58 15.7 54.96 14 53.76V41.54c0-4.71 3.89-8.55 8.67-8.55h18.67c4.78 0 8.67 3.83 8.67 8.55v12.22C48.32 54.94 42.88 58 31.82 58Z"/><path d="M41.33 35c3.68 0 6.67 2.94 6.67 6.55v11.12c-2.13 1.22-7.13 3.34-16.19 3.34S18.11 53.9 16 52.68V41.56c0-3.61 2.99-6.55 6.67-6.55h18.67M41.33 31H22.66c-5.89 0-10.67 4.72-10.67 10.55v13.18S17.32 60 31.8 60s20.19-5.27 20.19-5.27V41.55c0-5.82-4.78-10.55-10.67-10.55Z"/></g></svg>