<svg xmlns="http://www.w3.org/2000/svg" viewBox="0 0 64 64"><path fill="none" d="M0 0h64v64H0z"/><g fill="#000000"><path d="M56.91 7.17c-2.95-1.64-6.73-.67-8.43 2.18l-1.03 1.72-1.54 2.58-13.89 23.18.13 11.52 10.56-5.57L56.6 19.6l1.54-2.58 1.03-1.72c1.7-2.84.69-6.48-2.26-8.12ZM40.47 40.56l-1.94 1.03-3.39-1.88-.02-2.1 13.46-22.47 5.34 2.97-13.45 22.46Zm9.65-28.01 1.03-1.72c.85-1.42 2.74-1.91 4.22-1.09s1.98 2.64 1.13 4.06l-1.03 1.72-5.34-2.97ZM23.06 27.99c6.65 0 12-5.36 12-12s-5.35-12-12-12-12 5.37-12 12 5.38 12 12 12Zm0-18c3.31 0 6 2.69 6 6s-2.69 6-6 6-6-2.69-6-6 2.69-6 6-6Z"/><path d="M36 51v3H10v-9.51c0-3.03 2.46-5.49 5.49-5.49h13.32v-6H15.49C9.14 33 4 38.14 4 44.49V60h38V48l-6 3Z"/></g></svg>