<svg width="16" height="16" xmlns="http://www.w3.org/2000/svg" viewBox="0 0 54 54"><path d="M18.68 37.5v-5.84l-4.33 5.84Zm18-21.06a2.83 2.83 0 0 0 2.83-2.82v-7.8a2.83 2.83 0 0 0-5.65 0v7.8a2.82 2.82 0 0 0 2.87 2.82Zm-19.46 0a2.82 2.82 0 0 0 2.82-2.82v-7.8a2.82 2.82 0 0 0-5.64 0v7.8a2.82 2.82 0 0 0 2.87 2.82ZM43 12.05v1.89a6.3 6.3 0 0 1-12.6 0v-1.89h-6.83v1.89a6.3 6.3 0 0 1-12.6 0v-1.89H3V51h48V12.05ZM25.36 41.2a3.35 3.35 0 0 1-1.87.46h-.31v2a2.76 2.76 0 0 1-.6 1.93 2.13 2.13 0 0 1-1.62.7 2.12 2.12 0 0 1-1.64-.71 2.8 2.8 0 0 1-.61-1.92v-2H12.3a3.38 3.38 0 0 1-2.3-.73 2.63 2.63 0 0 1-.83-2 1.9 1.9 0 0 1 .13-.71 3.6 3.6 0 0 1 .34-.68c.13-.2.28-.41.42-.59s.31-.41.51-.68l7.29-9.76A13 13 0 0 1 19.08 25a2.08 2.08 0 0 1 1.48-.57 2.49 2.49 0 0 1 2 .78 3.26 3.26 0 0 1 .66 2.14v10.16h.06a4.6 4.6 0 0 1 1.92.33 1.77 1.77 0 0 1 .95 1.75 1.83 1.83 0 0 1-.79 1.61m16.35 4.13A2.3 2.3 0 0 1 40 46H29.8a2.7 2.7 0 0 1-1.95-.72 2.36 2.36 0 0 1-.74-1.72 4.1 4.1 0 0 1 .42-1.56 5.3 5.3 0 0 1 .92-1.44q1.83-1.9 3.33-3.27a21 21 0 0 1 2.15-1.83 11.6 11.6 0 0 0 1.8-1.53 6.3 6.3 0 0 0 1.05-1.51 3.5 3.5 0 0 0 .34-1.42 2.44 2.44 0 0 0-.34-1.31 2.4 2.4 0 0 0-.94-.88 3 3 0 0 0-1.32-.33 2.72 2.72 0 0 0-2.4 1.35 8 8 0 0 0-.4 1 5.2 5.2 0 0 1-.82 1.58 2 2 0 0 1-1.6.69 2.1 2.1 0 0 1-1.52-.61 2.24 2.24 0 0 1-.61-1.62 5.6 5.6 0 0 1 .47-2.18A6.1 6.1 0 0 1 29 26.62a6.8 6.8 0 0 1 2.32-1.47 8.9 8.9 0 0 1 3.25-.56 9.35 9.35 0 0 1 3.81.71A6.19 6.19 0 0 1 42 30.88a6.37 6.37 0 0 1-1 3.38 10.2 10.2 0 0 1-1.82 2.31c-.6.54-1.59 1.37-3 2.5a23 23 0 0 0-2.78 2.57h6.12a3.14 3.14 0 0 1 2 .55 2 2 0 0 1 .77 1.62 2.15 2.15 0 0 1-.58 1.52" fill="#000000"/></svg>