<svg xmlns="http://www.w3.org/2000/svg" viewBox="0 0 64 64"><path fill="none" d="M0 0h64v64H0z"/><path d="M59.58 33.4c-1.77-4.34-.09-8.84-2.37-8.84-.45 0-1.06.18-1.88.57-4.96 2.36-5.91 2.83-5.91 2.83s-8.27-2.36-9.45-4.72c-.79-1.59-1.8-4.03-3.66-4.03-.91 0-2.03.58-3.42 2.14-4.25 4.72-16.06 7.32-21.97 9.69-5.91 2.36-7.7 6.66-6.61 9.45 1.65 4.25 6.85 4.3 6.85 4.3h47.49s2.29-8.1.94-11.39Zm-23.76-8.96c.04.08.08.15.11.22l.24.48c1.12 2.25 4.19 4.24 9.08 5.95l-7.5 4.16-5.81-7.79c1.49-.9 2.82-1.89 3.89-3.02Zm.56 16.1h-4l-6.97-10c.91-.35 1.81-.72 2.68-1.11l8.28 11.1ZM8.26 38.95c-.14-.44.53-2.48 4.23-3.96 1.45-.58 3.42-1.22 5.5-1.89 1.08-.35 2.17-.71 3.28-1.08l5.93 8.52H11.22c-.25-.01-2.41-.18-2.96-1.59Zm47 1.59H41.69l-1.38-1.85 14.26-7.9c.16 1.3.46 2.73 1.06 4.2.27.79.09 3.07-.38 5.54Z" fill="#000000"/></svg>