<svg xmlns="http://www.w3.org/2000/svg" viewBox="0 0 64 64"><path fill="none" d="M0 0h64v64H0z"/><g fill="#000000"><path d="M12.09 16.02H8.7v31.96h46.47V16.02H12.09Zm2.87 26.54c0-3.3.94-4.95 2.26-4.95 1.51 0 2.22 1.82 2.22 4.89 0 .8-.06 1.48-.15 2.09h-4.17c-.1-.59-.15-1.26-.15-2.03Zm7.7 2.03h-.9c.12-.66.2-1.37.2-2.15 0-3.89-1.48-6.74-4.68-6.74s-4.84 2.75-4.84 6.88c0 .72.07 1.39.19 2.01h-.55V19.42h10.58v25.17Zm14.37 0H26.06V19.42h10.97v25.17Zm14.73 0H40.41V19.42h11.35v25.17ZM4 23.2h3.4v18.12H4zm52.61 0H60v18.12h-3.39z"/><path d="M32.52 33.45h2.36v-3.36h1.71v-1.9h-1.71v-7.97h-2.95l-5.41 8.24v1.63h6.01v3.36Zm-3.6-5.26v-.03l2.45-3.62c.41-.73.75-1.4 1.16-2.24h.08c-.04.79-.08 1.55-.08 2.3v3.6h-3.6Zm21.76 13.17h-5.42v-.04l1.14-.99c2.32-2.14 3.99-4.01 3.99-6.33 0-2.16-1.42-4-4.36-4-1.67 0-3.11.58-4.07 1.36l.73 1.77c.67-.5 1.65-1.1 2.83-1.1 1.73 0 2.36 1.04 2.36 2.22-.02 1.75-1.48 3.34-4.6 6.23l-1.57 1.45v1.52h8.96v-2.07Z"/></g></svg>