<svg xmlns="http://www.w3.org/2000/svg" viewBox="0 0 64 64"><path fill="none" d="M0 0h64v64H0z"/><g fill="#00962d"><path d="M48 4h4v20h-4z"/><path d="M40 12h20v4H40zm-1.89 17.97c2.55-.17 4.45-2.95 4.24-6.18s-2.47-5.73-5.02-5.56-4.45 2.95-4.24 6.18c.21 3.24 2.47 5.74 5.02 5.57Zm-12.81.7c2.55-.17 4.45-2.94 4.24-6.18-.21-3.23-2.47-5.73-5.02-5.56s-4.45 2.94-4.24 6.17c.21 3.24 2.47 5.74 5.02 5.57M32 51.93c-9.93 0-18-6.23-18-13.88 0-.53.21-1.07.59-1.44s.93-.64 1.42-.61l32 .06c1.1 0 2 .9 2 2 0 7.65-8.07 13.88-18 13.88ZM18.3 40c1.34 4.48 7.07 7.93 13.7 7.93s12.35-3.45 13.7-7.88z"/><path d="M53.81 22c1.87 4.07 2.64 8.74 1.92 13.64-1.56 10.51-10.1 18.84-20.64 20.16-15.65 1.97-28.86-11.25-26.9-26.9C9.51 18.36 17.85 9.82 28.35 8.26c4.9-.73 9.57.04 13.64 1.92.75.35 1.64.17 2.23-.41 1-1 .67-2.67-.62-3.26-4.13-1.89-8.8-2.8-13.71-2.44-13.65 1-24.74 12.02-25.8 25.66C2.74 46.97 17.02 61.25 34.26 59.9c13.64-1.07 24.66-12.16 25.66-25.8.36-4.91-.55-9.58-2.44-13.71-.59-1.29-2.26-1.62-3.26-.62-.59.59-.76 1.47-.41 2.23"/></g></svg>