<svg xmlns="http://www.w3.org/2000/svg" viewBox="0 0 64 64"><path fill="none" d="M0 0h64v64H0z"/><g fill="#00962d"><path d="M12.12 24.25h-8v15.87h8l12 7.94h4V16.32h-4l-12 7.93zM48.34 4.04l-2.86 2.83c13.98 13.88 13.97 36.46-.01 50.34l2.86 2.83c15.56-15.44 15.57-40.56.01-56Z"/><path d="m42.74 9.58-2.86 2.83c10.9 10.82 10.89 28.42 0 39.24s2.86 2.83 2.86 2.83c12.48-12.38 12.48-32.52 0-44.9Z"/><path d="m37.07 15.19-2.86 2.83c7.78 7.72 7.78 20.29 0 28.01l2.86 2.83c9.36-9.28 9.36-24.39 0-33.68Z"/></g></svg>