<svg xmlns="http://www.w3.org/2000/svg" viewBox="0 0 64 64"><path fill="none" d="M0 0h64v64H0z"/><path d="M39.72 19.79c5.2 0 9.37 4.07 9.5 9.27l.07 2.69 2.61.63c2.71.66 4.59 3.07 4.59 5.86v.2c-.1 3.23-2.76 5.83-6.01 5.83H14.59c-3.91 0-7.09-3.18-7.09-7.09s3.18-7.09 7.09-7.09c.41 0 .84.04 1.27.12l4.79.86-.7-4.82a3.807 3.807 0 0 1 3.76-4.34c1.18 0 2.28.54 3.01 1.48l2.75 3.55 2.78-3.52c1.82-2.3 4.54-3.63 7.46-3.63m0-3.51c-4.15 0-7.83 1.94-10.22 4.96a7.306 7.306 0 0 0-13.09 4.47c0 .35.03.7.08 1.04-.61-.11-1.24-.17-1.89-.17C8.74 26.58 4 31.33 4 37.18s4.74 10.6 10.59 10.6h35.89c5.26-.01 9.52-4.28 9.52-9.54 0-4.49-3.1-8.25-7.27-9.27-.18-7.04-5.93-12.69-13.01-12.69Z" fill="#00962d"/></svg>