<svg xmlns="http://www.w3.org/2000/svg" viewBox="0 0 56 41.09"><path d="M55.82 14.24c-1.15-3.46-13.45.24-21.22 1.86-2.76.58 2.27-6.64 5.07-11.86C41.3 1.19 39.54.13 29.92 0 20.3-.13 1.92 5.36.17 18.72c-1.8 13.72 10.77 24.75 31.16 21.93 24.41-3.38 25.29-24.02 24.49-26.42ZM6.13 16.1c0-2.09 1.69-3.78 3.78-3.78s3.78 1.69 3.78 3.78-1.69 3.78-3.78 3.78-3.78-1.69-3.78-3.78Zm5.64 16.43c-2.34 0-4.23-1.89-4.23-4.23s1.89-4.23 4.23-4.23S16 25.96 16 28.3s-1.89 4.23-4.23 4.23ZM16 8.6c0-1.7 1.38-3.08 3.08-3.08s3.08 1.38 3.08 3.08-1.38 3.08-3.08 3.08S16 10.3 16 8.6Zm9.55 28.71a4.82 4.82 0 0 1-5.33-4.24 4.82 4.82 0 0 1 4.24-5.33 4.82 4.82 0 0 1 5.33 4.24 4.82 4.82 0 0 1-4.24 5.33ZM38.87 35a4.82 4.82 0 0 1-5.33-4.24 4.82 4.82 0 0 1 4.24-5.33 4.82 4.82 0 0 1 5.33 4.24A4.82 4.82 0 0 1 38.87 35Zm8.81-9.2c-1.81.21-3.44-1.09-3.64-2.9s1.09-3.44 2.9-3.64a3.28 3.28 0 0 1 3.64 2.9 3.28 3.28 0 0 1-2.9 3.64Z" fill="#00962d"/></svg>