<svg xmlns="http://www.w3.org/2000/svg" viewBox="0 0 64 64"><path fill="none" d="M0 0h64v64H0z"/><g fill="#00962d"><path d="M22 15c2.76 0 5 2.24 5 5s-2.24 5-5 5-5-2.24-5-5 2.24-5 5-5m0-4a9 9 0 1 0 .001 18.001A9 9 0 0 0 22 11m7 24c2.21 0 4 1.79 4 4v7.87c-1.69.86-5.18 2.13-11.15 2.13S12.66 47.74 11 46.88V39c0-2.21 1.79-4 4-4zm0-4H15c-4.42 0-8 3.58-8 8v10s4 4 14.85 4S37 49 37 49V39c0-4.42-3.58-8-8-8m14-18c2.21 0 4 1.79 4 4s-1.79 4-4 4-4-1.79-4-4 1.79-4 4-4m0-4c-4.42 0-8 3.58-8 8s3.58 8 8 8 8-3.58 8-8-3.58-8-8-8"/><path d="M49.53 27.73H36.46c-1.55 0-2.99.47-4.18 1.28 2.28.08 4.32 1.11 5.73 2.72h11.52c1.91 0 3.47 1.56 3.47 3.47v7.18c-1.59.78-4.78 1.89-10.14 1.89-1.04 0-1.98-.05-2.86-.13v4.02c.9.07 1.84.12 2.86.12 10.4 0 14.14-3.73 14.14-3.73v-9.33a7.47 7.47 0 0 0-7.47-7.47Z"/></g></svg>