<svg xmlns="http://www.w3.org/2000/svg" viewBox="0 0 64 64"><path fill="none" d="M0 0h64v64H0z"/><g fill="#00962d"><path d="M32.01 4C16.52 4 3.97 16.56 3.97 32.05c0 15.48 12.55 28.02 28.04 28.03 15.49 0 28.05-12.55 28.05-28.03S47.5 4 32.01 4Zm0 50.42C19.66 54.39 9.67 44.4 9.65 32.06 9.67 19.7 19.67 9.7 32.01 9.68c12.36.02 22.35 10.02 22.37 22.38-.03 12.35-10.02 22.33-22.37 22.36Z"/><path d="M15.57 33.4h2.91s-.09-.8-.09-1.41c0-.51.09-1.5.09-1.5h-2.91v-3.61h3.52c2.02-7.04 8.3-12.05 16.03-12.05 2.48 0 4.64.61 4.64.61l-1.46 5.49s-1.59-.47-3.33-.47c-4.45 0-7.92 2.49-9.42 6.43h11.67l-.75 3.61H24.71s-.1.7-.1 1.41c0 .52.14 1.5.14 1.5H35.9l-.7 3.56h-9.38c1.45 3.98 5.06 6.56 9.38 6.56 2.43 0 4.5-.7 4.5-.7l1.07 5.53s-2.45.89-5.67.89c-8.01 0-14.11-5.01-16.03-12.28h-3.52v-3.56Z"/></g></svg>