<svg xmlns="http://www.w3.org/2000/svg" viewBox="0 0 64 64"><path fill="none" d="M0 0h64v64H0z"/><g fill="#00962d"><path d="m43.23 18.52-4.81 3.21v-2.85c0-1.09-.88-1.96-1.96-1.96H21.14c-1.09 0-1.96.88-1.96 1.96v12.11c0 1.09.88 1.96 1.96 1.96h15.32c1.09 0 1.96-.88 1.96-1.96v-2.85l4.81 3.21h1.6V18.52h-1.6Zm-6.61 12.47c0 .09-.08.17-.17.17H21.13c-.09 0-.17-.08-.17-.17V18.88c0-.09.08-.17.17-.17h15.32c.09 0 .17.08.17.17v12.11Z"/><path d="m25.58 29.75 7.22-4.81-7.22-4.81v9.62z"/><path d="M12 4v56h27c1.87 0 3.21-.75 4.53-2.09l6.29-6.39C51.11 50.21 52 48.84 52 47V4H12Zm4 4h32v35c0 1.93-1.34 3-3.28 3h-6.89v6.89c0 1.93-.9 3.11-2.83 3.11H16V8Zm25.33 47v-5.5h5.41L41.33 55Z"/></g></svg>