<svg xmlns="http://www.w3.org/2000/svg" viewBox="0 0 64 64"><path fill="none" d="M0 0h64v64H0z"/><g fill="#00962d"><path d="M38.75 21.49c-1.83-1.02-4.17-.41-5.22 1.35l-.64 1.06-.96 1.6-8.6 14.36.08 7.14 6.54-3.45 8.6-14.36.96-1.6.64-1.06c1.06-1.76.43-4.02-1.4-5.03ZM28.56 42.18l-1.2.64-2.1-1.17v-1.3l8.33-13.92 3.31 1.84-8.34 13.91Zm5.98-17.35.64-1.06c.53-.88 1.7-1.18 2.61-.67s1.23 1.64.7 2.52l-.64 1.06-3.31-1.84Z"/><path d="M34 14v-2c0-1.66-1.34-3-3-3H17c-1.66 0-3 1.34-3 3v2H4v40h56V14H34Zm22 36H8V18h48v32Z"/></g></svg>