<svg data-name="Ebene 2" xmlns="http://www.w3.org/2000/svg" viewBox="0 0 64 64"><path fill="none" d="M0 0h64v64H0z" data-name="Viewbox 64x64"/><g fill="#00962d"><path d="M34 14v-2c0-1.66-1.34-3-3-3H17c-1.66 0-3 1.34-3 3v2H4v40h56V14zm22 36H8V18h48z"/><path d="M22.61 29.81c2.19 0 3.96-1.77 3.96-3.96s-1.77-3.96-3.96-3.96-3.96 1.77-3.96 3.96 1.77 3.96 3.96 3.96m3.08.88h-6.16c-1.95 0-3.52 1.58-3.52 3.52v4.4s1.76 1.76 6.54 1.76 6.67-1.76 6.67-1.76v-4.4c0-1.95-1.58-3.52-3.52-3.52Z"/><circle cx="31.85" cy="24.52" r="3.52"/><path d="M34.73 29.25h-5.75c-.68 0-1.32.21-1.84.56 1.01.04 1.9.49 2.52 1.2.29.31.88 1 .88 2.33v4.9c.39.03.81.05 1.26.05 4.58 0 6.22-1.64 6.22-1.64v-4.11c0-1.82-1.47-3.29-3.29-3.29m7.98 7.34c2.19 0 3.96-1.77 3.96-3.96s-1.77-3.96-3.96-3.96-3.96 1.77-3.96 3.96 1.77 3.96 3.96 3.96m3.08.89h-6.16c-1.95 0-3.52 1.58-3.52 3.52v4.4s1.76 1.76 6.54 1.76 6.67-1.76 6.67-1.76V41c0-1.95-1.58-3.52-3.52-3.52Z"/></g></svg>