<svg xmlns="http://www.w3.org/2000/svg" viewBox="0 0 64 64"><path fill="none" d="M0 0h64v64H0z"/><g fill="#00962d"><path d="M28.5 25.5c-6.07 0-11 4.92-11 11 0 6.07 4.92 10.99 11 11 6.08 0 11-4.92 11-11s-4.93-11-11-11Zm.78 8.12c.77-.03 1.56-.1 2.34-.19.07.71.11 1.48.13 2.3h-2.47v-2.1Zm0-1.57v-4.28c.47.04.92.13 1.36.24.21.7.55 2.04.8 3.86-.72.09-1.46.15-2.16.18Zm-1.56 0c-.69-.03-1.42-.1-2.14-.19.25-1.85.59-3.17.8-3.86.44-.11.88-.19 1.34-.23v4.28Zm0 1.57v2.1h-2.44c.02-.82.06-1.59.13-2.3.78.1 1.57.17 2.32.2Zm-4.01 2.1h-3.94c.1-1.12.41-2.17.89-3.12.79.17 1.93.4 3.19.6-.07.78-.12 1.62-.14 2.52Zm0 1.56c.02.96.07 1.85.14 2.67-1.24.2-2.34.42-3.13.59a8.75 8.75 0 0 1-.96-3.26h3.94Zm1.56 0h2.45v2.26c-.76.03-1.55.1-2.32.19-.07-.76-.11-1.58-.13-2.45Zm2.45 3.83v4.12c-.47-.04-.94-.13-1.39-.24-.21-.74-.52-2.01-.75-3.7.71-.09 1.44-.15 2.14-.18Zm1.56 0c.7.03 1.44.1 2.17.19-.23 1.69-.54 2.95-.75 3.67-.46.12-.93.21-1.42.25V41.1Zm0-1.57v-2.27h2.47c-.02.89-.06 1.71-.13 2.47-.79-.1-1.58-.17-2.34-.2Zm4.04-2.27h3.91a8.8 8.8 0 0 1-.96 3.27c-.78-.17-1.88-.39-3.09-.58.07-.82.12-1.72.14-2.69Zm0-1.56c-.02-.9-.07-1.74-.14-2.51 1.26-.2 2.39-.43 3.17-.6.48.95.79 2 .89 3.12h-3.92Zm2.15-4.53c-.68.14-1.54.31-2.47.46-.17-1.2-.37-2.2-.55-2.97 1.19.6 2.22 1.46 3.02 2.51Zm-10.89-2.52c-.19.76-.39 1.76-.55 2.97-.93-.15-1.79-.31-2.48-.46a8.872 8.872 0 0 1 3.03-2.51Zm-2.93 13.29c.67-.14 1.5-.3 2.39-.44.16 1.12.34 2.06.51 2.81a8.79 8.79 0 0 1-2.91-2.37Zm10.86 2.35c.17-.73.35-1.66.51-2.77.87.14 1.68.29 2.35.43-.77.97-1.74 1.77-2.85 2.34Z"/><path d="M33 8H21c-1.66 0-3 1.34-3 3v1h-7v4h45v31h4V12H36v-1c0-1.66-1.34-3-3-3Z"/><path d="M49 23v27H8V23h41m4-4H4v35h49V19Z"/></g></svg>