<svg xmlns="http://www.w3.org/2000/svg" viewBox="0 0 64 64"><path fill="none" d="M0 0h64v64H0z"/><g fill="#00962d"><path d="M32 21.5c-6.9 0-12.5 5.6-12.5 12.51S25.1 46.5 32 46.51c6.9 0 12.5-5.6 12.5-12.5 0-6.91-5.6-12.51-12.5-12.51Zm0 22.47A9.978 9.978 0 0 1 22.03 34c.01-5.51 4.47-9.97 9.97-9.98 5.51.01 9.96 4.47 9.97 9.98-.01 5.5-4.46 9.95-9.97 9.97Z"/><path d="M30.16 25.58v7.76l-4.8 2.79 1.9 3.33 6.7-3.89h.03v-9.99h-3.83z"/><path d="M34 14v-2c0-1.66-1.34-3-3-3H17c-1.66 0-3 1.34-3 3v2H4v40h56V14H34Zm22 36H8V18h48v32Z"/></g></svg>