<svg width="16" height="16" xmlns="http://www.w3.org/2000/svg" viewBox="0 0 16 16" shape-rendering="geometricPrecision" fill="#00962d"><path d="M7.999.97a7.03 7.03 0 0 0 0 14.06 7.03 7.03 0 1 0 0-14.06M8.5 6.156c.493-.019 1-.064 1.496-.124q.063.684.082 1.468H8.5zm0-1.001V2.418q.448.042.872.152c.134.448.348 1.302.512 2.468-.462.056-.931.098-1.384.117m-1-.001c-.443-.02-.908-.063-1.371-.12.163-1.18.379-2.028.514-2.468a5.5 5.5 0 0 1 .857-.148zm0 1.001V7.5H5.938q.019-.789.08-1.472c.498.061 1.001.107 1.482.127M4.938 7.5h-2.52a5.6 5.6 0 0 1 .569-1.997c.505.11 1.231.256 2.038.385A25 25 0 0 0 4.938 7.5m-.002 1q.018.917.092 1.707c-.791.125-1.497.268-1.998.379A5.6 5.6 0 0 1 2.418 8.5zm1 0H7.5v1.447c-.487.019-.989.063-1.48.121A22 22 0 0 1 5.936 8.5M7.5 10.949v2.633a5.6 5.6 0 0 1-.886-.155c-.135-.47-.33-1.286-.481-2.363.457-.055.92-.096 1.367-.115m1 .001c.448.02.919.064 1.387.122a17 17 0 0 1-.479 2.348 5.6 5.6 0 0 1-.908.162zm0-1.001V8.5h1.581q-.017.849-.083 1.578A19 19 0 0 0 8.5 9.949M11.082 8.5h2.5a5.6 5.6 0 0 1-.614 2.09 37 37 0 0 0-1.976-.372q.072-.79.09-1.718m-.003-1a24 24 0 0 0-.09-1.606 34 34 0 0 0 2.025-.386 5.6 5.6 0 0 1 .568 1.993h-2.503zm1.372-2.895c-.438.092-.982.198-1.577.293a20 20 0 0 0-.353-1.899c.76.385 1.418.935 1.93 1.606M5.49 2.993c-.12.487-.246 1.127-.352 1.899A38 38 0 0 1 3.552 4.6 5.64 5.64 0 0 1 5.49 2.993m-1.875 8.492c.43-.09.957-.191 1.528-.282.1.716.216 1.319.329 1.795a5.6 5.6 0 0 1-1.857-1.513m6.942 1.499c.112-.469.225-1.061.323-1.769.557.09 1.075.188 1.501.275a5.6 5.6 0 0 1-1.824 1.494"/></svg>