<svg viewBox="0 0 64 64" xmlns="http://www.w3.org/2000/svg" xml:space="preserve" fill-rule="evenodd" clip-rule="evenodd" stroke-linejoin="round" stroke-miterlimit="2"><path fill="none" d="M0 0h64v64H0z"/><path d="M7 47h22.346l.077 1.53-.074 1.47H4V37.635l1.936-1.597L7 35.46zm53-9.145-1.884-2.122-1.116.366V47H36.4l.058.526-3.303 1.529-.096.945H60zM18.8 14H4v16.992l1.413.996L7 31.274V17h16.771l-.261-1.246-4.672-.96zM60 29.058l-1.41.857-1.59.766V17H28.976l-.254-.987L28.415 14H60z" fill="#28497C"/><path d="M28.977 17c2.253 8.85 10.288 15.392 19.84 15.392 2.909 0 5.677-.607 8.183-1.71v5.417a22.3 22.3 0 0 1-4.311 1.089l-.96 4.67a30 30 0 0 1-5.826 0l-.96-4.67a25.7 25.7 0 0 1-5.426-1.454l-3.167 3.565a30 30 0 0 1-5.045-2.913l1.504-4.525a25.6 25.6 0 0 1-3.973-3.973l-4.525 1.505a30 30 0 0 1-2.913-5.046l3.566-3.166A22 22 0 0 1 23.772 17zM60 29.058v8.797l-1.884-2.121-1.116.365v-5.418l1.59-.766zM28.722 16.013 28.415 14H18.8l.039.794 4.67.96.263 1.246h5.205z" fill="#28497C"/><path d="M7 31.274a15.8 15.8 0 0 1 3.576-1.166l.931-3.518a22 22 0 0 1 5.7 0l.931 3.518a18.8 18.8 0 0 1 5.163 1.88l2.976-2.096a22 22 0 0 1 4.365 3.663l-1.548 3.294a18.8 18.8 0 0 1 2.748 4.758l3.626.307c.518 1.652.84 3.359.932 5.086h-7.054c-.767-7.598-7.19-13.537-14.989-13.537-2.685 0-5.207.704-7.357 1.997zM36.4 47h-7.054l.078 1.53-.075 1.47h3.71l.096-.945 3.303-1.529zM5.413 31.988 7 31.274v4.186l-1.065.578L4 37.636v-6.644z" fill="#28497C"/></svg>