<svg xmlns="http://www.w3.org/2000/svg" viewBox="0 0 64 64"><path fill="none" d="M0 0h64v64H0z"/><g fill="#00962d"><path d="M29.78 56.31V42.48l-2.67 13.83h2.67zM43.59 7.72h-6.4l-1.35 6.99 2.41-2.44 3.49 3.54-7.6 7.71-1.56 8.14h11.01V7.72zm-9.7 28.6v23.72h23.62V36.32H33.89Zm15.19 11.86 4.79 4.81-3.37 3.39-4.79-4.81-4.79 4.81-3.38-3.39 4.79-4.81-4.79-4.81 1.67-1.68 1.7-1.71 4.8 4.82 4.79-4.82 3.37 3.39-4.79 4.81ZM6.15 32.59v23.72h17.04l.7-3.66h-3.63v-6.24h-4.59v6.24h-4.39v-7.97H9.97l7.99-8.44 7.55 7.97 2.24-11.62H6.15z"/><path d="m24.65 48.69.78-4.01h-.78v4.01zM20 4v23.93h8.65l.78-4.04-7.59-7.7 3.49-3.54 4.43 4.5 1.2-1.22L33.26 4H20z"/></g></svg>