<svg data-name="Ebene 2" xmlns="http://www.w3.org/2000/svg" viewBox="0 0 64 64"><path fill="none" d="M0 0h64v64H0z" data-name="Viewbox 64x64"/><g fill="#00962d" data-name="people &amp;amp; roles"><path d="M51 38h4v-8H34v-4h-4v4H9v8h4v-4h38z"/><circle cx="53" cy="45" r="2"/><path d="M53 41c-2.21 0-4 1.79-4 4s1.79 4 4 4 4-1.79 4-4-1.79-4-4-4m-.07 17c-2.58 0-4.14-.53-4.93-.91v-3.46c0-.9.78-1.64 1.73-1.64h6.53c.96 0 1.73.73 1.73 1.64v3.46c-.79.37-2.39.91-5.07.91Z"/><path d="M56 54v1.67c-.71.18-1.72.33-3.07.33s-2.24-.15-2.93-.32V54zm.27-4h-6.53c-2.06 0-3.73 1.63-3.73 3.64v4.55s1.87 1.82 6.93 1.82 7.07-1.82 7.07-1.82v-4.55c0-2.01-1.67-3.64-3.73-3.64Z"/><circle cx="11" cy="45" r="2"/><path d="M11 41c-2.21 0-4 1.79-4 4s1.79 4 4 4 4-1.79 4-4-1.79-4-4-4m-.07 17c-2.58 0-4.14-.53-4.93-.91v-3.46c0-.9.78-1.64 1.73-1.64h6.53c.96 0 1.73.73 1.73 1.64v3.46c-.79.37-2.39.91-5.07.91Z"/><path d="M14 54v1.67c-.71.18-1.72.33-3.07.33s-2.24-.15-2.93-.32V54zm.27-4H7.74c-2.06 0-3.73 1.63-3.73 3.64v4.55s1.87 1.82 6.93 1.82 7.07-1.82 7.07-1.82v-4.55c0-2.01-1.67-3.64-3.73-3.64ZM32 10c-1.1 0-2-.9-2-2s.9-2 2-2 2 .9 2 2-.9 2-2 2"/><path d="M32 4c-2.21 0-4 1.79-4 4s1.79 4 4 4 4-1.79 4-4-1.79-4-4-4m-.07 17c-2.58 0-4.14-.53-4.93-.91v-3.46c0-.9.78-1.64 1.73-1.64h6.53c.96 0 1.73.73 1.73 1.64v3.46c-.79.37-2.39.91-5.07.91Z"/><path d="M35 17v1.67c-.71.18-1.72.33-3.07.33s-2.24-.15-2.93-.32V17zm.27-4h-6.53c-2.06 0-3.73 1.63-3.73 3.64v4.55s1.87 1.82 6.93 1.82 7.07-1.82 7.07-1.82v-4.55c0-2.01-1.67-3.64-3.73-3.64Z"/></g></svg>