<svg width="16" height="16" xmlns="http://www.w3.org/2000/svg" viewBox="0 0 16 16" shape-rendering="geometricPrecision" fill="#00962d"><path d="M14.358 9.706a6.6 6.6 0 0 0 .228-1.697 6.58 6.58 0 0 0-6.578-6.578 6.6 6.6 0 0 0-1.691.229 3.3 3.3 0 0 0-1.906-.599 3.35 3.35 0 0 0-2.752 5.256 6.6 6.6 0 0 0-.227 1.692 6.58 6.58 0 0 0 6.578 6.578c.587 0 1.154-.084 1.696-.229a3.35 3.35 0 0 0 4.652-4.652m-2.77 4.207c-.468 0-.92-.139-1.306-.402l-.388-.264-.453.121a5.6 5.6 0 0 1-1.433.193 5.56 5.56 0 0 1-5.552-5.553c0-.465.065-.947.193-1.428l.122-.459-.27-.388a2.3 2.3 0 0 1-.414-1.322 2.327 2.327 0 0 1 2.324-2.324c.475 0 .932.145 1.322.414l.39.271.458-.123a5.6 5.6 0 0 1 1.428-.191 5.557 5.557 0 0 1 5.552 5.551c0 .467-.065.949-.194 1.432l-.121.453.265.389c.263.387.402.838.402 1.307a2.327 2.327 0 0 1-2.325 2.323"/><path d="M10.719 8.46a2.6 2.6 0 0 0-.574-.506 4.6 4.6 0 0 0-.729-.381l-1.202-.506c-.182-.074-.36-.146-.532-.224a2.6 2.6 0 0 1-.458-.26 1.2 1.2 0 0 1-.314-.328.8.8 0 0 1-.116-.443q0-.49.375-.772.375-.28 1.018-.279.573 0 1.043.205.471.203.896.559l.818-1.01a3.9 3.9 0 0 0-1.242-.826 3.8 3.8 0 0 0-1.515-.307q-.656.001-1.202.191a2.9 2.9 0 0 0-.942.531 2.5 2.5 0 0 0-.62.799 2.2 2.2 0 0 0-.226.99 2.27 2.27 0 0 0 .567 1.543q.252.286.58.49.327.206.655.342l1.215.533q.3.121.56.246.258.122.444.264.184.145.286.336a1 1 0 0 1 .103.465q0 .519-.402.832-.403.313-1.154.312-.628 0-1.242-.279a4 4 0 0 1-1.092-.729l-.915 1.078q.641.628 1.475.969a4.5 4.5 0 0 0 1.734.342q.75 0 1.344-.213.594-.21 1.01-.572a2.42 2.42 0 0 0 .854-1.863q0-.492-.129-.867a2.1 2.1 0 0 0-.371-.662"/></svg>