<svg xmlns="http://www.w3.org/2000/svg" viewBox="0 0 64 64"><path fill="none" d="M0 0h64v64H0z"/><g fill="#00962d"><path d="m34.84 51.66-1.21-9.7c4.35-2.4 9.18-6.06 13.8-10.68C61.63 17.07 59.95 4.02 59.95 4.02S46.2 3.05 32.71 16.55c-4.62 4.62-8.28 9.45-10.67 13.81l-9.69-1.21a1.96 1.96 0 0 0-1.65.57l-6.11 6.11c-1.07 1.07-.6 2.89.86 3.31l10.13 2.9-1.27 1.79 5.89 5.89 1.78-1.28 2.89 10.14c.41 1.45 2.24 1.93 3.3.86l6.11-6.11c.43-.43.64-1.04.56-1.65Zm-3.91-12.97c-1.6.84-3.57.5-4.85-.78s-1.62-3.25-.78-4.86c2.22-4.23 5.89-9.1 10.35-13.57 7.72-7.73 15.38-10.2 19.91-10.98-.71 4.38-3.13 11.86-11.08 19.82-4.46 4.47-9.32 8.14-13.55 10.36Z"/><circle cx="39.32" cy="24.65" r="4.16"/><circle cx="46.69" cy="17.28" r="3.12"/><circle cx="31.96" cy="32.02" r="3.12"/><path d="m44.88 44.99-1.77 4.75-4.75 1.77 4.75 1.77 1.77 4.75 1.77-4.75 4.75-1.77-4.75-1.77-1.77-4.75zm-28.6-19.55 2.5-6.7 6.7-2.5-6.7-2.5-2.5-6.7-2.5 6.7-6.7 2.5 6.7 2.5 2.5 6.7zm37.76 18.08 1.64-4.39 4.39-1.64-4.39-1.65-1.64-4.39-1.65 4.39L48 37.49l4.39 1.64 1.65 4.39z"/></g></svg>