<svg xmlns="http://www.w3.org/2000/svg" viewBox="0 0 64 64"><path fill="none" d="M0 0h64v64H0z"/><path d="M52.65 9.4c-7.26-7.19-18.94-7.13-26.2.04L5.91 29.84l3.68 3.64L30.12 13.1c5.24-5.21 13.63-5.24 18.86-.05 5.21 5.18 5.22 13.59 0 18.78L28.44 52.22c-3.58 3.56-9.37 3.59-12.95.03a9.108 9.108 0 0 1 0-12.9l17.98-17.86c1.98-1.95 5.1-1.95 7.04-.02a4.937 4.937 0 0 1 0 7L22.52 46.33l3.66 3.64 17.99-17.86c3.97-3.94 3.98-10.35.01-14.29-3.98-3.92-10.34-3.88-14.32 0S11.82 35.71 11.82 35.71c-5.61 5.57-5.6 14.62 0 20.18 5.62 5.56 14.69 5.51 20.29-.04l20.53-20.39c7.26-7.21 7.24-18.87 0-26.06Z" fill="#00962d"/></svg>