<svg xmlns="http://www.w3.org/2000/svg" viewBox="0 0 64 64"><path fill="none" d="M0 0h64v64H0z"/><g fill="#00962d"><path d="M31.99 20.83c6.19 0 11.2 5.01 11.2 11.2s-4.96 11.13-11.1 11.18v5.6c9.23-.05 16.7-7.55 16.7-16.78s-7.52-16.8-16.8-16.8-16.8 7.52-16.8 16.8v.04h5.6v-.04c0-6.19 5.02-11.2 11.2-11.2Zm0-16.8c-15.46 0-28 12.53-28 28.01v.04h5.6v-.04c0-12.37 10.03-22.4 22.39-22.4s22.39 10.03 22.39 22.4-9.98 22.34-22.3 22.39v5.6c15.42-.05 27.9-12.57 27.9-27.99S47.46 4.03 31.99 4.03Z"/><circle cx="18" cy="45" r="9"/></g></svg>