<svg xmlns="http://www.w3.org/2000/svg" viewBox="0 0 64 64"><path fill="none" d="M0 0h64v64H0z"/><g fill="#00962d"><path d="m6.05 21.33 53.34-5.61-.63-6.03a2.412 2.412 0 0 0-2.64-2.15L6.44 12.77a2.406 2.406 0 0 0-2.14 2.65l.63 6.03h.02v30.18c0 2.71 2.2 4.91 4.91 4.91h44.95c2.71 0 4.91-2.2 4.91-4.91v-30.3H6.05Zm6.93 3.91-4.12 4.12v-4.12h4.12Zm41.83 27.38H9.86c-.55 0-1-.45-1-1V33.06h1.83l7.82-7.82h3.73l-7.82 7.82h5.53l7.82-7.82h3.73l-7.82 7.82h5.53l7.83-7.82h3.73l-7.82 7.82h5.53l7.82-7.82h3.73l-7.82 7.82h5.53l7.82-7.82h.26v3.47l-4.36 4.36h4.36v18.56c0 .55-.45 1-1 1Z"/><path d="m26.47 50.72 11.74-7.82-11.74-7.83v15.65z"/></g></svg>