<svg data-name="Ebene 2" xmlns="http://www.w3.org/2000/svg" viewBox="0 0 64 64"><path fill="none" d="M0 0h64v64H0z" data-name="Viewbox 64x64"/><g fill="#00962d" data-name="Icons – Sammlung"><path d="M32 14c2.76 0 5-2.24 5-5s-2.24-5-5-5-5 2.24-5 5 2.24 5 5 5m0-7c1.1 0 2 .9 2 2s-.9 2-2 2-2-.9-2-2 .9-2 2-2m11 44h-4v5H25v-5h-4v5h-3v4h28v-4h-3z"/><path d="M39 9c0 1.49-.47 2.87-1.26 4H56v32H8V13h18.26A6.96 6.96 0 0 1 25 9H4v40h56V9z"/><path d="M19.49 32.42c2.09 0 3.78-1.66 3.78-3.71S21.58 25 19.49 25s-3.78 1.66-3.78 3.71 1.69 3.71 3.78 3.71M13 36.94v4.33S14.73 43 19.44 43 26 41.27 26 41.27v-4.33c0-1.91-1.55-3.47-3.47-3.47h-6.07c-1.91 0-3.47 1.55-3.47 3.47Zm31.5-4.56c2.09 0 3.79-1.65 3.79-3.69S46.59 25 44.5 25s-3.79 1.65-3.79 3.69 1.7 3.69 3.79 3.69M38 36.87v4.31s1.73 1.72 6.44 1.72S51 41.18 51 41.18v-4.31c0-1.9-1.55-3.45-3.47-3.45h-6.07c-1.91 0-3.47 1.54-3.47 3.45ZM32 16c-1.99 0-3.6 1.52-3.6 3.4s1.61 3.4 3.6 3.4 3.6-1.52 3.6-3.4S33.99 16 32 16m-6 15.35S27.6 33 31.94 33 38 31.35 38 31.35v-4.12c0-1.82-1.43-3.3-3.2-3.3h-5.6c-1.77 0-3.2 1.48-3.2 3.3z"/></g></svg>