<svg xmlns="http://www.w3.org/2000/svg" viewBox="0 0 64 64"><path fill="none" d="M0 0h64v64H0z"/><g fill="#ffffff"><path d="M60 8H4v39.99h41.41c3.32 6.05 6.67 11.46 7.83 10.98 1.04-.43.05-5.3-1.49-10.98H60V8Zm-4 35.99h-5.38c-2.19-7.41-4.74-14.79-4.74-14.79a4.515 4.515 0 0 0-5.87-2.51 4.515 4.515 0 0 0-2.51 5.86s2.63 5.47 5.76 11.44H8V12h48v31.99Z"/><path d="M33.73 18.67c1.05 1.2.27 3.33.79 4.71.65 1.71 2.32 2.8 4.09 2.31a3.32 3.32 0 0 0 2.31-4.08s-.83-2.98-3.63-4.9c-2.45-1.68-6.44-1.37-6.48-.38-.05 1.1 1.57.81 2.92 2.35Zm-15.95 9.64c1.11-.08 1.89-1.79 1.75-3.82s-1.15-3.62-2.26-3.54-1.89 1.78-1.75 3.82c.14 2.03 1.15 3.62 2.26 3.54Zm6.88-4.37c.88-.42.9-2.2.05-3.99s-2.25-2.89-3.13-2.47c-.88.42-.9 2.2-.05 3.99.85 1.78 2.25 2.89 3.13 2.47Zm-8.04 14.4c2.59 1.08 5.62 1.21 8.42.35 2.78-.88 5.26-2.86 6.59-5.38 1.36-2.48 1.8-5.29 1.22-7.87-2.09 4.78-4.98 8.3-9.02 9.44-1.97.67-4.15.76-6.36.46-2.23-.31-4.44-1.11-6.8-2.27 1.18 2.35 3.35 4.27 5.96 5.28Z"/></g></svg>