<svg xmlns="http://www.w3.org/2000/svg" viewBox="0 0 64 64"><path fill="none" d="M0 0h64v64H0z"/><g fill="#ffffff"><path d="M39.99 30.85c-1.99.06-4.04.03-6.16-.19-13.4-1.4-23.61-8.11-22.8-15 .81-6.89 12.33-11.33 25.73-9.94 2.12.22 4.12.62 6.05 1.08-3.33-1.21-7.11-2.11-11.18-2.53C17.27 2.78 4.92 7.55 4.05 14.93c-.87 7.38 10.08 14.58 24.45 16.08 4.07.42 7.97.33 11.5-.17Z"/><path d="M35.78 7.68c-4.06-.49-7.96-.46-11.5-.02 1.99-.03 4.03.03 6.15.29 13.37 1.61 23.46 8.49 22.52 15.36-.93 6.87-12.53 11.14-25.91 9.52-2.12-.26-4.11-.68-6.03-1.18 3.31 1.27 7.07 2.22 11.13 2.71 14.34 1.73 26.78-2.85 27.78-10.21 1-7.37-9.81-14.74-24.15-16.47Zm3.14 38.39c-1.73.05-3.51.03-5.36-.16-11.66-1.22-20.53-7.06-19.83-13.04.13-1.13.69-2.16 1.44-3.12-.75-.29-1.62-.64-2.59-1.07-.89-.39-1.62-.75-2.23-1.07-1.51 1.34-2.49 2.9-2.7 4.64-.76 6.42 8.77 12.69 21.27 13.99 3.54.37 6.93.29 10-.15Z"/><path d="M50.62 34.85c-.94.36-1.99.74-2.89.98-.94.25-2.02.45-2.96.6.1.16.2.33.29.5.08.28.16.59.14.94-.13 3.06-5.47 5.43-12.17 4.84-1.06-.09-2.06-.28-3.03-.49 1.53.83 3 1.52 5.82 1.75 3.15.27 6.33-.08 8.93-.86-2.37 4.34-8.75 8.48-16.93 10.42-1.8.43-3.56.68-5.28.85 3.11.03 6.48-.32 9.93-1.14 12.19-2.9 20.72-10.33 19.03-16.6-.17-.64-.51-1.23-.87-1.79Z"/><path d="M17.51 50.72c.1-1.88 1.31-3.54 3.18-4.84-.55-.15-1.13-.32-1.77-.56-.48-.18-.84-.32-1.22-.46-2.46 1.44-4.05 3.42-4.17 5.68-.25 4.84 6.16 9.06 14.33 9.44 2.31.11 4.51-.12 6.49-.59-1.12.12-2.28.19-3.48.13-7.61-.35-13.6-4.29-13.36-8.8Zm32.02-25.48c1.52-5.66-5.14-12.13-14.89-14.45-9.75-2.32-18.88.38-20.41 6.03-.42 1.56-.17 3.17.55 4.75.01-.13-.02-.27 0-.4.94-5.51 9.4-8.8 18.89-7.36 9.3 1.41 16.09 6.85 15.47 12.25.12-.28.3-.53.38-.82Z"/></g></svg>