<svg xmlns="http://www.w3.org/2000/svg" viewBox="0 0 64 64"><path fill="none" d="M0 0h64v64H0z"/><g fill="#ffffff"><path d="M53.48 7.54H10.53c-3.59 0-6.52 2.94-6.52 6.52v25.45c0 3.59 2.94 6.52 6.52 6.52h8.65l.03 10.5c6.46-.02 11.93-4.5 13.5-10.5h20.78c3.59 0 6.52-2.94 6.52-6.52V14.06c0-3.59-2.94-6.52-6.52-6.52Zm3.02 31.97c0 1.67-1.36 3.02-3.02 3.02H29.67c0 4.55-2.92 8.44-6.98 9.89l-.02-9.89H10.53c-1.67 0-3.02-1.36-3.02-3.02V14.06c0-1.67 1.36-3.02 3.02-3.02h42.95c1.67 0 3.02 1.36 3.02 3.02z"/><path d="M15.39 20.31v4.6h5.83v2.31h-5.83v6.34h-2.91V18h9.81v2.3h-6.91Zm21.32 13.26h-2.24c-.25 0-.46-.06-.61-.19s-.28-.28-.36-.47l-1.16-3.17H25.9l-1.16 3.17q-.09.255-.33.45c-.17.14-.37.2-.61.2h-2.26L27.66 18h2.95l6.11 15.56Zm-5.11-5.88-1.89-5.18c-.09-.23-.19-.5-.29-.82q-.15-.48-.3-1.02a17 17 0 0 1-.58 1.86l-1.88 5.15h4.95Zm21.92 8.92h-2.39c-.34 0-.65-.05-.93-.14s-.53-.27-.76-.52l-2.28-2.52a8.6 8.6 0 0 1-2.32.31c-1.18 0-2.25-.2-3.22-.6s-1.8-.95-2.49-1.66-1.23-1.55-1.61-2.52-.57-2.03-.57-3.17.19-2.2.57-3.17.92-1.81 1.61-2.52 1.52-1.26 2.49-1.66 2.04-.6 3.22-.6c.79 0 1.53.09 2.23.27s1.33.44 1.92.77 1.1.74 1.57 1.22c.46.48.85 1.01 1.18 1.6.32.59.57 1.23.74 1.92s.25 1.41.25 2.17a8.7 8.7 0 0 1-.84 3.78c-.27.55-.6 1.06-.98 1.52-.39.46-.83.87-1.32 1.22l3.95 4.3ZM39.91 25.79c0 .85.12 1.62.34 2.3s.56 1.25.99 1.72.94.83 1.55 1.08 1.29.38 2.05.38 1.44-.13 2.05-.38 1.12-.61 1.54-1.08a4.9 4.9 0 0 0 .98-1.72c.23-.68.34-1.44.34-2.3s-.12-1.62-.34-2.3c-.23-.68-.56-1.25-.98-1.73-.42-.47-.94-.84-1.54-1.09s-1.29-.38-2.05-.38-1.44.13-2.05.38-1.12.61-1.55 1.09c-.43.47-.76 1.05-.99 1.73s-.34 1.44-.34 2.3"/></g></svg>