<svg xmlns="http://www.w3.org/2000/svg" viewBox="0 0 64 64"><path fill="none" d="M0 0h64v64H0z"/><g fill="#ffffff"><path d="M42.5 19.17h-5.83v-2.33c0-1.29-1.04-2.33-2.33-2.33h-4.67c-1.29 0-2.33 1.04-2.33 2.33v2.33h-1.17v-2.33H21.5v2.33c-1.29 0-2.33 1.04-2.33 2.33v11.67c0 1.29 1.04 2.33 2.33 2.33h21c1.29 0 2.33-1.04 2.33-2.33V21.5c0-1.29-1.04-2.33-2.33-2.33ZM32 32.94a5.83 5.83 0 1 1 0-11.66 5.83 5.83 0 0 1 0 11.66Zm10.5-6.77H39v-3.5h3.5v3.5Z"/><path d="M12 4v56h27c1.87 0 3.21-.75 4.53-2.09l6.29-6.39C51.11 50.21 52 48.84 52 47V4H12Zm4 4h32v35c0 1.93-1.34 3-3.28 3h-6.89v6.89c0 1.93-.9 3.11-2.83 3.11H16V8Zm25.33 47v-5.5h5.41L41.33 55Z"/></g></svg>