<svg xmlns="http://www.w3.org/2000/svg" viewBox="0 0 64 64"><path fill="none" d="M0 0h64v64H0z"/><g fill="#ffffff"><path d="M36 4H12v56h27c1.87 0 3.21-.75 4.53-2.09l6.29-6.39C51.11 50.21 52 48.84 52 47V4H36Zm-4.07 9.69c-.56.93-1.76 1.23-2.7.68a1.978 1.978 0 0 1-.68-2.7c.56-.93 1.76-1.23 2.7-.68.93.56 1.23 1.76.68 2.7Zm9.4 41.3v-5.5h5.41l-5.41 5.5Zm6.67-12c0 1.93-1.34 3-3.28 3h-6.89v6.89c0 1.93-.9 3.11-2.83 3.11h-3v-4h-4v4H16V8h12v2.51c-.18.16-.36.33-.52.52-.71.82-3.36 3.52-4.23 4.97A4.29 4.29 0 0 0 28 22.36V24h4v-4h-1.16c.38-.75.79-1.82 1.16-2.85V20h4v-4h-3.59c.25-.72.46-1.34.6-1.66.32-.77.42-1.59.29-2.34H36V8h12v35Z"/><path d="M32 48h4v4h-4zm0-8h4v4h-4zm-4 4h4v4h-4zm0-8h4v4h-4zm4-4h4v4h-4zm-4-4h4v4h-4zm4-4h4v4h-4z"/></g></svg>