<svg xmlns="http://www.w3.org/2000/svg" viewBox="0 0 64 64"><path fill="none" d="M0 0h64v64H0z"/><g fill="#ffffff"><path d="M22.83 21.43h-3.66v7.33h3.66l5.5 3.67h1.84V17.76h-1.84l-5.5 3.67zm12.36-4.93-2.4 2.4c3.36 3.38 3.36 8.83 0 12.2l2.4 2.4c4.7-4.7 4.7-12.31 0-17.01Z"/><path d="m39.52 12.17-2.41 2.41c2.88 2.88 4.32 6.65 4.32 10.43 0 3.78-1.44 7.54-4.32 10.43l2.41 2.41c7.09-7.09 7.09-18.58 0-25.67Z"/><path d="M12 4v56h27c1.87 0 3.21-.75 4.53-2.09l6.29-6.39C51.11 50.21 52 48.84 52 47V4H12Zm4 4h32v35c0 1.93-1.34 3-3.28 3h-6.89v6.89c0 1.93-.9 3.11-2.83 3.11H16V8Zm25.33 47v-5.5h5.41L41.33 55Z"/></g></svg>