<svg xmlns="http://www.w3.org/2000/svg" viewBox="0 0 64 64"><path fill="none" d="M0 0h64v64H0z"/><g fill="#ffffff"><path d="M37.57 21c-1.5-1.29-3.39-2.29-5.09-2.29s-2.62.67-2.62 1.86c0 3.39 13.13 3.68 13.13 12.33 0 2.77-1.45 4.83-3.97 6.36.68 1 1.12 2.2 1.12 3.68 0 4.3-3.25 7.55-9.3 7.55-3.54 0-7.22-1.29-9.4-4.02l4.12-3.58c1.55 1.58 3.39 2.44 5.28 2.44 1.98 0 2.9-.86 2.9-2.06 0-3.73-12.74-3.39-12.74-12.38 0-2.39 1.5-4.68 3.88-6.12-.87-1-1.4-2.29-1.4-3.97 0-4.3 3.2-7.31 8.62-7.31 3.73 0 6.73 1.58 8.72 3.11L37.58 21Zm-2.23 15.3c1.11-.67 1.65-1.53 1.65-2.82 0-3.01-4.51-3.97-8.29-5.88-1.11.72-1.7 1.63-1.7 2.77 0 3.01 4.6 3.97 8.34 5.93Z"/><path d="M32 8c13.23 0 24 10.77 24 24S45.23 56 32 56 8 45.23 8 32 18.77 8 32 8m0-4C16.54 4 4 16.54 4 32s12.54 28 28 28 28-12.54 28-28S47.46 4 32 4Z"/></g></svg>