<svg xmlns="http://www.w3.org/2000/svg" viewBox="0 0 64 64"><path fill="none" d="M0 0h64v64H0z"/><g fill="#ffffff"><path d="M38.42 50.67H25.59c-.97 0-1.75.78-1.75 1.75s.78 1.75 1.75 1.75h12.83c.97 0 1.75-.78 1.75-1.75s-.78-1.75-1.75-1.75Zm-1.17 5.83h-10.5c-.97 0-1.75.78-1.75 1.75S25.78 60 26.75 60h10.5c.97 0 1.75-.78 1.75-1.75s-.78-1.75-1.75-1.75ZM32 4c-.75 0-1.52.04-2.29.13-9 1.01-16.3 8.22-17.39 17.21-1 8.16 2.97 15.49 9.29 19.39.67.42 1.06 1.17 1.06 1.97v3.89c0 .97.78 1.75 1.75 1.75h15.17c.97 0 1.75-.78 1.75-1.75v-3.91c0-.79.39-1.54 1.06-1.95 5.67-3.49 9.44-9.75 9.44-16.89 0-10.95-8.88-19.83-19.83-19.83Zm8.55 33.74c-1.68 1.03-2.72 2.92-2.72 4.93v2.16H26.16v-2.14c0-2.02-1.04-3.91-2.72-4.95-5.51-3.4-8.44-9.52-7.65-15.98.9-7.38 6.92-13.33 14.31-14.15.63-.07 1.27-.11 1.9-.11 9.01 0 16.33 7.33 16.33 16.33 0 5.71-2.91 10.91-7.78 13.91Z"/><path d="M38.29 11.09a14.66 14.66 0 0 0-6.02-1.28c-4.81 0-9.34 2.35-12.1 6.3-.64.91-.42 2.18.5 2.81.34.24.74.36 1.16.36.66 0 1.28-.32 1.66-.86a10.733 10.733 0 0 1 13.16-3.65c.49.22 1.04.24 1.55.04.5-.19.9-.57 1.12-1.06.45-1.02 0-2.21-1.02-2.67Zm-17.9 8.47c-1.08-.27-2.18.39-2.45 1.48a14.802 14.802 0 0 0-.1 6.65c.2.92 1.03 1.59 1.97 1.59.14 0 .28-.02.43-.05a2.027 2.027 0 0 0 1.55-2.4c-.16-.74-.24-1.5-.24-2.26 0-.87.11-1.73.31-2.57a2.024 2.024 0 0 0-1.47-2.45Z"/></g></svg>