<svg xmlns="http://www.w3.org/2000/svg" viewBox="0 0 64 64"><path fill="none" d="M0 0h64v64H0z"/><g fill="#ffffff"><path d="m42.29 41.26-5.34-.6-4.44 2.93-4.44-2.93-.19.02L33.4 60l6.69-7.14 9.58 2.77-5.23-18.29-2.15 3.92z"/><path d="m48.76 20.05 1.14-4.61-4-2.72-1.2-4.59-4.85-.61L36.59 4l-4.58 1.65L27.43 4l-3.26 3.52-4.85.61-1.2 4.59-4 2.72 1.14 4.61-2.24 4.22 3.22 3.57.03 4.74 4.56 1.72 2.3 4.18 4.86-.54 4.03 2.67 4.04-2.67 4.86.54 2.29-4.18 4.56-1.72.03-4.74 3.22-3.57-2.24-4.21ZM32 37.5c-8.66 0-15.67-6.8-15.67-15.2S23.34 7.1 32 7.1s15.67 6.8 15.67 15.2S40.65 37.5 32 37.5Z"/><path d="M32.12 10.04c6.98 0 12.64 5.48 12.64 12.25S39.1 34.54 32.12 34.54s-12.63-5.48-12.63-12.25 5.66-12.25 12.63-12.25ZM21.89 41.2l-2.52-4.6-.14-.05-4.39 19.34L25 52.35l5.38 5.14-4.77-16.7-3.72.41z"/></g></svg>