<svg xmlns="http://www.w3.org/2000/svg" viewBox="0 0 64 64"><path fill="none" d="M0 0h64v64H0z"/><g fill="#ffffff"><path d="M60 49.53H4v3.32h3.4l2.59 3.22h44.32l2.59-3.22H60v-3.32zM29.3 34.55c-3.22-2.15-6.39-3.5-8.47-3.19l-4.16-3.44c.61-.77.5-1.89-.25-2.5-.77-.64-1.9-.52-2.53.23-.43.52-.49 1.21-.25 1.8-.63-.12-1.3.07-1.73.59-.63.77-.52 1.89.24 2.52.73.61 1.79.52 2.43-.16l4.11 3.39c-.02 2.09 1.96 5.01 4.69 7.9 3.47 3.69 7.41 5.57 10.09 2.33 2.6-3.14.12-6.62-4.18-9.47Z"/><path d="M39.08 33.72c5.28 0 9.58 3.7 9.58 8.26s-4.3 8.26-9.58 8.26c-8.28 0-22.58-1.94-24.81-4.36-.04-.11-.05-.34.17-.79.9-1.91 4.25-4.48 8.7-5.5 1.21-.27 2.42-.41 3.61-.41.25 0 .5 0 .74.02l2.21.11 1.32-1.78c1.78-2.39 4.8-3.81 8.06-3.81m0-4.14c-4.74 0-8.92 2.18-11.38 5.48-.31 0-.63-.02-.95-.02-1.46 0-2.99.17-4.53.52-7.56 1.72-13.98 7.58-11.61 12.28 2.82 5.58 25.54 6.54 28.47 6.54 7.58 0 13.72-5.56 13.72-12.4s-6.14-12.4-13.72-12.4ZM33 27.88l-1.5-1.43c.12-.12 2.93-3.28-.13-8.39-3.27-5.45-.09-9.94.05-10.13l1.68 1.2c-.1.15-2.5 3.62.05 7.86 3.89 6.49.03 10.7-.14 10.88Z"/><path d="m28.86 27.88-1.51-1.43c.12-.12 2.93-3.28-.13-8.38-3.26-5.46-.09-9.95.05-10.14l1.68 1.2c-.11.15-2.5 3.62.04 7.86 3.89 6.49.03 10.7-.14 10.88Zm8.28 0-1.5-1.43c.11-.12 2.92-3.28-.13-8.39-3.27-5.45-.09-9.94.05-10.13l1.67 1.2c-.1.15-2.49 3.62.05 7.86 3.89 6.49.03 10.7-.14 10.88Z"/></g></svg>