<svg xmlns="http://www.w3.org/2000/svg" viewBox="0 0 64 64"><path fill="none" d="M0 0h64v64H0z"/><path d="M19.83 51.31h24.22c3.16 0 5.72-2.56 5.72-5.72V15.65c0-3.16-.6-4.98-3.7-5.72-2-.49-6.18-1.67-11.71-1.96v-1.6h4.29c.65 0 1.18-.53 1.18-1.18s-.53-1.18-1.18-1.18H25.24c-.65 0-1.18.53-1.18 1.18s.53 1.18 1.18 1.18h4.29v1.57c-7.06.18-9.06 1.18-11.71 1.99-3.02.92-3.7 2.56-3.7 5.72v29.94c0 3.16 2.56 5.72 5.72 5.72Zm3.65-5.5c-1.35 0-2.43-1.02-2.61-2.32-.13.02-.26.04-.4.04a3.26 3.26 0 1 1 3.26-3.26c0 .07-.02.14-.02.21 1.37.12 2.46 1.24 2.46 2.64 0 1.48-1.2 2.69-2.69 2.69Zm19.66-2.28c-.15 0-.29-.02-.43-.04-.19 1.3-1.26 2.32-2.61 2.32a2.69 2.69 0 0 1-2.69-2.69c0-1.4 1.09-2.52 2.46-2.64 0-.06-.02-.12-.02-.18a3.26 3.26 0 1 1 3.29 3.23Zm-26.01-24.2c0-3.16.66-4.88 3.7-5.72 2.34-.65 6.31-1.3 11.28-1.3 4.32 0 8.54.73 10.88 1.3 3.07.75 3.7 2.56 3.7 5.72l-.07.24c.03.24.07.49.07.74l-.73 6.51c0 3.16-.66 4.88-3.7 5.72-2.34.65-5.58 1.3-10.55 1.3-4.32 0-7.68-.73-10.02-1.3-3.07-.75-3.7-2.56-3.7-5.72l-.86-6.51c0-.25.04-.49.07-.74l-.07-.24ZM13.75 60H24v-7.35h-4.19L13.75 60zm30.44-7.35H40V60h10.25l-6.06-7.35z" fill="#ffffff"/></svg>