<svg xmlns="http://www.w3.org/2000/svg" viewBox="0 0 64 64"><path fill="none" d="M0 0h64v64H0z"/><path d="M56.05 45.55c-1.29.02-2.48.68-3.16 1.77-8.78-.76-17-4.66-23.13-11 .46-.71.81-1.5 1.02-2.32h4.85c.69 1.06 1.86 1.7 3.13 1.72 2.13.03 3.88-1.68 3.91-3.81a3.863 3.863 0 0 0-7.32-1.77H30.8a7.6 7.6 0 0 0-1.07-2.44c4.21-3.82 9.49-6.26 15.13-7 1.12 3 4.46 4.53 7.47 3.42 3-1.12 4.53-4.46 3.42-7.47-1.12-3-4.46-4.53-7.47-3.42a5.817 5.817 0 0 0-3.47 3.57c-6.74.8-13.04 3.73-18 8.37a7.613 7.613 0 0 0-3.47-.86c-.44 0-.88.05-1.31.13a36.375 36.375 0 0 1-2.5-10.48 3.808 3.808 0 0 0 1.77-3.16 3.856 3.856 0 0 0-3.81-3.91 3.856 3.856 0 0 0-3.91 3.81c-.02 1.47.79 2.82 2.1 3.49.33 4.08 1.29 8.08 2.83 11.87a7.656 7.656 0 0 0-2.63 4.09h-4.16c-1.07 0-1.93-.87-1.93-1.93v-4.6a3.828 3.828 0 0 0 1.95-3.28 3.856 3.856 0 0 0-3.81-3.91 3.856 3.856 0 0 0-3.91 3.81v.11c.02 1.35.75 2.59 1.92 3.26v4.62c0 3.2 2.59 5.79 5.79 5.79h4.18a7.67 7.67 0 0 0 2.25 3.71c-1.56 3.9-2.43 8.04-2.57 12.24a3.828 3.828 0 0 0-2 3.32 3.856 3.856 0 0 0 3.81 3.91c2.13.03 3.89-1.68 3.91-3.81v-.11a3.784 3.784 0 0 0-1.87-3.23c.13-3.6.85-7.15 2.15-10.51.58.14 1.17.21 1.76.22 1.23 0 2.44-.31 3.53-.89a40.335 40.335 0 0 0 25.81 12.3 3.81 3.81 0 0 0 3.38 2.1c2.13.03 3.89-1.68 3.91-3.81a3.856 3.856 0 0 0-3.81-3.91h-.11Z" fill="#ffffff"/></svg>