<svg xmlns="http://www.w3.org/2000/svg" viewBox="0 0 64 64"><path fill="none" d="M0 0h64v64H0z"/><g fill="#ffffff"><path d="M41.59 23.43c-3.9-.06-7.85-.06-13.17 0s-7.67 1.61-8.41 4.2c-.74 2.6-4.39 15.21-4.39 15.21h6.37l3.52-10.82s12.43-.06 18.18-.06 5.38-1.85 5.5-4.51c.12-2.66-3.71-3.96-7.61-4.02Zm3.65 4.27c-.25 1.3-.87 1.98-3.83 1.92s-15.46 0-15.46 0 .12-.93.49-2.16c.37-1.24 1.11-1.67 4.58-1.67s8.04.12 10.57.12 3.9.49 3.65 1.79Z"/><path d="M32 4.03c-15.46 0-28 12.54-28 28.01s12.53 27.98 28 27.99c15.46 0 27.99-12.53 27.99-27.99C59.99 16.57 47.46 4.03 32 4.03Zm0 50.33c-12.33-.02-22.31-10-22.34-22.32C9.69 19.7 19.66 9.72 32 9.7c12.33.02 22.31 10 22.33 22.34-.02 12.32-10 22.3-22.33 22.32Z"/></g></svg>