<svg xmlns="http://www.w3.org/2000/svg" viewBox="0 0 64 64"><path fill="none" d="M0 0h64v64H0z"/><g fill="#ffffff"><path d="M33.01 17.46h-5.66V29.4h5.99c2.22 0 3.94-.52 5.14-1.57 1.2-1.05 1.8-2.55 1.8-4.5 0-3.92-2.42-5.88-7.27-5.88Z"/><path d="M31.99 4.04C16.53 4.04 4 16.57 4 32.03s12.53 27.99 27.99 27.99 27.99-12.53 27.99-27.99S47.45 4.04 31.99 4.04Zm12.28 25.34c-1.11 1.71-2.63 2.96-4.56 3.73-1.93.78-4.7 1.16-8.31 1.16h-4.05v16.56h-5.49V12.6h12.11c3.65 0 6.55.98 8.72 2.95s3.25 4.61 3.25 7.93c0 2.22-.56 4.19-1.67 5.9Z"/></g></svg>