<svg xmlns="http://www.w3.org/2000/svg" viewBox="0 0 64 64"><path fill="none" d="M0 0h64v64H0z"/><path d="M29.86 45.41c-4.17 0-7.15 2.98-7.15 7.32s2.9 7.32 7.08 7.32h.08c4.35 0 7.24-3.14 7.24-7.32-.08-4.34-2.9-7.32-7.24-7.32ZM30.99 4c-5.71 0-10.45 1.61-13.43 3.3l2.73 8.76c2.09-1.44 5.31-2.41 7.96-2.41 4.02.16 5.87 2.01 5.87 4.83s-2.09 5.3-4.66 8.44c-3.62 4.27-4.99 8.45-4.74 12.54l.08 2.09h10.69V40.1c-.08-3.61 1.13-6.75 4.1-10.05 3.06-3.37 6.83-7.39 6.83-13.51C46.42 9.87 41.6 4 30.98 4Z" fill="#ffffff"/></svg>