<svg data-name="Ebene 2" xmlns="http://www.w3.org/2000/svg" viewBox="0 0 64 64"><path fill="none" d="M0 0h64v64H0z" data-name="Viewbox 64x64"/><path d="M26.65 13H4v38h56V13zM8 17h11.48c.33 1.28.52 2.62.52 4 0 7.45-5.1 13.7-12 15.48zm0 30v-6.43c.36-.07.73-.16 1.08-.25l1.84 2.95c.24.38.72.54 1.13.36l2.25-.93c.42-.17.65-.62.55-1.06l-.78-3.39c.7-.41 1.37-.86 2.02-1.35l2.83 2.02c.37.26.87.22 1.19-.1l1.72-1.72c.32-.32.36-.82.1-1.19l-2.02-2.83c.49-.64.94-1.32 1.35-2.02l3.39.78c.44.1.89-.13 1.06-.55l.93-2.25c.17-.42.02-.9-.36-1.13l-2.95-1.84c.2-.78.36-1.57.47-2.38l3.43-.57c.44-.07.77-.46.77-.91v-2.44c0-.45-.33-.84-.77-.91l-3.43-.57c-.06-.44-.14-.87-.22-1.3h32.43v16.03s-.05.02-.08.04l-2.83 2.02c-.64-.49-1.31-.94-2.02-1.35l.78-3.39c.1-.44-.13-.89-.55-1.06l-2.25-.93a.915.915 0 0 0-1.13.36l-1.84 2.95c-.78-.2-1.57-.36-2.38-.47l-.57-3.43a.924.924 0 0 0-.91-.77h-2.44c-.45 0-.84.33-.91.77l-.57 3.43c-.81.11-1.6.27-2.38.47l-1.84-2.95a.91.91 0 0 0-1.13-.36l-2.25.93c-.42.17-.65.62-.55 1.06l.78 3.39c-.7.41-1.37.86-2.02 1.35l-2.83-2.02a.926.926 0 0 0-1.19.1l-1.72 1.72c-.32.32-.36.82-.1 1.19l2.02 2.83c-.49.64-.94 1.32-1.35 2.02l-3.39-.78c-.44-.1-.89.13-1.06.55l-.93 2.25c-.17.42-.02.9.36 1.13l2.95 1.84c-.09.36-.18.72-.25 1.08H8Zm48 0H25.52C27.3 40.1 33.54 35 41 35c6.89 0 12.75 4.37 15 10.48z" fill="#ffffff" fill-rule="evenodd"/></svg>