<svg xmlns="http://www.w3.org/2000/svg" viewBox="0 0 64 64"><path fill="none" d="M0 0h64v64H0z"/><path d="M55.06 19.8 54 23.77C50.66 14.86 42.09 8.5 32.01 8.5c-10.91 0-20.08 7.43-22.73 17.51l3.89 1.03c2.2-8.36 9.8-14.55 18.84-14.55s16.51 6.08 18.78 14.32l-5.38-1.44-4.94 2.86 15.41 4.13 4.13-15.43-4.94 2.86ZM32 51.5c-8.9 0-16.42-6-18.75-14.17l5.34 1.43 4.94-2.86-15.41-4.13L3.99 47.2l4.94-2.86 1.08-4.05c3.35 8.88 11.91 15.21 21.97 15.21 10.89 0 20.04-7.41 22.71-17.45l-3.89-1.03c-2.22 8.33-9.81 14.49-18.82 14.49Z" fill="#ffffff"/></svg>