<svg xmlns="http://www.w3.org/2000/svg" viewBox="0 0 64 64"><path fill="none" d="M0 0h64v64H0z"/><path d="M32 9.38c3.69 0 6.69 3 6.69 6.69s-3 6.69-6.69 6.69-6.69-3-6.69-6.69 3-6.69 6.69-6.69m0-5.35c-6.65 0-12.05 5.39-12.05 12.05S25.34 28.13 32 28.13s12.05-5.39 12.05-12.05S38.66 4.03 32 4.03m9.37 32.08c2.95 0 5.35 2.38 5.35 5.31v10.46c-2.26 1.15-6.94 2.83-14.92 2.83s-12.3-1.67-14.53-2.82V41.42c0-2.93 2.4-5.31 5.35-5.31h18.74m.01-5.31H22.63c-5.91 0-10.71 4.76-10.71 10.63v13.29s5.35 5.31 19.88 5.31 20.27-5.31 20.27-5.31V41.43c0-5.87-4.79-10.63-10.71-10.63Z" fill="#ffffff"/></svg>