<svg xmlns="http://www.w3.org/2000/svg" viewBox="0 0 64 64"><path fill="none" d="M0 0h64v64H0z"/><g fill="#ffffff"><path d="M60 44h-6v10H10V9.86L54 10v10h6V4.03H4v56h56V44z"/><path d="M30.52 41.3c-2.89 0-4.95 2.06-4.95 5.07s2.01 5.07 4.9 5.07h.05c3.01 0 5.02-2.17 5.02-5.07-.05-3.01-2.01-5.07-5.02-5.07Zm.78-28.68c-3.95 0-7.24 1.11-9.3 2.29l1.89 6.07c1.44-1 3.68-1.67 5.51-1.67 2.79.11 4.07 1.39 4.07 3.34s-1.45 3.67-3.23 5.84c-2.51 2.95-3.45 5.85-3.29 8.69l.05 1.45h7.41v-1c-.05-2.5.78-4.68 2.84-6.96 2.12-2.33 4.73-5.12 4.73-9.36 0-4.62-3.34-8.69-10.69-8.69Z"/></g></svg>