<svg xmlns="http://www.w3.org/2000/svg" viewBox="0 0 64 64"><path fill="none" d="M0 0h64v64H0z"/><g fill="#ffffff"><path d="M48.25 8.67v5.83h5.92v39.67H9.83V14.5h5.86V8.67H4V60h56V8.67H48.25z"/><path d="M22.11 19.17c1.61 0 2.92-1.43 2.92-3.19V14.5h13.94v1.48c0 1.76 1.3 3.19 2.91 3.19s2.92-1.43 2.92-3.19v-8.8C44.8 5.44 43.5 4 41.88 4s-2.91 1.43-2.91 3.18v1.49H25.03V7.18c0-1.74-1.31-3.18-2.92-3.18s-2.92 1.43-2.92 3.18v8.8c0 1.76 1.29 3.19 2.92 3.19Zm4.37 29.16c1.57 0 2.11-.95 2.11-2.37v-3.49h1.51c1.03 0 1.69-.81 1.69-1.93s-.66-1.93-1.69-1.93h-1.51V26.26c0-1.46-.63-2.44-2.26-2.44-.84 0-1.51.27-1.96.95l-9.29 13.37c-.39.58-.57 1.12-.57 2 0 1.08.72 2.34 2.29 2.34h7.57v3.49c0 1.42.54 2.37 2.11 2.37Zm-7.99-9.71 5.82-8.76h.06v8.76h-5.88Zm25.85.17c3.2-2.03 5.04-3.79 5.04-8.29 0-3.11-2.87-6.67-7.69-6.67-4.43 0-8.05 3.15-8.05 7.28 0 1.69.97 2.27 2.2 2.27s1.6-.64 1.9-1.9c.66-2.71 1.96-3.59 3.89-3.59 1.66 0 3.17 1.22 3.17 3.42 0 2.74-1.45 3.35-5.64 6.33-3.77 2.67-5.67 5.35-5.67 7.75 0 1.18.72 2.5 2.47 2.5h11.31c1.39 0 2.23-.61 2.23-2.13s-.84-2.13-1.99-2.13h-9.05c.39-1.29 2.47-2.67 5.88-4.84Z"/></g></svg>