<svg width="16" height="16" xmlns="http://www.w3.org/2000/svg" viewBox="0 0 16 16" shape-rendering="geometricPrecision" fill="#ffffff"><path d="M14.939 10.55a1.086 1.086 0 0 0-1.387-.659l-2.979 1.022-3.994-1.622 2.546-.34a1.065 1.065 0 1 0-.266-2.115l-5.796.731c-.163.021-.31.081-.44.164a.64.64 0 0 0-.361.366l-.053.141c-.014.035-.03.069-.04.106l-1.131 3.018a.63.63 0 0 0 .054.552c.264.58 1.506 1.4 2.652 1.829l2.754.513c.192.031.363.04.538.03.171.026.349.016.524-.046l.448-.154.376-.116c1.504-.48 3.181-1.067 3.81-1.314l.019-.011 2.067-.709c.565-.2.86-.821.659-1.386"/><path d="M8.568 1.699a4.608 4.608 0 0 0-4.575 5.142l.925-.117a4 4 0 0 1-.032-.461 3.684 3.684 0 0 1 7.368 0 3.68 3.68 0 0 1-2.432 3.461l.83.522.62-.213a4.6 4.6 0 0 0 1.905-3.726 4.61 4.61 0 0 0-4.609-4.608"/></svg>