<svg fill="#ffffff" data-name="Ebene 2" xmlns="http://www.w3.org/2000/svg" viewBox="0 0 64 64"><path fill="none" d="M0 0h64v64H0z" data-name="Viewbox 64x64"/><path d="m43.33 38.67-6.65-6.64 6.65-6.65-4.68-4.68L32 27.34l-6.65-6.64-4.67 4.68 6.64 6.64-6.65 6.65 4.69 4.68 6.65-6.65 6.64 6.65z"/><path d="M57 47.99c-3.68-.01-5.47-2.31-6-4.99-1-5-2.13-20-2.13-20-.84-7.12-6.08-12.89-12.92-14.52.02-.16.05-.32.05-.48 0-2.21-1.79-4-4-4s-4 1.79-4 4c0 .16.03.32.05.48-6.85 1.63-12.08 7.4-12.92 14.52 0 0-1.13 15-2.13 20-.53 2.67-2.32 4.97-6 4.99V54h11.08c.49 3.37 3.42 6 6.92 6s6.43-2.63 6.92-6H57zM13.21 50c1.87-1.42 3.18-3.55 3.71-6.22 1.01-5.03 2.08-19.01 2.19-20.39C19.91 16.89 25.44 12 32 12s12.09 4.89 12.89 11.39c.1 1.38 1.18 15.37 2.19 20.39.53 2.66 1.84 4.79 3.71 6.22z"/></svg>