<svg fill="#ffffff" data-name="Ebene 2" xmlns="http://www.w3.org/2000/svg" viewBox="0 0 64 64"><path fill="none" d="M0 0h64v64H0z" data-name="Viewbox 64x64"/><path d="M25 58c-2.46 0-4.58-1.84-4.94-4.29L19.81 52H9v-2.23c3.1-.68 5.28-2.96 5.96-6.38 1.01-5.06 2.11-19.62 2.16-20.24.72-6.12 5.3-11.27 11.39-12.72l1.73-.41-.25-2.04c0-1.07.9-1.97 2-1.97s2 .9 2 2l-.03.24-.22 1.77 1.74.42c6.09 1.45 10.67 6.6 11.4 12.81.04.53 1.14 15.1 2.15 20.16.68 3.42 2.86 5.7 5.96 6.38v2.23H30.18l-.25 1.71c-.36 2.45-2.48 4.29-4.94 4.29Z"/><path d="m32 11.65 3.02.72c5.25 1.25 9.21 5.68 9.87 11.02.1 1.38 1.18 15.37 2.19 20.39.53 2.66 1.84 4.79 3.71 6.22H28.46l-.5 3.42C27.75 54.89 26.47 56 25 56s-2.75-1.11-2.96-2.58l-.5-3.42h-8.33c1.87-1.42 3.18-3.55 3.71-6.22 1.01-5.03 2.08-19.01 2.19-20.39.66-5.34 4.62-9.76 9.87-11.02zM32 4c-2.21 0-4 1.79-4 4 0 .16.03.32.05.48-6.85 1.63-12.08 7.4-12.92 14.52 0 0-1.13 15-2.13 20-.53 2.67-2.32 4.97-6 4.99V54h11.08c.49 3.37 3.42 6 6.92 6s6.43-2.63 6.92-6H57v-6.01c-3.68-.01-5.47-2.31-6-4.99-1-5-2.13-20-2.13-20-.84-7.12-6.08-12.89-12.92-14.52.02-.16.05-.32.05-.48 0-2.21-1.79-4-4-4"/></svg>