<svg data-name="Ebene 2" xmlns="http://www.w3.org/2000/svg" viewBox="0 0 64 64"><path fill="none" d="M0 0h64v64H0z" data-name="Viewbox 64x64"/><g data-name="VIPS – excercise"><path d="M56 8v48H8V8zm4-4H4v56h56z" fill="#ffffff"/><path d="m24.09 12.97-.69-2h-5.18v2h2.14l-5.5 16h-2.64v2h3.75c.2 0 .37-.07.5-.2.14-.13.23-.28.28-.45l1.61-4.83h7.72l1.61 4.83c.06.19.16.34.29.46s.3.18.5.18h3.74v-2h-2.63l-5.5-16Zm-5.07 10.57 2.7-8.12c.18-.5.35-1.13.52-1.88a20 20 0 0 0 .5 1.87l2.7 8.14h-6.42Z" fill="#ffffff"/><path fill="none" stroke="#ffffff" stroke-width="3" d="M35 17.5h17m-17 6h17m-17 6h17m-40 6h40m-40 6h40m-40 6h30"/></g></svg>