<svg xmlns="http://www.w3.org/2000/svg" viewBox="0 0 64 64"><path fill="none" d="M0 0h64v64H0z"/><path d="m58.04 47.43-14.2-14.2-10.65 10.65 14.19 14.18c2.76 2.75 7.36 2.61 10.31-.35 2.94-2.94 3.09-7.55.35-10.29ZM30.93 20.29c.87-4.32-.36-8.97-3.71-12.31-3.68-3.68-8.92-4.75-13.57-3.36l7.42 7.43-2.15 6.67-6.91 2.39-7.42-7.43c-1.4 4.65-.32 9.89 3.35 13.57 3.34 3.35 8 4.57 12.32 3.71l10.68-10.67ZM4.14 59.71l6.55-2.02-4.46-4.47-2.09 6.49zm3.98-12.68 8.73 8.8 35.38-35.22-8.74-8.79L8.12 47.03zM58.18 5.96c-2.4-2.43-6.3-2.44-8.74-.06l-3.53 3.5 8.73 8.81 3.54-3.51c2.4-2.42 2.41-6.33 0-8.74Z" fill="#ffffff"/></svg>