<svg xmlns="http://www.w3.org/2000/svg" viewBox="0 0 64 64"><path fill="none" d="M0 0h64v64H0z"/><path d="m56.43 17.14 1.59-1.59c2.63-2.63 2.64-6.89.02-9.51s-6.87-2.61-9.51.02l-1.59 1.59-2.38 2.38-13.02 13.02-2.15-2.15c.39-1.24.6-2.55.6-3.91 0-7.18-5.82-13-13-13-1.22 0-2.39.18-3.51.49l8.21 8.21-1.89 7.05-7.05 1.89-8.23-8.24A13.07 13.07 0 0 0 4 17c0 7.18 5.82 13 13 13 1.36 0 2.68-.21 3.91-.6l2.15 2.15L7.24 47.37 3.98 59.99l12.75-3.14 37.32-37.33 2.38-2.38Zm-5.52-8.7c1.31-1.31 3.45-1.32 4.75-.01s1.3 3.44-.01 4.75l-1.59 1.59-4.74-4.74 1.59-1.59ZM15.03 53.81l-2.35.58-3-3 .59-2.3 36.67-36.68 4.74 4.74-36.65 36.66Zm28.21-19.05-8.49 8.49 14.76 14.76c2.34 2.34 6.14 2.34 8.49 0s2.34-6.14 0-8.49L43.24 34.76Z" fill="#ffffff"/></svg>