<svg xmlns="http://www.w3.org/2000/svg" viewBox="0 0 64 64"><path fill="none" d="M0 0h64v64H0z"/><g fill="#ffffff"><path d="M50.67 9.83h-9.48A7.244 7.244 0 0 0 34.08 4h-4.16c-3.52 0-6.45 2.51-7.11 5.83h-9.47c-1.93 0-3.5 1.57-3.5 3.5v2.33h44.33v-2.33c0-1.93-1.57-3.5-3.5-3.5ZM29.92 7.5h4.16c1.57 0 2.91.97 3.47 2.33h-11.1c.56-1.37 1.9-2.33 3.47-2.33Zm-16.59 49c0 1.93 1.57 3.5 3.5 3.5h30.33c1.93 0 3.5-1.57 3.5-3.5V18H13.33v38.5Zm3.5-35h30.33v35H16.83v-35Z"/><path d="M20.33 23.83H25v30.33h-4.67zm9.34 0h4.67v30.33h-4.67zm9.33 0h4.67v30.33H39z"/></g></svg>