<svg xmlns="http://www.w3.org/2000/svg" viewBox="0 0 64 64"><path fill="none" d="M0 0h64v64H0z"/><g fill="#ffffff"><path d="M54 16H44v-2c0-3.2-2.8-6-6-6H26c-3.2 0-6 2.8-6 6v2H10c-3.2 0-6 2.8-6 6v28c0 3.2 2.8 6 6 6h44c3.2 0 6-2.8 6-6V22c0-3.2-2.8-6-6-6Zm-30-2c0-1.2.8-2 2-2h12c1.2 0 2 .8 2 2v2H24v-2ZM10 52c-1.2 0-2-.8-2-2V22c0-1.2.8-2 2-2h4v9.2l-3.2.8 2 7.6.8-.4V52H10Zm36 0H18V36.4l6.8-1.6-2.4-7.6-4.4 1.2V20h28.4v32H46Zm10-2c0 1.2-.8 2-2 2h-4V20h4c1.2 0 2 .8 2 2v28Z"/><path d="m21.2 44.8 11.6 2.4 1.6-8-11.6-2.4-1.6 8z"/></g></svg>