<svg xmlns="http://www.w3.org/2000/svg" viewBox="0 0 64 64"><path fill="none" d="M0 0h64v64H0z"/><g fill="#ffffff"><path d="M60 12.2V12H4v40h56V12.2ZM13.33 48v-5.22c0-.8.65-1.44 1.44-1.44h13.45c.8 0 1.44.65 1.44 1.44V48H13.33Zm14.89-10.17H14.77c-2.73 0-4.94 2.21-4.94 4.94v5.22H8V16h48v32H33.17v-5.22c0-2.73-2.21-4.94-4.94-4.94Z"/><path d="M21.62 20.33c-4.51 0-8.17 3.66-8.17 8.17s3.66 8.17 8.17 8.17 8.17-3.66 8.17-8.17-3.66-8.17-8.17-8.17Zm0 12.72c-2.51 0-4.56-2.04-4.56-4.56s2.04-4.56 4.56-4.56 4.56 2.04 4.56 4.56-2.04 4.56-4.56 4.56ZM36 22h17v4.17H36zm0 7h17v4H36z"/></g></svg>