<svg xmlns="http://www.w3.org/2000/svg" viewBox="0 0 64 64"><path fill="none" d="M0 0h64v64H0z"/><path d="M53.91 13.43c-.07 0-.12.02-.19.03v-3.4c0-3.34-2.71-6.05-6.05-6.05H16.26c-3.34 0-6.05 2.71-6.05 6.05v3.4s-.08-.02-.12-.02c-1.18 0-2.14.71-2.14 1.58v5.59c0 .88.96 1.58 2.14 1.58.04 0 .08-.02.12-.02v37.82h6.54v-4.41h30.43v4.41h6.54v-8.26h-.03V31.18c0-.1.03-.2.03-.3v-8.72c.06 0 .12.03.19.03 1.18 0 2.14-.71 2.14-1.58v-5.59c0-.88-.96-1.58-2.14-1.58ZM20.39 49.89H17.8c-1.67 0-3.02-1.35-3.02-3.02s1.35-3.02 3.02-3.02h2.59c1.67 0 3.02 1.35 3.02 3.02s-1.35 3.02-3.02 3.02Zm25.01 0h-2.59c-1.67 0-3.02-1.35-3.02-3.02s1.35-3.02 3.02-3.02h2.59c1.67 0 3.02 1.35 3.02 3.02s-1.35 3.02-3.02 3.02Zm4.36-18.37c0 3.01-2.29 5.46-5.1 5.46H19.28c-2.82 0-5.1-2.44-5.1-5.46V13.81c0-3.01 2.29-5.46 5.1-5.46h25.38c2.82 0 5.1 2.44 5.1 5.46v17.71Z" fill="#cb1800"/></svg>