<svg xmlns="http://www.w3.org/2000/svg" viewBox="0 0 64 64"><path fill="none" d="M0 0h64v64H0z"/><g fill="#cb1800"><path d="M6 58V36h4.17L28 53.83V58z"/><path d="M9.34 38 26 54.66V56H8V38zM11 34H4v26h26v-7zm27 21v-2h18V8H11v18H9V6h49v49z"/><path d="M7 4v24h6V10h41v41H36v6h24V4z"/><path d="M33.04 25.04c-2.2 0-3.98-1.79-3.98-3.98s1.79-3.98 3.98-3.98 3.98 1.79 3.98 3.98-1.79 3.98-3.98 3.98"/><path d="M33.04 19.07c1.09 0 1.98.89 1.98 1.98s-.89 1.98-1.98 1.98-1.98-.89-1.98-1.98.89-1.98 1.98-1.98m0-4c-3.3 0-5.98 2.68-5.98 5.98s2.68 5.98 5.98 5.98 5.98-2.68 5.98-5.98-2.68-5.98-5.98-5.98m-.1 25.92c-4.38 0-6.83-1.07-7.88-1.68v-5.63c0-1.83 1.49-3.32 3.32-3.32h9.31c1.83 0 3.32 1.49 3.32 3.32v5.63c-1.04.6-3.53 1.68-8.07 1.68"/><path d="M37.69 32.37c.73 0 1.32.59 1.32 1.32v4.36c-1.14.44-3.09.94-6.07.94s-4.76-.49-5.88-.93v-4.38c0-.73.59-1.32 1.32-1.32h9.31m0-3.99h-9.31c-2.94 0-5.32 2.38-5.32 5.32v6.65S25.72 43 32.94 43s10.07-2.66 10.07-2.66v-6.65c0-2.94-2.38-5.32-5.32-5.32"/></g></svg>