<svg xmlns="http://www.w3.org/2000/svg" viewBox="0 0 64 64"><path fill="none" d="M0 0h64v64H0z"/><path d="M44.05 14.45c2.26 0 4.11 1.84 4.11 4.1s-1.84 4.11-4.11 4.11-4.1-1.84-4.1-4.11 1.84-4.1 4.1-4.1m6.27 24.43c2.03 0 3.68 1.65 3.68 3.68v7.06H34v-7.06c0-2.03 1.65-3.68 3.68-3.68h12.65M44.06 8.45c-5.57 0-10.1 4.52-10.1 10.1s4.53 10.11 10.1 10.11 10.11-4.52 10.11-10.11-4.51-10.1-10.11-10.1Zm6.27 24.43H37.68c-5.34 0-9.68 4.33-9.68 9.68v13.06h32V42.56c0-5.34-4.33-9.68-9.68-9.68ZM20.05 14.45c2.26 0 4.11 1.84 4.11 4.1s-1.84 4.11-4.11 4.11-4.1-1.84-4.1-4.11 1.84-4.1 4.1-4.1m0-6c-5.57 0-10.1 4.52-10.1 10.1s4.53 10.11 10.1 10.11 10.11-4.52 10.11-10.11-4.51-10.1-10.11-10.1Zm-4.62 30.43a15.91 15.91 0 0 0-.43 3.68v7.06h-5v-7.06c0-2.03 1.65-3.68 3.68-3.68h1.75m10.9-6H13.68C8.34 32.88 4 37.21 4 42.56v13.06h17V42.56c0-4.59 3.21-8.43 7.5-9.42-.7-.16-1.43-.25-2.17-.25Z" fill="#cb1800"/></svg>