<svg xmlns="http://www.w3.org/2000/svg" viewBox="0 0 64 64"><path fill="none" d="M0 0h64v64H0z"/><g fill="#cb1800"><path d="M25.87 41.04a6.12 6.12 0 0 0 6.12-6.12V20.63s.9-2.03 3.88.74c3.84 3.57 8.37.66 8.37.66s-5.57-1.35-6.71-4.97c-1.45-4.6-5.54-4.6-5.54-4.6h-4.08v16.71a6 6 0 0 0-2.04-.37 6.12 6.12 0 1 0 0 12.24Z"/><path d="M12 4v56h27c1.87 0 3.21-.75 4.53-2.09l6.29-6.39C51.11 50.21 52 48.84 52 47V4H12Zm4 4h32v35c0 1.93-1.34 3-3.28 3h-6.89v6.89c0 1.93-.9 3.11-2.83 3.11H16V8Zm25.33 47v-5.5h5.41L41.33 55Z"/></g></svg>