<svg xmlns="http://www.w3.org/2000/svg" viewBox="0 0 64 64"><path fill="none" d="M0 0h64v64H0z"/><g fill="#cb1800"><path d="M32.76 41.76c-.15 0-.3.04-.44.11-.87.48-1.88.76-2.95.76a6.13 6.13 0 0 1-6.09-6.8c.29-2.7 2.39-4.93 5.07-5.37.34-.06.68-.08 1.02-.08.54 0 1.06.07 1.55.2a.864.864 0 0 0 1.09-.95l-.45-3.64H18v21h16.19l-.56-4.47a.872.872 0 0 0-.87-.76Zm-13.45 3.92V27.31H30.4l.23 1.87c-.42-.07-.84-.11-1.26-.11s-.82.03-1.23.1a7.417 7.417 0 0 0-6.16 6.52c-.23 2.11.45 4.22 1.86 5.79a7.452 7.452 0 0 0 5.53 2.47c1.04 0 2.08-.22 3.03-.65l.3 2.38H19.31Z"/><path d="m32.87 26 .73 5.82c.1.77-.78 1.26-1.41.8a4.783 4.783 0 0 0-3.29-.89c-2.36.22-4.24 2.22-4.34 4.59a4.808 4.808 0 0 0 4.81 5.01c1.49 0 2.82-.67 3.7-1.74.5-.6 1.46-.34 1.55.43l.87 6.98h3.5V26h-6.13Z"/><path d="M33 8H21c-1.66 0-3 1.34-3 3v1h-7v4h45v31h4V12H36v-1c0-1.66-1.34-3-3-3Z"/><path d="M49 23v27H8V23h41m4-4H4v35h49V19Z"/></g></svg>