<svg xmlns="http://www.w3.org/2000/svg" viewBox="0 0 64 64"><path fill="none" d="M0 0h64v64H0z"/><g fill="#cb1800"><path d="M24.61 31.78c0-2.15 1.74-3.89 3.9-3.89s3.89 1.74 3.89 3.89v1.94h2.38v-1.94c0-3.47-2.81-6.28-6.27-6.28s-6.28 2.81-6.28 6.28v1.94h2.38v-1.94Zm-4.42 3.59v12.14h16.63V35.37H20.19Zm9.78 8.09c0 .81-.65 1.46-1.46 1.46s-1.47-.65-1.47-1.46v-4.03c0-.8.66-1.46 1.46-1.46s1.47.66 1.47 1.46v4.03Z"/><path d="M33 8H21c-1.66 0-3 1.34-3 3v1h-7v4h45v31h4V12H36v-1c0-1.66-1.34-3-3-3Z"/><path d="M49 23v27H8V23h41m4-4H4v35h49V19Z"/></g></svg>