<svg data-name="Ebene 2" xmlns="http://www.w3.org/2000/svg" viewBox="0 0 64 64"><path fill="none" d="M0 0h64v64H0z" data-name="Viewbox 64x64"/><g fill="#cb1800"><ellipse cx="21.08" cy="36.56" rx="2.96" ry="2.97"/><path d="M23.46 40.37h-4.74c-1.5 0-2.71 1.24-2.71 2.77v3.47S17.37 48 21.04 48s5.13-1.39 5.13-1.39v-3.47c0-1.53-1.21-2.77-2.71-2.77m13.36-.87a2.949 2.949 0 1 0 0-5.9 2.949 2.949 0 1 0 0 5.9m2.36.84h-4.72c-1.49 0-2.7 1.23-2.7 2.76v3.45s1.35 1.38 5.01 1.38 5.11-1.38 5.11-1.38V43.1c0-1.52-1.21-2.76-2.7-2.76M28.94 29.99a2.5 2.5 0 0 0 0-5 2.5 2.5 0 0 0 0 5m4.16 6.28v-3.03c0-1.34-.99-2.42-2.22-2.42H27c-1.23 0-2.22 1.08-2.22 2.42v3.03s1.11 1.21 4.12 1.21 4.2-1.21 4.2-1.21"/><path d="M33 8H21c-1.66 0-3 1.34-3 3v1h-7v4h45v31h4V12H36v-1c0-1.66-1.34-3-3-3"/><path d="M49 23v27H8V23zm4-4H4v35h49z"/></g></svg>