<svg data-name="Ebene 2" xmlns="http://www.w3.org/2000/svg" viewBox="0 0 64 64"><path fill="none" d="M0 0h64v64H0z" data-name="Viewbox 64x64"/><g fill="#cb1800"><path d="M33 8H21c-1.66 0-3 1.34-3 3v1h-7v4h45v31h4V12H36v-1c0-1.66-1.34-3-3-3"/><path d="M49 23v27H8V23zm4-4H4v35h49z"/><path d="M20.27 33.35c1.83 0 3.31-1.48 3.31-3.31s-1.48-3.31-3.31-3.31-3.31 1.48-3.31 3.31 1.48 3.31 3.31 3.31m2.57.74h-5.15c-1.62 0-2.94 1.32-2.94 2.94v3.68s1.47 1.47 5.46 1.47 5.57-1.47 5.57-1.47v-3.68c0-1.62-1.32-2.94-2.94-2.94"/><circle cx="27.98" cy="28.94" r="2.94"/><path d="M30.39 32.89h-4.8c-.57 0-1.1.17-1.54.47.84.03 1.59.41 2.11 1 .24.26.73.84.73 1.95v4.09c.33.03.68.04 1.05.04 3.82 0 5.2-1.37 5.2-1.37v-3.43c0-1.52-1.23-2.74-2.74-2.74Zm6.65 6.13c1.83 0 3.31-1.48 3.31-3.31s-1.48-3.31-3.31-3.31-3.31 1.48-3.31 3.31 1.48 3.31 3.31 3.31m2.58.73h-5.15c-1.62 0-2.94 1.32-2.94 2.94v3.68s1.47 1.47 5.46 1.47 5.57-1.47 5.57-1.47v-3.68c0-1.62-1.32-2.94-2.94-2.94"/></g></svg>