<svg xmlns="http://www.w3.org/2000/svg" viewBox="0 0 64 64"><path fill="none" d="M0 0h64v64H0z"/><g fill="#cb1800"><path d="M22.37 32.51c2.14 0 3.87-1.73 3.87-3.87s-1.73-3.87-3.87-3.87-3.87 1.73-3.87 3.87 1.73 3.87 3.87 3.87Zm1.76 1.84H20.6c-2.05 0-3.72 1.68-3.72 3.73v4.84h10.98v-4.84c0-2.05-1.68-3.73-3.73-3.73Zm17.5 2.74c2.14 0 3.87-1.73 3.87-3.86s-1.73-3.87-3.87-3.87-3.87 1.73-3.87 3.87 1.73 3.86 3.87 3.86Zm1.76 1.84h-3.53c-2.05 0-3.72 1.68-3.72 3.73v4.85h10.98v-4.85c0-2.05-1.68-3.73-3.73-3.73Zm-12.46-10.7c2.14 0 3.87-1.73 3.87-3.87s-1.73-3.87-3.87-3.87-3.87 1.73-3.87 3.87 1.73 3.87 3.87 3.87Z"/><path d="M36.42 38.64v-4.85c0-2.05-1.68-3.73-3.73-3.73h-3.53c-2 0-3.62 1.6-3.7 3.58 1.91.57 3.32 2.33 3.32 4.43v.56h7.64Z"/><path d="M34 14v-2c0-1.66-1.34-3-3-3H17c-1.66 0-3 1.34-3 3v2H4v40h56V14H34Zm22 36H8V18h48v32Z"/></g></svg>