<svg xmlns="http://www.w3.org/2000/svg" viewBox="0 0 64 64"><path fill="none" d="M0 0h64v64H0z"/><g fill="#cb1800"><path d="M47.64 13.33H10.52C6.93 13.33 4 16.27 4 19.85v19.62c0 3.59 2.94 6.52 6.52 6.52h6.32l.03 10.5c6.46-.02 11.93-4.5 13.5-10.5h17.27c3.59 0 6.52-2.94 6.52-6.52V19.85c0-3.59-2.94-6.52-6.52-6.52Zm3.02 26.14c0 1.67-1.36 3.02-3.02 3.02H27.33c0 4.55-2.92 8.44-6.98 9.89l-.02-9.89h-9.81c-1.67 0-3.02-1.36-3.02-3.02V19.85c0-1.67 1.36-3.02 3.02-3.02h37.12c1.67 0 3.02 1.36 3.02 3.02v19.62Z"/><path d="M53.62 7.5H16.21c-2.47 0-4.62 1.43-5.68 3.5h43.64v.06c1.33.26 2.33 1.42 2.33 2.82v25.59c2.07-1.06 3.5-3.2 3.5-5.68V13.88c0-3.51-2.87-6.38-6.38-6.38Z"/><path d="M12.17 22.67h35v4.67h-35zm0 8.16h35v4.67h-35z"/></g></svg>