<svg xmlns="http://www.w3.org/2000/svg" viewBox="0 0 64 64"><path fill="none" d="M0 0h64v64H0z"/><g fill="#cb1800"><path d="M59.49 23.34c-1.61-8.37-15.08-8.91-22.35-8.91H26.77c-7.27 0-20.49 1.19-22.24 8.8l-.45 2.96L4 28.37h7.45c3.09-2.35 8.12-4.85 11.71-6.16 1.76-1.72 4.59-2.32 6.84-2.32h4.13c2.33 0 5.33.36 7.07 2.34 3.54 1.32 8.47 3.8 11.51 6.14h7.25l.03-2.09-.5-2.95Z"/><path d="M56.52 42.27c0-2.51-2-9.85-2-9.85-.95-3.14-14.13-9.45-16.91-9.45H26.75c-2.78 0-16.2 6.31-17.15 9.45 0 0-2 7.34-2 9.85 0 1.97-.02 5.83-.02 5.83h48.95s-.01-3.86-.01-5.83Zm-24.53 1.71c-4.68 0-8.48-3.8-8.48-8.48s3.8-8.48 8.48-8.48 8.48 3.8 8.48 8.48-3.8 8.48-8.48 8.48Z"/></g></svg>