<svg xmlns="http://www.w3.org/2000/svg" viewBox="0 0 64 64"><path fill="none" d="M0 0h64v64H0z"/><g fill="#cb1800"><path d="M53.05 24.82c0-11.47-9.3-20.77-20.78-20.77S11.5 13.35 11.5 24.82c0 4.1 1.21 7.91 3.26 11.14h-.02l.14.19c.16.25.34.49.51.73l17 23.13L49.3 36.69c.11-.16.22-.32.32-.47l.09-.13h-.01a20.64 20.64 0 0 0 3.35-11.27ZM32.27 40.8c-8.82 0-15.97-7.16-15.97-15.98S23.45 8.84 32.27 8.84s15.98 7.15 15.98 15.98S41.1 40.8 32.27 40.8Z"/><path d="M40.12 24.73c0-4.33-3.52-7.84-7.85-7.84s-7.84 3.52-7.84 7.84 3.51 7.85 7.84 7.85 7.85-3.52 7.85-7.85Z"/></g></svg>