<svg xmlns="http://www.w3.org/2000/svg" viewBox="0 0 64 64"><path fill="none" d="M0 0h64v64H0z"/><path d="M53.33 36.58c.43-1.11.67-2.32.67-3.58 0-5.51-4.45-9.97-9.96-10 1.25-2.2 1.96-4.87 1.96-7.8V7s-4 4.4-9.71 4.4H28c-5.52 0-10 3.94-10 8.8 0 1.02.21 2 .57 2.91C13.73 23.8 10 27.96 10 33c0 1.26.24 2.47.67 3.58C6.79 37.95 4 41.65 4 46c0 5.52 4.48 10 10 10h36c5.52 0 10-4.48 10-10 0-4.35-2.79-8.05-6.67-9.42M28 15.4h8.29c2.12 0 4.04-.44 5.71-1.07v.87c0 5.68-3.36 9.8-8 9.8h-6c-3.31 0-6-2.15-6-4.8s2.69-4.8 6-4.8M20 27h1.65c1.73 1.25 3.94 2 6.35 2h6c2.43 0 4.6-.73 6.42-2H44c3.31 0 6 2.69 6 6s-2.69 6-6 6H20c-3.31 0-6-2.69-6-6s2.69-6 6-6m30 25H14c-3.31 0-6-2.69-6-6 0-2.95 2.15-5.41 4.96-5.9 1.81 1.79 4.3 2.9 7.04 2.9h24c2.75 0 5.24-1.11 7.04-2.9 2.81.5 4.96 2.95 4.96 5.9 0 3.31-2.69 6-6 6" fill="#cb1800"/></svg>