<svg xmlns="http://www.w3.org/2000/svg" viewBox="0 0 64 64"><path fill="none" d="M0 0h64v64H0z"/><path d="M47.93 19.95c0-8.82-7.15-15.96-15.96-15.96-6.73 0-12.41 4.21-14.75 10.11-.06.11-.11.22-.15.34-.02.05-.05.1-.07.15h.03c-.1.33-.2.66-.2 1.01 0 1.88 1.52 3.4 3.4 3.4 1.35 0 2.49-.8 3.04-1.94l.04.02c1.46-4.37 6.06-7.3 11.17-5.95 3.04.81 5.52 3.28 6.33 6.32 1.6 6.01-2.74 11.38-8.41 11.65v.03h-7.22c-5.07.01-9.17 4.12-9.17 9.18v17.61c0 2.2 1.78 3.98 3.98 3.98h24c2.2 0 3.98-1.78 3.98-3.98V19.95h-.03Zm-6.04 31.66-4.08 4.09-5.8-5.81-5.8 5.81-4.09-4.09 5.81-5.81-5.8-5.8 4.09-4.09 5.8 5.8 5.81-5.8L41.91 40l-5.8 5.8 5.8 5.81Z" fill="#cb1800"/></svg>