<svg xmlns="http://www.w3.org/2000/svg" viewBox="0 0 64 64"><path fill="none" d="M0 0h64v64H0z"/><path d="m44.89 59.26 14.75-40.52L19.12 4 4.37 44.52l11.8 4.3c-.41 3.73-.16 7.51.93 11.19l3.8-1.13c-.85-2.84-1.11-5.76-.91-8.66l24.89 9.06ZM9.45 42.15 21.49 9.09l33.06 12.03-12.03 33.06-21.9-7.97c.22-.91.43-1.83.76-2.73 2.58-7.09 8.28-12.5 15.3-14.85l-4.86 13.36 3.73 1.36 6.92-19-19.01-6.92-1.36 3.73 11.8 4.3c-7.45 2.98-13.44 8.96-16.25 16.68-.33.9-.52 1.81-.76 2.73l-7.44-2.71Z" fill="#cb1800"/></svg>