<svg xmlns="http://www.w3.org/2000/svg" viewBox="0 0 64 64"><path fill="none" d="M0 0h64v64H0z"/><path d="M58.29 50.08 44.87 36.66c-.16-.16-.35-.29-.52-.43 1.78-3.14 2.81-6.76 2.81-10.62 0-11.9-9.68-21.58-21.58-21.58S4 13.72 4 25.62 13.68 47.2 25.58 47.2c3.86 0 7.48-1.03 10.62-2.81.14.18.26.36.43.52l13.42 13.42c1.14 1.14 2.63 1.71 4.12 1.71s2.99-.57 4.12-1.71a5.83 5.83 0 0 0 0-8.25ZM11 25.62c0-8.04 6.54-14.58 14.58-14.58s14.58 6.54 14.58 14.58S33.62 40.2 25.58 40.2 11 33.66 11 25.62Z" fill="#cb1800"/></svg>