<svg xmlns="http://www.w3.org/2000/svg" viewBox="0 0 64 64"><path fill="none" d="M0 0h64v64H0z"/><path d="M32 4C18.19 4 7 14.52 7 27.5c0 6.81 3.08 12.93 8 17.22V56c0 .85 1.13 1.64 3.06 2.29.46.15.94-.18.94-.67v-3.14c0-.45.42-.79.86-.68.19.05.38.09.58.13.32.07.56.35.56.69v3.85c0 .34.23.63.57.69.82.15 1.71.28 2.64.4.42.05.79-.28.79-.7v-3.44c0-.42.36-.74.77-.7.19.02.39.04.58.05.36.03.65.33.65.7v3.69c0 .37.28.68.65.7.85.05 1.73.09 2.62.11.39 0 .72-.31.72-.71v-3.65c0-.35.28-.63.63-.63h.74c.35 0 .63.28.63.63v3.65c0 .39.33.71.72.71.9-.02 1.77-.06 2.62-.11.37-.02.65-.33.65-.7v-3.69a.7.7 0 0 1 .65-.7c.2-.02.39-.03.58-.05.41-.04.77.28.77.7v3.44c0 .42.37.75.79.7.94-.11 1.82-.25 2.64-.4.33-.06.57-.35.57-.69v-3.85c0-.33.24-.62.56-.69.2-.04.39-.09.58-.13.44-.11.86.23.86.68v3.14c0 .48.48.82.94.67 1.93-.65 3.06-1.44 3.06-2.29V44.72c4.92-4.29 8-10.42 8-17.22 0-12.98-11.19-23.5-25-23.5Zm-8.5 34c-3.59 0-6.5-3.13-6.5-7s2.91-7 6.5-7 6.5 3.13 6.5 7-2.91 7-6.5 7Zm17 0c-3.59 0-6.5-3.13-6.5-7s2.91-7 6.5-7 6.5 3.13 6.5 7-2.91 7-6.5 7Z" fill="#cb1800"/></svg>