<svg xmlns="http://www.w3.org/2000/svg" viewBox="0 0 64 64"><path fill="none" d="M0 0h64v64H0z"/><g fill="#cb1800"><path d="M32 8c13.23 0 24 10.77 24 24S45.23 56 32 56 8 45.23 8 32 18.77 8 32 8m0-4C16.54 4 4 16.54 4 32s12.54 28 28 28 28-12.54 28-28S47.46 4 32 4Z"/><path d="M38.11 29.97c2.55-.17 4.45-2.95 4.24-6.18-.21-3.23-2.47-5.73-5.02-5.56-2.55.17-4.45 2.95-4.24 6.18.21 3.24 2.47 5.74 5.02 5.57Zm-12.81.7c2.55-.17 4.45-2.94 4.24-6.18-.21-3.23-2.47-5.73-5.02-5.56-2.55.17-4.45 2.94-4.24 6.17.21 3.24 2.47 5.74 5.02 5.57Z"/><path d="M52.12 28.15a1.762 1.762 0 0 0-1.98-1.49c-.96.14-1.62 1.02-1.49 1.98 1.31 9.24-5.14 17.81-14.38 19.12-4.44.63-8.88-.53-12.52-3.26-3.63-2.73-5.98-6.68-6.61-11.15a1.728 1.728 0 0 0-1.98-1.47c-.96.14-1.62 1.03-1.48 1.99.76 5.37 3.59 10.13 7.97 13.42 3.6 2.7 7.86 4.13 12.24 4.13.95 0 1.91-.07 2.87-.2 11.15-1.58 18.93-11.93 17.35-23.08Z"/></g></svg>