<svg xmlns="http://www.w3.org/2000/svg" viewBox="0 0 64 64"><path fill="none" d="M0 0h64v64H0z"/><path d="M4 32.04c0 15.46 12.54 28 28 28s28-12.54 28-28-12.54-28-28-28-28 12.53-28 28Zm48.5-12.42c2.65 5.37 3.22 11.43 1.54 17.21-1.78 6.12-5.84 11.19-11.43 14.27-9.04 4.97-20.45 1.66-25.42-7.38a14.49 14.49 0 0 1-1.22-11.09c1.09-3.74 3.56-6.83 6.98-8.71 2.64-1.45 5.69-1.79 8.58-.95 2.89.84 5.28 2.75 6.74 5.4a8.58 8.58 0 0 1 .73 6.56 8.562 8.562 0 0 1-4.13 5.15c-3.15 1.73-7.12.58-8.85-2.57a4.792 4.792 0 0 1-.4-3.67 4.781 4.781 0 0 1 2.31-2.88c.81-.45 1.75-.55 2.64-.29.89.26 1.62.85 2.07 1.66.52.94 1.7 1.29 2.65.77s1.29-1.7.77-2.65a7.365 7.365 0 0 0-10-2.9 8.65 8.65 0 0 0-4.17 5.21 8.66 8.66 0 0 0 .73 6.63c2.77 5.03 9.11 6.87 14.14 4.11 2.93-1.61 5.06-4.27 6-7.48.93-3.21.56-6.6-1.05-9.53a15.118 15.118 0 0 0-9.06-7.27c-3.89-1.13-7.99-.68-11.54 1.28-4.32 2.38-7.46 6.3-8.84 11.04-1.38 4.74-.83 9.73 1.55 14.06 1.71 3.1 4.05 5.63 6.77 7.54-7.47-4.07-12.55-12-12.55-21.09 0-13.23 10.77-24 24-24 8.68 0 16.28 4.65 20.5 11.58Z" fill="#cb1800"/></svg>