<svg xmlns="http://www.w3.org/2000/svg" viewBox="0 0 64 64"><path fill="none" d="M0 0h64v64H0z"/><g fill="#cb1800"><path d="M31.99 49.4c-11.57 0-22.13-6.36-27.57-16.6l-.41-.77.41-.77c5.43-10.24 15.99-16.61 27.57-16.61s22.13 6.36 27.57 16.61l.41.77-.41.77c-5.44 10.24-16 16.6-27.57 16.6ZM7.73 32.03c4.97 8.72 14.19 14.1 24.26 14.1s19.28-5.38 24.26-14.1c-4.98-8.73-14.2-14.11-24.26-14.11S12.7 23.3 7.73 32.03Z"/><path d="M32 21.49c-1.02 0-1.99.19-2.92.46 1.24.89 2.11 2.27 2.11 3.91 0 2.7-2.19 4.89-4.89 4.89-1.79 0-3.28-1.01-4.14-2.44-.44 1.16-.71 2.4-.71 3.71 0 5.82 4.72 10.54 10.55 10.54s10.54-4.72 10.54-10.54S37.82 21.48 32 21.48Z"/></g></svg>