<svg data-name="Ebene 2" xmlns="http://www.w3.org/2000/svg" viewBox="0 0 64 64"><path fill="none" d="M0 0h64v64H0z" data-name="Viewbox 64x64"/><g fill="#ffad00" data-name="VIPS – excercise"><path d="m43.7 12.03 11.67 20-11.67 20H20.29l-11.67-20 11.67-20zm2.3-4H18l-14 24 14 24h28l14-24z"/><path d="M32 19.05c2.1 0 3.81 1.71 3.81 3.81S34.1 26.67 32 26.67s-3.81-1.71-3.81-3.81 1.71-3.81 3.81-3.81M32 16c-3.79 0-6.86 3.07-6.86 6.86s3.07 6.86 6.86 6.86 6.86-3.07 6.86-6.86S35.79 16 32 16m5.33 18.29c1.68 0 3.05 1.37 3.05 3.05v6c-1.29.66-3.95 1.62-8.49 1.62s-7-.96-8.27-1.62v-6c0-1.68 1.37-3.05 3.05-3.05h10.67m-.01-3.05H26.66c-3.37 0-6.1 2.73-6.1 6.1v7.62s3.05 3.05 11.32 3.05 11.54-3.05 11.54-3.05v-7.62c0-3.37-2.73-6.1-6.1-6.1Z"/></g></svg>