<svg xmlns="http://www.w3.org/2000/svg" viewBox="0 0 64 64"><path fill="none" d="M0 0h64v64H0z"/><g fill="#ffad00"><path d="M32 57.5c-11.58 0-22.16-6.41-27.59-16.73L4 40l.41-.77C9.84 28.91 20.42 22.5 32 22.5s22.15 6.41 27.59 16.73L60 40l-.41.77C54.15 51.09 43.58 57.5 32 57.5ZM7.72 40C12.7 48.79 21.92 54.21 32 54.21S51.3 48.79 56.28 40C51.29 31.21 42.07 25.79 32 25.79S12.69 31.21 7.72 40Z"/><path d="M32 29c-1.07 0-2.08.2-3.05.48 1.3.92 2.2 2.37 2.2 4.08 0 2.82-2.28 5.1-5.1 5.1-1.87 0-3.43-1.05-4.32-2.54-.46 1.21-.74 2.51-.74 3.88 0 6.08 4.92 11 11 11s11-4.92 11-11-4.92-11-11-11Zm3.7-19.08c0 4.92-3.7 9.84-3.7 9.84s-3.7-4.92-3.7-9.84C28.3 7.2 29.96 5 32 5s3.7 2.2 3.7 4.92Zm-15.86 2.57c1.69 4.62-.1 10.51-.1 10.51s-5.16-3.36-6.85-7.98c-.93-2.55-.13-5.19 1.79-5.88s4.23.81 5.16 3.36Zm31.27 2.53C49.42 19.64 44.26 23 44.26 23s-1.79-5.88-.1-10.51c.93-2.55 3.24-4.06 5.16-3.36 1.92.7 2.72 3.33 1.79 5.88Z"/></g></svg>