<svg xmlns="http://www.w3.org/2000/svg" viewBox="0 0 64 64"><path fill="none" d="M0 0h64v64H0z"/><g fill="#ffad00"><path d="m17.06 46.94 19.49-10.26 10.26-19.49-19.49 10.26-10.26 19.49Zm11.85-17.91a4.291 4.291 0 0 1 6.06 0 4.291 4.291 0 0 1 0 6.06 4.291 4.291 0 0 1-6.06 0 4.291 4.291 0 0 1 0-6.06Z"/><path d="M32 4C16.53 4 4 16.54 4 32.01S16.54 59.99 32 60c15.46 0 27.99-12.53 28-27.99C60 16.53 47.47 4 32 4Zm4.59 49.85L32 49.26l-4.59 4.59c-8.65-1.82-15.45-8.62-17.27-17.26L14.73 32l-4.59-4.59c1.82-8.65 8.62-15.45 17.26-17.27l4.59 4.59 4.59-4.59c8.64 1.82 15.44 8.62 17.26 17.27L49.25 32l4.59 4.59c-1.81 8.64-8.62 15.45-17.27 17.26Z"/></g></svg>