<svg xmlns="http://www.w3.org/2000/svg" viewBox="0 0 64 64"><path fill="none" d="M0 0h64v64H0z"/><g fill="#ffad00"><path d="M29.16 27.33h-9.99v3.5h7.9l-.99 1.65.09 7.69 7.05-3.72 9.27-15.47 1.03-1.72.69-1.15c1.14-1.9.46-4.33-1.51-5.42-1.65-.92-3.67-.6-4.95.63H19.18v3.5h16.28l-.11.18-1.99 3.32H19.17v3.5h12.09l-2.1 3.5Zm12.49-12.92c.98.55 1.32 1.76.75 2.71l-.69 1.15-3.57-1.98.69-1.15c.57-.95 1.83-1.27 2.81-.73ZM37.12 18l3.57 1.98-8.98 14.98-1.3.68-2.26-1.26-.02-1.4 8.98-14.99Z"/><path d="M12 4v56h27c1.87 0 3.21-.75 4.53-2.09l6.29-6.39C51.11 50.21 52 48.84 52 47V4H12Zm4 4h32v35c0 1.93-1.34 3-3.28 3h-6.89v6.89c0 1.93-.9 3.11-2.83 3.11H16V8Zm25.33 47v-5.5h5.41L41.33 55Z"/></g></svg>