<svg xmlns="http://www.w3.org/2000/svg" viewBox="0 0 64 64"><path fill="none" d="M0 0h64v64H0z"/><g fill="#ffad00"><path d="M27.5 26.5c3.05 0 5.5-2.46 5.5-5.5s-2.46-5.5-5.5-5.5S22 17.96 22 21s2.46 5.5 5.5 5.5ZM37 11h8v8h-8zm0 10h8v4h-8z"/><path d="M12 4v56h27c1.87 0 3.21-.75 4.53-2.09l6.29-6.39C51.11 50.21 52 48.84 52 47V4H12Zm36 4v23H34.94c-.47-1.26-1.55-2-3.05-2h-8.66c-1.52 0-2.79.71-3.25 2H16V8h32Zm-6.67 47v-5.5h5.41L41.33 55Zm3.39-9h-6.89v6.89c0 1.93-.9 3.11-2.83 3.11H16V35h4v4h15v-4h13v8c0 1.93-1.34 3-3.28 3Z"/></g></svg>