<svg xmlns="http://www.w3.org/2000/svg" viewBox="0 0 64 64"><path fill="none" d="M0 0h64v64H0z"/><g fill="#ffad00"><path d="M37.07 40.27c-.17 0-.35.04-.52.14-1.04.58-2.24.91-3.51.91-4.29 0-7.72-3.71-7.25-8.1.34-3.21 2.85-5.87 6.04-6.39.41-.07.81-.1 1.21-.1.64 0 1.26.08 1.85.24.09.02.18.04.27.04.6 0 1.11-.53 1.03-1.17l-.54-4.33H19.5v25h19.27l-.67-5.33c-.07-.55-.53-.91-1.03-.91Zm-16.01 4.67V23.06h13.2l.28 2.23a8.806 8.806 0 0 0-2.96-.01 8.84 8.84 0 0 0-7.34 7.76c-.27 2.51.54 5.02 2.21 6.89a8.867 8.867 0 0 0 6.59 2.94c1.24 0 2.47-.26 3.6-.77l.35 2.84H21.05Z"/><path d="m37.21 21.5.87 6.93c.12.92-.92 1.49-1.67.95a5.683 5.683 0 0 0-3.92-1.06c-2.81.27-5.05 2.65-5.16 5.47a5.725 5.725 0 0 0 5.72 5.96c1.77 0 3.35-.8 4.41-2.07.59-.71 1.73-.4 1.85.51.45 3.63 1.04 8.31 1.04 8.31h4.17v-25h-7.29Z"/><path d="M34 14v-2c0-1.66-1.34-3-3-3H17c-1.66 0-3 1.34-3 3v2H4v40h56V14H34Zm22 36H8V18h48v32Z"/></g></svg>