<svg xmlns="http://www.w3.org/2000/svg" viewBox="0 0 64 64"><path fill="none" d="M0 0h64v64H0z"/><g fill="#ffad00"><path d="M25.38 32.6c0 2.44-.97 4.65-2.51 6.3h18.27c-1.55-1.65-2.51-3.85-2.51-6.3 0-3.13 1.57-5.89 3.95-7.55-1.31-1.59-3.26-2.62-5.46-2.62H26.87c-2.2 0-4.14 1.03-5.44 2.62a9.182 9.182 0 0 1 3.96 7.56ZM32 18.9c4.09 0 7.39-3.32 7.39-7.43S36.09 4.05 32 4.05s-7.39 3.32-7.39 7.42S27.92 18.9 32 18.9Z"/><path d="M16.24 40.04c4.09 0 7.39-3.32 7.39-7.43s-3.3-7.43-7.39-7.43-7.39 3.32-7.39 7.43 3.31 7.43 7.39 7.43Zm5.11 3.52H11.1c-3.92 0-7.1 3.23-7.1 7.16v9.31h24.47v-9.31c0-3.94-3.21-7.16-7.12-7.16ZM40.37 32.6c0 4.11 3.31 7.43 7.39 7.43s7.39-3.32 7.39-7.43-3.3-7.43-7.39-7.43-7.39 3.32-7.39 7.43Zm12.5 10.96H42.62c-3.92 0-7.1 3.23-7.1 7.16v9.31h24.47v-9.31c0-3.94-3.21-7.16-7.13-7.16Z"/></g></svg>