<svg xmlns="http://www.w3.org/2000/svg" viewBox="0 0 64 64"><path fill="none" d="M0 0h64v64H0z"/><g fill="#ffad00"><path d="M54.59 40.05h-.09v.56h.09c.14 0 .25-.02.32-.07s.11-.12.11-.21-.04-.16-.11-.21a.632.632 0 0 0-.32-.07Zm-19.92 6.71h3.24l-1.62-4.86-1.62 4.86z"/><path d="M55.86 39.72c-.16-.16-.33-.28-.52-.35-.18-.08-.39-.12-.6-.12s-.42.04-.61.12c-.19.08-.36.19-.51.35-.16.16-.27.33-.35.51-.08.18-.12.39-.12.61s.04.42.12.61c.08.18.2.36.35.51.15.15.32.27.51.35.19.08.39.12.61.12s.42-.04.61-.11c.18-.08.36-.19.51-.35s.27-.33.35-.51c.08-.19.12-.39.12-.61a1.544 1.544 0 0 0-.47-1.12Zm-.71 2.21-.29-.57c-.07-.14-.13-.24-.18-.3-.05-.06-.1-.09-.16-.09h-.03v.96h-.57v-2.25h.77c.32 0 .55.05.71.16.16.11.23.27.23.48 0 .15-.05.28-.14.38-.09.1-.23.17-.4.2.07.04.14.1.2.17s.12.16.18.26l.3.6h-.62Z"/><path d="M4 4v56h56V4H4Zm9.82 47.4h-2.56V38.97h2.56V51.4Zm10.97 0h-8.51V38.97h2.56v10.3h5.95v2.13Zm4.18 0h-2.56V38.97h2.56V51.4Zm10.46 0-.82-2.51h-4.65l-.84 2.51h-2.61l4.42-12.43h2.83l4.3 12.43h-2.63Zm8.65.39c-3.17 0-5-1.45-5.15-4.11h2.49c.09 1.33 1.06 2.06 2.8 2.06 1.55 0 2.51-.63 2.51-1.67s-.63-1.48-2.34-1.81l-1.74-.34c-2.52-.48-3.49-1.41-3.49-3.34 0-2.42 1.72-3.82 4.71-3.82 1.79 0 3.17.49 4.01 1.41.61.68.87 1.43.87 2.57h-2.39c-.09-1.26-.99-1.94-2.61-1.94-1.31 0-2.15.6-2.15 1.53s.53 1.26 2.35 1.62l1.94.38c2.3.44 3.29 1.47 3.29 3.43 0 2.52-1.89 4.02-5.1 4.02Zm8.51-10.19c-.1.23-.24.45-.44.64a1.97 1.97 0 0 1-1.41.59c-.27 0-.53-.05-.76-.15-.24-.1-.45-.25-.65-.44a1.932 1.932 0 0 1-.59-1.4 1.97 1.97 0 0 1 .59-1.42 1.97 1.97 0 0 1 1.41-.59c.27 0 .53.05.76.15.24.1.45.25.65.44a1.97 1.97 0 0 1 .59 1.42c0 .28-.05.53-.15.76Z"/></g></svg>