<svg xmlns="http://www.w3.org/2000/svg" viewBox="0 0 64 64"><path fill="none" d="M0 0h64v64H0z"/><path d="M58.39 14.61c-.07 0-.15 0-.22.01-3.5.4-9.29 2.08-12.74 8.54-2.91 5.45-7.12 13.31-10.24 19.15l-6.52-6.52 1.1-2.02c.08-.15.22-.25.38-.28l4.21-.83a.56.56 0 0 0 .4-.78l-2.99-6.62c-.15-.34.06-.73.43-.79l7.35-1.14c.36-.06.58-.44.43-.78l-3.17-7.17c-.15-.34.06-.72.42-.78L45 13.34c.33-.05.54-.39.45-.71l-1.49-5.05a.461.461 0 0 1-.01-.26l.39-2.11c.1-.54-.54-.88-.94-.51l-1.6 1.52s-.08.09-.11.14l-.33.6a.58.58 0 0 0-.05.43l.96 3.24c.1.32-.11.66-.45.71l-8.16 1.32c-.36.06-.57.44-.42.78l3.16 7.14c.15.34-.06.72-.43.78L28.6 22.5c-.37.06-.58.45-.43.79l3.04 6.74a.56.56 0 0 1-.4.78l-2.29.45c-.16.03-.3.14-.38.28l-1.3 2.4-10.7-10.7c-2.77-2.77-7.3-2.77-10.06 0-2.77 2.77-2.77 7.3 0 10.06l24.1 24.1c2.77 2.77 7.3 2.77 10.06 0 1.92-1.92 2.48-4.68 1.73-7.12l17.81-33.31c.58-1.09-.21-2.38-1.4-2.39ZM40.55 47.74c-.11-.12-.19-.26-.3-.37l-3.23-3.23 10.59-19.82c2.38-4.46 6.06-6.28 9.18-6.97L40.55 47.73Z" fill="#ffad00"/></svg>