<svg width="16" height="16" xmlns="http://www.w3.org/2000/svg" viewBox="0 0 54 54"><path d="M32.5 43h-11a1.5 1.5 0 0 0 0 3h11a1.5 1.5 0 0 0 0-3m-1 5h-9a1.5 1.5 0 0 0 0 3h9a1.5 1.5 0 0 0 0-3M27 3a19 19 0 0 0-2 .11 17 17 0 0 0-6.95 31.37 2 2 0 0 1 .95 1.65v3.34A1.5 1.5 0 0 0 20.5 41h13a1.5 1.5 0 0 0 1.5-1.5v-3.38a2 2 0 0 1 .9-1.67A17 17 0 0 0 27 3m7.33 28.92a5 5 0 0 0-2.33 4.2V38H22v-1.87a5 5 0 0 0-2.33-4.24 14 14 0 0 1 5.7-25.83A15 15 0 0 1 27 6a14 14 0 0 1 7.33 25.92" fill="#ffad00"/><path d="M32.39 9.05A12.5 12.5 0 0 0 27.24 8a12.66 12.66 0 0 0-10.37 5.4 1.73 1.73 0 0 0 .42 2.41 1.7 1.7 0 0 0 1 .32 1.73 1.73 0 0 0 1.42-.74 9.21 9.21 0 0 1 7.54-3.93 9.1 9.1 0 0 1 3.74.8A1.73 1.73 0 1 0 32.4 9.1ZM17 16.31a1.73 1.73 0 0 0-2 1.27 12.4 12.4 0 0 0-.37 3 12.7 12.7 0 0 0 .28 2.67 1.74 1.74 0 0 0 1.69 1.36 1.6 1.6 0 0 0 .37 0 1.74 1.74 0 0 0 1.33-2.06 9 9 0 0 1-.3-1.94 9 9 0 0 1 .27-2.2 1.74 1.74 0 0 0-1.27-2.1" fill="#ffad00"/></svg>