<svg xmlns="http://www.w3.org/2000/svg" viewBox="0 0 64 64"><path fill="none" d="M0 0h64v64H0z"/><g fill="#ffad00"><path d="M32 42.5c4.51 0 8.17-3.66 8.17-8.17V12.17C40.17 7.66 36.51 4 32 4s-8.17 3.66-8.17 8.17v22.17c0 4.51 3.66 8.17 8.17 8.17Z"/><path d="M47.17 34.33V32c0-1.93-1.57-3.5-3.5-3.5v5.42c0 6.21-4.67 11.64-10.87 12.05-6.79.45-12.47-4.94-12.47-11.64V28.5c-1.93 0-3.5 1.57-3.5 3.5v2.33c0 7.78 5.87 14.19 13.42 15.06v4.78h-6.42c-1.93 0-3.5 1.57-3.5 3.5V60h23.33v-2.33c0-1.93-1.57-3.5-3.5-3.5h-6.42v-4.78c7.55-.87 13.42-7.27 13.42-15.06Z"/></g></svg>