<svg xmlns="http://www.w3.org/2000/svg" viewBox="0 0 64 64"><path fill="none" d="M0 0h64v64H0z"/><g fill="#ffad00"><path d="M52.42 21.42c2.47 0 4.48-1.99 4.48-4.44s-2.01-4.44-4.48-4.44-4.48 1.99-4.48 4.44 2.01 4.44 4.48 4.44Zm1.1 6.18c-1.29 0-2.5.39-3.51 1.04a8.128 8.128 0 0 0-8.07-7.09c-4.52 0-8.18 3.63-8.18 8.11s3.66 8.1 8.18 8.1c2.06 0 3.92-.79 5.36-2.04.76 2.71 3.24 4.72 6.22 4.72 3.58 0 6.48-2.88 6.48-6.42s-2.9-6.43-6.48-6.43Z"/><path d="M40.64 40.41c-5.42-.64-9.62-5.21-9.62-10.75 0-4.36 2.6-8.11 6.35-9.83L35.39 7.4l-20.65 3.24 1.16 7.27-11.89 4.57 13.35 34.11 19.49-7.5-1.8-4.58 6.09-.96-.5-3.14Z"/></g></svg>