<svg xmlns="http://www.w3.org/2000/svg" viewBox="0 0 64 64"><path fill="none" d="M0 0h64v64H0z"/><g fill="#ffad00"><path d="M60 36.04c0-2.21-1.79-4-4-4-1.47 0-2.7.83-3.4 2.02H34v-6.63c1.17-.7 2-1.92 2-3.39 0-2.21-1.79-4-4-4-1.46 0-2.69.83-3.39 2h-6.63v-10.6c1.18-.69 2.02-1.93 2.02-3.4 0-2.21-1.79-4-4-4s-4 1.79-4 4c0 1.46.82 2.68 1.98 3.38v10.62h-6.6c-.7-1.17-1.92-2-3.39-2-2.21 0-4 1.79-4 4s1.79 4 4 4c1.46 0 2.69-.83 3.39-2h6.6v6.62c-1.16.7-1.98 1.92-1.98 3.38 0 2.21 1.79 4 4 4 1.46 0 2.68-.82 3.38-1.98H30v14.6c-1.17.7-2 1.92-2 3.39 0 2.21 1.79 4 4 4s4-1.79 4-4c0-1.46-.83-2.69-2-3.39v-14.6h12.02v10.58c-1.18.69-2.02 1.93-2.02 3.4 0 2.21 1.79 4 4 4s4-1.79 4-4c0-1.46-.82-2.68-1.98-3.38V38.05h2.61c.7 1.16 1.92 1.98 3.38 1.98 2.21 0 4-1.79 4-4Zm-30-1.98h-6.6c-.35-.59-.83-1.07-1.42-1.42v-6.6h6.63c.34.58.81 1.04 1.39 1.39v6.63Z"/><circle cx="42" cy="14.04" r="6"/></g></svg>