<svg xmlns="http://www.w3.org/2000/svg" viewBox="0 0 64 64"><path fill="none" d="M0 0h64v64H0z"/><g fill="#ffad00"><path d="M55.44 35.34c-2.93-1.12-6.11-.06-7.93 2.35l-3.66-1.39c.41-2.38.09-4.78-.84-6.91l3.61-2.65c.44.32.92.61 1.45.81.74.28 1.5.41 2.24.41 2.62 0 5.08-1.65 6.04-4.31 1.24-3.42-.46-7.22-3.8-8.49-.74-.28-1.5-.41-2.24-.41-2.62 0-5.08 1.65-6.04 4.31-.48 1.33-.51 2.7-.18 3.98l-3.63 2.66a11.432 11.432 0 0 0-3.97-2.55c-5.31-2.02-11.15.23-13.94 5.05l-2.69-1.02c.32-3.58-1.7-7.07-5.15-8.38-.91-.35-1.85-.51-2.77-.51-3.23 0-6.27 2.03-7.46 5.32-1.53 4.22.57 8.91 4.69 10.48.91.35 1.85.51 2.77.51 2.46 0 4.81-1.19 6.31-3.2l2.8 1.06c-.66 4.38 1.16 8.77 4.62 11.36l-1.52 3.15c-.69-.15-1.42-.21-2.16-.1-3.53.48-6 3.81-5.53 7.42.47 3.61 3.71 6.15 7.24 5.67 3.53-.48 6-3.81 5.53-7.42-.16-1.2-.64-2.27-1.32-3.16l1.76-3.63c4.87 1.25 9.97-.91 12.59-5.21l3.78 1.44c-.04 2.94 1.68 5.73 4.53 6.81 3.62 1.38 7.64-.51 8.98-4.22 1.34-3.71-.5-7.83-4.12-9.2Zm-8.41-15.23c.51-1.4 1.83-2.34 3.28-2.34.41 0 .82.08 1.22.23.88.33 1.57 1 1.96 1.87s.43 1.85.1 2.74c-.51 1.4-1.83 2.34-3.28 2.34-.41 0-.82-.08-1.22-.23-1.81-.69-2.74-2.76-2.06-4.61ZM11.95 31.58c-.59 0-1.18-.11-1.74-.32-2.59-.99-3.92-3.95-2.96-6.6.73-2 2.61-3.35 4.7-3.35.59 0 1.18.11 1.74.32 2.59.99 3.92 3.95 2.96 6.6-.73 2-2.62 3.35-4.7 3.35Z"/><path d="M25.47 16.76c3.33 1.27 7.03-.47 8.26-3.88 1.23-3.41-.46-7.2-3.79-8.47-3.33-1.27-7.03.47-8.26 3.88-1.24 3.41.46 7.2 3.79 8.47Z"/></g></svg>