<svg xmlns="http://www.w3.org/2000/svg" viewBox="0 0 64 64"><path fill="none" d="M0 0h64v64H0z"/><path d="M32 4.03c-3.73 0-7.3.74-10.55 2.06A5.947 5.947 0 0 0 18 5a6.005 6.005 0 0 0-5.86 7.29A27.92 27.92 0 0 0 4 32.03c0 15.46 12.54 28 28 28s28-12.54 28-28-12.54-28-28-28ZM55.91 30h-5.26a6.003 6.003 0 0 0-4.9-3.95c-2.06-4.72-6.47-8.17-11.75-8.87V8.12C45.63 9.08 54.93 18.37 55.91 30ZM8.09 30c.46-5.47 2.76-10.42 6.28-14.23C15.38 16.54 16.63 17 18 17c3.31 0 6-2.69 6-6 0-.53-.08-1.04-.2-1.53 1.96-.72 4.04-1.18 6.2-1.36v9.06c-6.67.89-11.94 6.16-12.85 12.82H8.09Zm31.26 0H34v-8.78c3.38.62 6.21 2.79 7.75 5.74a5.932 5.932 0 0 0-2.4 3.04ZM30 21.22V30h-8.8c.83-4.45 4.35-7.96 8.8-8.78ZM30 34v8.84c-4.47-.83-8-4.36-8.81-8.84H30Zm4 0h5.35a5.97 5.97 0 0 0 2.43 3.05 11.036 11.036 0 0 1-7.77 5.79V34ZM8.09 34h9.06c.88 6.69 6.17 11.99 12.86 12.88v9.06C18.36 54.97 9.05 45.65 8.1 34ZM34 55.94v-9.06c5.31-.71 9.74-4.18 11.79-8.94 2.26-.3 4.12-1.85 4.87-3.94h5.26c-.95 11.65-10.26 20.97-21.91 21.94Z" fill="#ffad00"/></svg>