<svg xmlns="http://www.w3.org/2000/svg" viewBox="0 0 64 64"><path fill="none" d="M0 0h64v64H0z"/><path d="M38 17.73A3.73 3.73 0 0 0 34.27 14h-4.54A3.73 3.73 0 0 0 26 17.73V23h12v-5.27Zm-6.07-5.6c2.22 0 4-1.79 4-4s-1.79-4-4-4-4 1.79-4 4 1.79 4 4 4Zm-22 37c2.22 0 4-1.79 4-4s-1.79-4-4-4-4 1.79-4 4 1.79 4 4 4ZM12.27 51H7.73A3.73 3.73 0 0 0 4 54.73V60h12v-5.27A3.73 3.73 0 0 0 12.27 51Zm37.66-5.87c0 2.21 1.79 4 4 4s4-1.79 4-4-1.79-4-4-4-4 1.79-4 4ZM56.27 51h-4.54A3.73 3.73 0 0 0 48 54.73V60h12v-5.27A3.73 3.73 0 0 0 56.27 51ZM52 38h4v-8H34v-4h-4v4H8v8h4v-4h40v4z" fill="#ffad00"/></svg>