<svg xmlns="http://www.w3.org/2000/svg" viewBox="0 0 64 64"><path fill="none" d="M0 0h64v64H0z"/><path d="M47.92 19.95C47.92 11.14 40.78 4 31.97 4c-6.73 0-12.4 4.21-14.74 10.1-.06.11-.11.22-.15.34-.02.05-.05.1-.07.15h.03c-.1.33-.2.66-.2 1.01 0 1.87 1.52 3.39 3.39 3.39 1.35 0 2.49-.8 3.04-1.94l.04.02c1.46-4.37 6.06-7.3 11.16-5.95 3.04.8 5.52 3.28 6.33 6.31 1.6 6.01-2.73 11.38-8.4 11.64v.03h-7.21c-5.06.01-9.17 4.12-9.17 9.18v17.6c0 2.2 1.78 3.97 3.97 3.97h23.99c2.2 0 3.97-1.78 3.97-3.97V19.95h-.03Zm-18.3 34.08-9.31-9.3 4.09-4.09 5.2 5.2 9.95-9.94 4.09 4.1-14.03 14.03Z" fill="#ffad00"/></svg>