<svg xmlns="http://www.w3.org/2000/svg" viewBox="0 0 64 64"><path fill="none" d="M0 0h64v64H0z"/><path d="M59.99 32.03c0-15.46-12.54-28-28.01-28C16.53 4.03 4 16.56 4 32.03c0 15.46 12.53 27.98 27.98 27.99 15.47 0 28.01-12.53 28.01-27.99Zm-50.32 0c.02-12.33 10-22.31 22.32-22.34 12.34.03 22.32 10 22.34 22.34-.02 12.33-10 22.3-22.34 22.33-12.32-.02-22.29-10-22.32-22.33Z" fill="#ffad00"/><path d="M32 50.88c10.42-.03 18.83-8.44 18.85-18.85C50.83 21.62 42.41 13.2 32 13.17v37.71Z" fill="#28497c"/></svg>