<svg xmlns="http://www.w3.org/2000/svg" viewBox="0 0 64 64"><path fill="none" d="M0 0h64v64H0z"/><path d="M4 32.02c0 15.46 12.54 28 28.01 28s27.98-12.53 27.98-28c0-15.46-12.53-27.98-27.98-27.99C16.54 4.03 4 16.56 4 32.02Zm50.32 0c-.02 12.33-10 22.31-22.32 22.34-12.34-.03-22.32-10-22.34-22.34.02-12.33 10-22.3 22.34-22.33 12.32.02 22.29 10 22.32 22.33Z" fill="#ffad00"/><path d="M31.99 32.02H13.14c.02 10.41 8.44 18.84 18.86 18.86 10.4-.02 18.82-8.45 18.84-18.86C50.82 21.61 42.4 13.19 32 13.17h-.01v18.85Z" fill="#28497c"/></svg>