<svg xmlns="http://www.w3.org/2000/svg" viewBox="0 0 64 64"><path fill="none" d="M0 0h64v64H0z"/><path d="M32 4.03c-15.46 0-28 12.54-28 28.01s12.53 27.98 28 27.98c15.46 0 27.98-12.53 27.99-27.98C59.99 16.57 47.46 4.03 32 4.03Zm0 50.32c-12.33-.02-22.31-10-22.34-22.32.03-12.34 10-22.32 22.34-22.34 12.33.02 22.3 10 22.33 22.34-.02 12.32-10 22.29-22.33 22.32Z" fill="#ffad00"/><path d="M32 50.88c-10.41-.02-18.84-8.44-18.86-18.84.02-10.42 8.45-18.84 18.86-18.86 10.41.02 18.83 8.44 18.85 18.86-.02 10.4-8.44 18.82-18.85 18.84Z" fill="#28497c"/></svg>