<svg xmlns="http://www.w3.org/2000/svg" viewBox="0 0 64 64"><path fill="none" d="M0 0h64v64H0z"/><path d="M32 4.03c-15.46 0-28 12.53-28 28.01s12.54 27.98 28 27.98 27.99-12.53 27.99-27.98C59.99 16.57 47.46 4.03 32 4.03Zm14.51 27.66c0 1.43-.26 2.78-.64 4.08h8.12c-.54 3.13-1.7 6.04-3.39 8.58l-5.83-5.83a14.698 14.698 0 0 1-5.86 6.04l5.8 5.8a22.242 22.242 0 0 1-8.64 3.6v-8.18c-1.39.43-2.84.73-4.37.73-1.42 0-2.75-.26-4.05-.63v8.03c-3.12-.62-6.01-1.91-8.51-3.68l5.55-5.55a14.841 14.841 0 0 1-5.96-5.95l-5.43 5.43c-1.63-2.5-2.76-5.34-3.28-8.4h7.49c-.38-1.3-.64-2.65-.64-4.08 0-1.52.3-2.96.72-4.34h-7.41c.63-2.93 1.83-5.65 3.48-8.03l5.15 5.15c1.4-2.5 3.49-4.53 6.04-5.86l-5.19-5.19c2.38-1.58 5.07-2.71 7.97-3.29v7.37c1.29-.37 2.63-.63 4.05-.63 1.53 0 2.98.3 4.37.73v-7.52c2.94.54 5.67 1.66 8.09 3.23l-5.42 5.41c2.52 1.38 4.58 3.44 5.95 5.96l5.54-5.54c1.71 2.42 2.97 5.19 3.61 8.2h-8.03c.42 1.38.72 2.82.72 4.34Z" fill="#ffad00"/></svg>