<svg viewBox="0 0 16 16" xmlns="http://www.w3.org/2000/svg" xml:space="preserve" fill-rule="evenodd" clip-rule="evenodd" stroke-linejoin="round" stroke-miterlimit="2"><path d="M1.141 1.225h4.322v4.303H1.141zm8.285.709v2.859h-2.87v-2.86zm.727-.723H5.829v4.304h4.324zm3.979.724v2.859h-2.87v-2.86zm.726-.723h-4.322v4.304h4.322zm-10.12 5.41v2.855H1.87V6.622h2.87m.724-.725H1.141v4.305h4.322V5.897Zm.366-.014h4.324v4.305H5.829V5.883Zm4.708 0h4.322v4.305h-4.322zM1.14 10.486h4.322v4.304H1.141v-4.304Zm4.688-.015h4.324v4.305H5.829zm8.303.725v2.857h-2.87v-2.857zm.726-.725h-4.322v4.305h4.322z" fill="#ffad00" fill-rule="nonzero"/></svg>