<svg xmlns="http://www.w3.org/2000/svg" viewBox="0 0 64 64"><path fill="none" d="M0 0h64v64H0z"/><g fill="#ffad00"><path d="M56 8v48H8V8zm4-4H4v56h56z"/><path d="M34 15v4h-4v-4zm4-4H26v12h12zM19 30v4h-4v-4zm4-4H11v12h12zm-4 19v4h-4v-4zm4-4H11v12h12zm26-26v4h-4v-4zm4-4H41v12h12zm-4 34v4h-4v-4zm4-4H41v12h12zM39.2 28.98l-2.49-2.5-6.05 6.05-3.17-3.16L25 31.86l5.66 5.66zm0 15-2.49-2.5-6.05 6.05-3.17-3.16L25 46.86l5.66 5.66zm-15-30-2.49-2.5-6.05 6.05-3.17-3.16L10 16.86l5.66 5.66zm30 15-2.49-2.5-6.05 6.05-3.17-3.16L40 31.86l5.66 5.66z"/></g></svg>