<svg xmlns="http://www.w3.org/2000/svg" viewBox="0 0 64 64"><path fill="none" d="M0 0h64v64H0z"/><path d="M31.99 49.4c-11.57 0-22.13-6.36-27.57-16.6l-.41-.77.41-.77c5.43-10.24 15.99-16.61 27.57-16.61s22.13 6.36 27.57 16.61l.41.77-.41.77c-5.44 10.24-16 16.6-27.57 16.6ZM7.73 32.03c4.97 8.72 14.19 14.1 24.26 14.1s19.28-5.38 24.26-14.1c-4.98-8.73-14.2-14.11-24.26-14.11S12.7 23.3 7.73 32.03Z" fill="#ffad00"/><path fill="#28497c" d="m45.26 27.74-4.71-4.71-11.43 11.43-5.98-5.98-4.7 4.7 10.69 10.69 16.13-16.13z"/></svg>