<svg xmlns="http://www.w3.org/2000/svg" viewBox="0 0 64 64"><path fill="none" d="M0 0h64v64H0z"/><g fill="#ffad00"><path d="M52.93 11a7.49 7.49 0 0 1-1.02 4.46l-.81 1.38h3.07v32.67H9.83V16.83h23.36l3.08-5.22.36-.61H4v44.33h56V11h-7.07Z"/><path d="M31.13 20.33H13.29V46h10.64l-.02-2.31-.12-10.24-.01-.66.33-.56 7.02-11.9zM37.5 39.9l-.34.56-.57.31-9.25 4.95-.52.28h23.8V20.33h-1.59L37.5 39.9z"/><path d="m26.24 43.67 9.25-4.96 12.16-20.62L49 15.8l.9-1.53c1.49-2.53.61-5.77-1.98-7.23-2.59-1.46-5.89-.59-7.38 1.94l-.9 1.53-1.35 2.29-12.16 20.62.11 10.25ZM42.88 10.3c.75-1.26 2.4-1.7 3.69-.97s1.73 2.35.99 3.61l-.9 1.53-4.68-2.65.9-1.53Zm-2.25 3.82 4.68 2.65-11.78 19.98-1.7.91-2.97-1.68-.02-1.87 11.79-19.99Z"/></g></svg>