<svg xmlns="http://www.w3.org/2000/svg" viewBox="0 0 64 64"><path fill="none" d="M0 0h64v64H0z"/><g fill="#6e6e6e"><path d="M48.33 36.7c-6.44 0-11.67 5.22-11.67 11.67s5.22 11.67 11.67 11.67S60 54.82 60 48.37 54.78 36.7 48.33 36.7Zm0 19.83c-4.5 0-8.17-3.66-8.17-8.17s3.66-8.17 8.17-8.17 8.17 3.66 8.17 8.17-3.66 8.17-8.17 8.17Z"/><path d="M38.99 31.83c.76.13 1.54.2 2.34.2 7.73 0 14-6.27 14-14s-6.27-14-14-14c-6.91 0-12.63 5.02-13.76 11.6-1.89-.7-3.93-1.1-6.07-1.1-9.66 0-17.5 7.83-17.5 17.5s7.83 17.5 17.5 17.5S39 41.7 39 32.03c0-.07 0-.14-.01-.2ZM21.5 46.03c-7.72 0-14-6.28-14-14s6.28-14 14-14 14 6.28 14 14-6.28 14-14 14Zm9.37-28.76c.39-5.43 4.93-9.74 10.46-9.74s10.5 4.71 10.5 10.5-4.71 10.5-10.5 10.5c-.97 0-1.9-.15-2.78-.39a17.517 17.517 0 0 0-7.68-10.87Z"/><path d="M26.41 20.44c-1.56-.66-3.21-1-4.91-1-4.85 0-9.33 2.86-11.41 7.28-.35.76-.03 1.66.72 2.01.21.1.43.14.64.14.57 0 1.11-.32 1.37-.87 1.58-3.37 4.99-5.55 8.67-5.55 1.29 0 2.55.26 3.73.76.77.32 1.65-.03 1.98-.8.33-.77-.03-1.66-.8-1.98ZM10.42 30.52c-.83 0-1.51.68-1.51 1.51 0 .65.05 1.31.15 1.96.12.75.76 1.28 1.49 1.28.08 0 .16 0 .24-.02.82-.13 1.39-.9 1.26-1.73-.08-.49-.12-1-.12-1.49 0-.83-.68-1.51-1.51-1.51ZM45.6 11.61c.31-.72-.03-1.56-.75-1.86-1.12-.47-2.3-.71-3.51-.71-4.39 0-8.21 3.27-8.9 7.62-.12.78.41 1.5 1.18 1.63.08.01.15.02.22.02.69 0 1.29-.5 1.4-1.2.47-2.97 3.08-5.22 6.09-5.22.83 0 1.64.16 2.4.49.72.31 1.56-.03 1.86-.75Zm5.29 30.72a6.564 6.564 0 0 0-9.04 7.07c.1.64.66 1.11 1.3 1.11.07 0 .14 0 .21-.02.72-.12 1.2-.79 1.09-1.5-.03-.2-.05-.41-.05-.61 0-2.17 1.77-3.94 3.94-3.94.53 0 1.05.1 1.53.31.67.29 1.44-.03 1.72-.69.28-.67-.03-1.44-.69-1.72Z"/></g></svg>