<svg xmlns="http://www.w3.org/2000/svg" viewBox="0 0 64 64"><path fill="none" d="M0 0h64v64H0z"/><path d="m43.68 17.52-2.93 2.93c-.96-.72-1.76-1.07-2.02-.81l-1.69 1.69a20.98 20.98 0 0 0-26.59 2.55c-8.2 8.2-8.2 21.5 0 29.7 4.1 4.1 9.47 6.15 14.85 6.15s10.75-2.05 14.85-6.15c7.23-7.23 8.08-18.42 2.55-26.59l1.69-1.69c.26-.26-.09-1.06-.81-2.02l2.93-2.93c.78-.78.78-2.05 0-2.83s-2.05-.78-2.83 0ZM32.19 27.89c-.38.89-1.41 1.31-2.29.93-1.38-.58-2.83-.88-4.32-.88-4.27 0-8.21 2.52-10.04 6.42-.3.63-.93 1.01-1.58 1.01-.25 0-.5-.05-.74-.17a1.755 1.755 0 0 1-.84-2.33c2.41-5.12 7.59-8.43 13.21-8.43 1.96 0 3.88.39 5.69 1.15.89.38 1.31 1.4.93 2.29ZM13.17 42.75c-.09.01-.18.02-.27.02-.85 0-1.59-.62-1.73-1.48-.12-.75-.18-1.52-.18-2.27 0-.97.78-1.75 1.75-1.75s1.75.78 1.75 1.75c0 .58.05 1.16.14 1.73.15.95-.5 1.85-1.46 2ZM40.15 15.4c.78.78 2.05.78 2.83 0s.78-2.05 0-2.83l-2.83-2.83c-.78-.78-2.05-.78-2.83 0-.78.78-.78 2.05 0 2.83l2.83 2.83Zm11.31 5.66c-.78-.78-2.05-.78-2.83 0s-.78 2.05 0 2.83l2.83 2.83c.78.78 2.05.78 2.83 0 .78-.78.78-2.05 0-2.83l-2.83-2.83Zm.71-6.37L55 11.86c.78-.78.78-2.05 0-2.83s-2.05-.78-2.83 0l-2.83 2.83c-.78.78-.78 2.05 0 2.83s2.05.78 2.83 0Zm5.53 1.54h-4c-1.1 0-2 .9-2 2s.9 2 2 2h4c1.1 0 2-.9 2-2s-.9-2-2-2ZM45.8 4.33c-1.1 0-2 .9-2 2v4c0 1.1.9 2 2 2s2-.9 2-2v-4c0-1.1-.9-2-2-2Z" fill="#6e6e6e"/></svg>