<svg data-name="Ebene 2" xmlns="http://www.w3.org/2000/svg" viewBox="0 0 64 64"><path fill="none" d="M0 0h64v64H0z" data-name="Viewbox 64x64"/><g fill="#6e6e6e" data-name="Main Elements – New Outline Draft"><circle cx="22" cy="20" r="9"/><path d="M29 31H15c-4.42 0-8 3.58-8 8v10s4 4 14.85 4S37 49 37 49V39c0-4.42-3.58-8-8-8"/><circle cx="43" cy="17" r="8"/><path d="M49.53 27.73H36.46c-1.55 0-2.99.47-4.18 1.28 2.28.08 4.32 1.11 5.73 2.72 0 0 1.99 2.27 1.99 4.27v12.15c.9.07 1.84.12 2.86.12 10.4 0 14.14-3.73 14.14-3.73v-9.33a7.47 7.47 0 0 0-7.47-7.47Z"/></g></svg>