<svg xmlns="http://www.w3.org/2000/svg" viewBox="0 0 64 64"><path fill="none" d="M0 0h64v64H0z"/><path d="M56.5 19.37c-1.93 0-3.5 1.57-3.5 3.5 0 .55.14 1.07.37 1.53l-9.7 6.09-8.3-13.73c.8-.84 1.3-1.97 1.3-3.22 0-2.58-2.09-4.67-4.67-4.67s-4.67 2.09-4.67 4.67c0 1.25.5 2.39 1.3 3.22l-8.3 13.73-10.26-6.44c.57-.62.92-1.44.92-2.35 0-1.93-1.57-3.5-3.5-3.5s-3.5 1.57-3.5 3.5 1.43 3.33 3.23 3.47l7.27 28.03h35l6.96-26.84h.04c1.93 0 3.5-1.57 3.5-3.5s-1.57-3.5-3.5-3.5ZM17.21 49.7l-.92-3.54h31.42l-.92 3.54H17.21Zm31.41-7.04H15.39l-3.45-13.32 6.54 4.11 3.01 1.89 1.84-3.04 8.54-14.11s.09.01.14.01.09-.01.14-.01l8.54 14.11 1.84 3.04 3.01-1.89 6.54-4.11-3.45 13.32Z" fill="#6e6e6e"/></svg>