<svg xmlns="http://www.w3.org/2000/svg" viewBox="0 0 64 64"><path fill="none" d="M0 0h64v64H0z"/><path d="M18.5 12c3.8 0 8.29 1.75 9.76 5.65l1.4 3.72c.81 2.16 3.88 2.16 4.69 0l1.4-3.72C37.22 13.75 41.7 12 45.5 12c3.14 0 6 1.13 7.85 3.09 1.95 2.07 2.83 5.02 2.61 8.76-.3 5.03-4.34 9.72-11.23 16.12C38.55 45.7 34.34 49.17 32 51c-2.35-1.83-6.55-5.3-12.73-11.03-6.89-6.39-10.94-11.08-11.25-16.12-.22-3.74.66-6.68 2.61-8.75 1.85-1.97 4.72-3.09 7.86-3.09Zm27-4c-5.76 0-11.49 2.92-13.49 8.24-2-5.32-7.74-8.24-13.5-8.24-7.54 0-15.12 4.98-14.47 16.08.41 6.7 5.49 12.31 12.52 18.82 10.53 9.78 15.45 13.09 15.45 13.09s4.9-3.31 15.45-13.09c7.01-6.52 12.11-12.12 12.5-18.82C60.62 12.98 53.04 8 45.5 8Z" fill="#6e6e6e"/></svg>