<svg xmlns="http://www.w3.org/2000/svg" viewBox="0 0 64 64"><path fill="none" d="M0 0h64v64H0z"/><g fill="#6e6e6e"><path d="M38.65 28.69c2.56 2.04 4.63 1.19 4.33.8-.92-1.19-2.72-1.19-4.33-.8Zm3.32-1.15c-2.56-.87-5.97 0-5.84.1-1.72-.85-4.04-2.08-5.31-6.13-2.14-6.79 0-8.98.14-4.73l.43 2.88s1.47-3.6.52-6.22c-.83-2.29-3.23-1.94-3.37 2.28-.08 2.33.48 5.83.74 6.37 0 0-2.22 6.53-5.51 11.67-3.19 4.99-3.39 3.31-2.61 1.64.92-1.98 2.48-3.01 3-3.84 0 0-2.43.19-4.31 3.42-1.19 2.04-1.33 7.12 3.75 1.62 1.01-1.09 2.44-3.39 3.09-4.76 0 0 2.96-1.29 10.01-2.66 0 0 1.9 1.39 4.37 1.96 3.06.71 6.22-1.8.9-3.61Zm-14.43 2.15 2.57-5.9c1.7 3.62 4.11 4.35 4.11 4.35-1.05.14-6.68 1.55-6.68 1.55Z" fill-rule="evenodd"/><path d="M12 4v56h27c1.87 0 3.21-.75 4.53-2.09l6.29-6.39C51.11 50.21 52 48.84 52 47V4H12Zm4 4h32v35c0 1.93-1.34 3-3.28 3h-6.89v6.89c0 1.93-.9 3.11-2.83 3.11H16V8Zm25.33 47v-5.5h5.41L41.33 55Z"/></g></svg>