<svg data-name="Ebene 2" xmlns="http://www.w3.org/2000/svg" viewBox="0 0 64 64"><path fill="none" d="M0 0h64v64H0z" data-name="Viewbox 64x64"/><g fill="#6e6e6e"><ellipse cx="22.12" cy="33.95" rx="3.57" ry="3.58"/><path d="M24.99 38.55h-5.72c-1.81 0-3.27 1.5-3.27 3.35v4.18s1.64 1.67 6.07 1.67 6.19-1.67 6.19-1.67V41.9c0-1.85-1.46-3.35-3.27-3.35m16.13-1.06c1.97 0 3.56-1.59 3.56-3.56s-1.59-3.56-3.56-3.56-3.56 1.59-3.56 3.56 1.59 3.56 3.56 3.56m2.85 1.01h-5.69c-1.8 0-3.25 1.49-3.25 3.33v4.16s1.63 1.66 6.04 1.66 6.16-1.66 6.16-1.66v-4.16c0-1.84-1.46-3.33-3.25-3.33ZM31.61 26.02c1.66 0 3.01-1.35 3.01-3.01S33.27 20 31.61 20s-3.01 1.35-3.01 3.01 1.35 3.01 3.01 3.01m5.02 7.57v-3.65c0-1.61-1.2-2.92-2.68-2.92h-4.68c-1.48 0-2.68 1.31-2.68 2.92v3.65s1.34 1.46 4.97 1.46 5.07-1.46 5.07-1.46"/><path d="M34 14v-2c0-1.66-1.34-3-3-3H17c-1.66 0-3 1.34-3 3v2H4v40h56V14zm22 36H8V18h48z"/></g></svg>