<svg xmlns="http://www.w3.org/2000/svg" viewBox="0 0 64 64"><path fill="none" d="M0 0h64v64H0z"/><g fill="#6e6e6e"><path d="M20.66 35.29a3.15 3.15 0 1 0 0-6.3 3.15 3.15 0 0 0 0 6.3Zm1.43 1.49h-2.88c-1.67 0-3.03 1.37-3.03 3.04v3.95h8.95v-3.95c0-1.67-1.37-3.04-3.04-3.04Zm14.25 2.24a3.15 3.15 0 1 0 0-6.3 3.15 3.15 0 0 0 0 6.3Zm1.44 1.5H34.9c-1.67 0-3.03 1.37-3.03 3.04v3.95h8.95v-3.95c0-1.67-1.37-3.04-3.04-3.04ZM27.63 31.8a3.15 3.15 0 1 0 0-6.3 3.15 3.15 0 0 0 0 6.3Z"/><path d="M32.1 40.28v-3.95c0-1.67-1.37-3.04-3.04-3.04h-2.88c-1.63 0-2.95 1.3-3.02 2.92 1.56.47 2.71 1.9 2.71 3.61v.46h6.22ZM33 8H21c-1.66 0-3 1.34-3 3v1h-7v4h45v31h4V12H36v-1c0-1.66-1.34-3-3-3Z"/><path d="M49 23v27H8V23h41m4-4H4v35h49V19Z"/></g></svg>