<svg xmlns="http://www.w3.org/2000/svg" viewBox="0 0 64 64"><path fill="none" d="M0 0h64v64H0z"/><g fill="#6e6e6e"><path d="M47.64 13.33H10.52C6.93 13.33 4 16.27 4 19.85v19.62c0 3.59 2.94 6.52 6.52 6.52h6.32l.03 10.5c6.46-.02 11.93-4.5 13.5-10.5h17.27c3.59 0 6.52-2.94 6.52-6.52V19.85c0-3.59-2.94-6.52-6.52-6.52Zm-.48 22.17H12.17v-4.67h35v4.67Zm0-8.17H12.17v-4.67h35v4.67Z"/><path d="M53.62 7.5H16.21c-2.47 0-4.62 1.43-5.68 3.5h43.64v.06c1.33.26 2.33 1.42 2.33 2.82v25.59c2.07-1.06 3.5-3.2 3.5-5.68V13.88c0-3.51-2.87-6.38-6.38-6.38Z"/></g></svg>