<svg xmlns="http://www.w3.org/2000/svg" viewBox="0 0 64 64"><path fill="none" d="M0 0h64v64H0z"/><g fill="#6e6e6e"><ellipse cx="14.98" cy="32.42" rx="6.4" ry="6.42"/><path d="M20.13 40.67H9.86c-3.24 0-5.87 2.69-5.87 6v7.5s2.93 3 10.89 3 11.11-3 11.11-3v-7.5c0-3.31-2.63-6-5.87-6Zm28.93-1.9c3.52 0 6.38-2.86 6.38-6.39s-2.86-6.39-6.38-6.39-6.38 2.86-6.38 6.39 2.86 6.39 6.38 6.39m5.1 1.82H43.95c-3.22 0-5.84 2.67-5.84 5.97v7.46S41.03 57 48.95 57 60 54.02 60 54.02v-7.46c0-3.3-2.61-5.97-5.84-5.97M32 18.2c2.98 0 5.4-2.42 5.4-5.4S34.98 7.4 32 7.4s-5.4 2.42-5.4 5.4 2.42 5.4 5.4 5.4m9 13.58v-6.55c0-2.89-2.15-5.24-4.8-5.24h-8.4c-2.65 0-4.8 2.34-4.8 5.24v6.55s2.4 2.62 8.91 2.62S41 31.78 41 31.78"/></g></svg>