<svg xmlns="http://www.w3.org/2000/svg" viewBox="0 0 64 64"><path fill="none" d="M0 0h64v64H0z"/><path d="M50.71 13h-.42c-.82 0-1.59.2-2.29.54V12.5C48 9.46 45.54 7 42.5 7c-1.02 0-1.97.28-2.78.76A5.498 5.498 0 0 0 34.5 4c-2.74 0-5 2-5.42 4.62-.74-.38-1.56-.62-2.45-.62h-.25c-2.97 0-5.37 2.41-5.37 5.37v19.91l-3.18-6c-1.34-2.52-4.48-3.49-7.03-2.16s-3.53 4.45-2.19 6.98L20.78 55c2.02 4 4.03 5 7.06 4.99h14.97c.07 0 .14.01.21.01h2c7.18 0 11-5.82 11-13V18.29c0-2.92-2.37-5.29-5.29-5.29Z" fill="#6e6e6e"/></svg>