<svg width="16" height="16" xmlns="http://www.w3.org/2000/svg" viewBox="0 0 16 16" shape-rendering="geometricPrecision" fill="#6e6e6e"><path d="M14.186 9.847c0 .756-.626 1.381-1.381 1.384h-5.68l-.204.271c-.036.055-.853 1.103-2.306 1.798a3.7 3.7 0 0 0 .225-1.289l-.002-.119-.018-.662H3.195a1.395 1.395 0 0 1-1.381-1.384V4.489c0-.759.626-1.382 1.381-1.384h9.61a1.39 1.39 0 0 1 1.381 1.384z"/><path d="M12.455 2.215h-8.91A2.546 2.546 0 0 0 1.001 4.76v4.968a2.55 2.55 0 0 0 2.544 2.544h.198c-.097.406-.327.851-.833 1.312L1.333 15l2.097-.321c2.375-.376 3.844-1.808 4.372-2.407h4.654A2.547 2.547 0 0 0 15 9.728V4.76a2.547 2.547 0 0 0-2.545-2.545m1.28 7.513c0 .7-.58 1.28-1.28 1.281H7.189L7 11.262c-.033.05-.79 1.021-2.137 1.666a3.5 3.5 0 0 0 .208-1.194l-.001-.11-.018-.614H3.545a1.29 1.29 0 0 1-1.28-1.281V4.76c0-.703.58-1.28 1.28-1.282h8.909c.7.002 1.28.579 1.28 1.282z"/></svg>