<svg xmlns="http://www.w3.org/2000/svg" viewBox="0 0 64 64"><path fill="none" d="M0 0h64v64H0z"/><path d="M32 4C16.54 4 4 16.54 4 32s12.54 28 28 28 28-12.54 28-28S47.46 4 32 4Zm.59 45.5c3.47 0 6.61-1.19 9.18-3.44l4.91 4.91A23.857 23.857 0 0 1 32.01 56c-13.23 0-24-10.77-24-24 0-5.52 1.88-10.61 5.03-14.68l5.71 5.71c-1.3 2.55-2.05 5.63-2.05 9.17 0 11.34 7.14 17.29 15.9 17.29Zm-8.08-17.55c0-1.03.09-1.99.25-2.89l12.49 12.49c-1.26.86-2.73 1.37-4.56 1.37-4.92 0-8.18-4.04-8.18-10.98Zm3.06-8.68c1.44-1.42 3.29-2.2 5.33-2.2 2.38 0 3.99.98 5.69 2.54l4.2-4.71c-2.28-2.33-5.8-4.4-10-4.4-3.86 0-7.47 1.3-10.29 3.71l-5.18-5.18C21.38 9.88 26.47 8 31.99 8c13.23 0 24 10.77 24 24 0 5.52-1.88 10.61-5.03 14.67l-23.4-23.4Z" fill="#6e6e6e"/></svg>