<svg xmlns="http://www.w3.org/2000/svg" viewBox="0 0 64 64"><path fill="none" d="M0 0h64v64H0z"/><g fill="#6e6e6e"><path d="M24.92 39.18c-3.2 0-5.33-2.65-5.33-7.21s2.39-7.15 5.46-7.15c1.55 0 2.6.65 3.71 1.67l2.73-3.1c-1.48-1.53-3.77-2.89-6.51-2.89-5.66 0-10.48 4.29-10.48 11.64S19.15 43.5 24.85 43.5c2.73 0 5.16-1.12 6.98-3.27L29.1 37.2c-1.08 1.19-2.36 1.97-4.18 1.97Zm21.85-1.97c-1.08 1.19-2.36 1.97-4.18 1.97-3.2 0-5.33-2.65-5.33-7.21s2.39-7.15 5.46-7.15c1.55 0 2.6.65 3.71 1.67l2.73-3.1c-1.48-1.53-3.77-2.89-6.51-2.89-5.66 0-10.48 4.29-10.48 11.64S36.82 43.5 42.52 43.5c2.73 0 5.16-1.12 6.98-3.27l-2.73-3.03Z"/><path d="M32 8c13.23 0 24 10.77 24 24S45.23 56 32 56 8 45.23 8 32 18.77 8 32 8m0-4C16.54 4 4 16.54 4 32s12.54 28 28 28 28-12.54 28-28S47.46 4 32 4Z"/></g></svg>