<svg width="16" height="16" xmlns="http://www.w3.org/2000/svg" viewBox="0 0 16 16" shape-rendering="geometricPrecision" fill="#6e6e6e"><path d="M7.999.97a7 7 0 0 0-2.429.44 1.5 1.5 0 0 0-.912-.309 1.53 1.53 0 0 0-1.502 1.81A7 7 0 0 0 .97 8.003 7.03 7.03 0 1 0 7.999.97m5.589 6.66h-.889a1.53 1.53 0 0 0-1.131-1.027A3.82 3.82 0 0 0 8.5 4.211V2.418a5.61 5.61 0 0 1 5.088 5.212m-3.786 0H8.5V4.988a3.06 3.06 0 0 1 2.242 1.674 1.52 1.52 0 0 0-.94.968m-2.302 0H4.975A3.05 3.05 0 0 1 7.5 4.988zm0 1v2.382A3.06 3.06 0 0 1 5.004 8.63zm1 0h1.322c.146.393.445.712.829.876A3.06 3.06 0 0 1 8.5 11.013zm-4.456-4.6A1.526 1.526 0 0 0 6.18 2.702a5.6 5.6 0 0 1 1.32-.284v1.793A3.815 3.815 0 0 0 4.198 7.63H2.412a5.6 5.6 0 0 1 1.632-3.6M2.43 8.63h1.793a3.82 3.82 0 0 0 3.276 3.159v1.793A5.61 5.61 0 0 1 2.43 8.63m6.07 4.952v-1.793a3.83 3.83 0 0 0 2.979-2.184 1.52 1.52 0 0 0 1.201-.975h.89a5.614 5.614 0 0 1-5.07 4.952"/></svg>