<svg xmlns="http://www.w3.org/2000/svg" viewBox="0 0 64 64"><path fill="none" d="M0 0h64v64H0z"/><g fill="#6e6e6e"><path d="M41 22v4H23V8h18v4h4V4H19v26h26v-8h-4zM26 52v4H8V38h18v4h4v-8H4v26h26v-8h-4zm30 0v4H38V38h18v4h4v-8H34v26h26v-8h-4z"/><path d="m53.77 51-3.97-3.97 3.97-3.98-2.8-2.8L47 44.23l-3.98-3.98-2.8 2.8 3.98 3.97L40.22 51l2.8 2.8L47 49.82l3.97 3.98 2.8-2.8zm-28.78-7.38-2.81-2.81-6.81 6.82-3.57-3.57L9 46.87l6.37 6.37 9.62-9.62zm6.41-22.89c-1.16 0-1.98.82-1.98 2.03s.8 2.03 1.96 2.03h.02c1.2 0 2.01-.87 2.01-2.03-.02-1.2-.8-2.03-2.01-2.03Zm.31-11.46c-1.58 0-2.89.44-3.72.91l.76 2.42c.58-.4 1.47-.67 2.2-.67 1.11.05 1.63.56 1.63 1.34s-.58 1.47-1.29 2.34c-1 1.18-1.38 2.34-1.31 3.47l.02.58h2.96v-.4c-.02-1 .31-1.87 1.14-2.78.85-.93 1.89-2.05 1.89-3.74 0-1.85-1.33-3.47-4.27-3.47Z"/></g></svg>