<svg data-name="Ebene 2" xmlns="http://www.w3.org/2000/svg" viewBox="0 0 64 64"><path fill="none" d="M0 0h64v64H0z" data-name="Viewbox 64x64"/><g fill="#6e6e6e" data-name="people &amp;amp; roles"><path d="M56.91 7.17c-2.95-1.64-6.73-.67-8.43 2.18l-1.03 1.72-1.54 2.58-13.89 23.18.13 11.52 10.56-5.57L56.6 19.6l1.54-2.58 1.03-1.72c1.7-2.84.69-6.48-2.26-8.12ZM40.47 40.55l-1.94 1.03-3.39-1.88-.02-2.1 13.46-22.47 5.34 2.97-13.45 22.46Zm9.66-28 1.03-1.72c.85-1.42 2.74-1.91 4.22-1.09s1.98 2.64 1.13 4.06l-1.03 1.72-5.34-2.97ZM24.08 9.38c3.69 0 6.69 3 6.69 6.69s-3 6.69-6.69 6.69-6.69-3-6.69-6.69 3-6.69 6.69-6.69m0-5.35c-6.65 0-12.05 5.39-12.05 12.05s5.39 12.05 12.05 12.05 12.05-5.39 12.05-12.05S30.74 4.03 24.08 4.03"/><path d="M38.8 47.83v4.06c-2.26 1.15-6.94 2.83-14.92 2.83s-12.3-1.67-14.53-2.82V41.43c0-2.93 2.4-5.31 5.35-5.31h15.02l3.18-5.31H14.71C8.8 30.81 4 35.57 4 41.44v13.29s5.35 5.31 19.88 5.31 20.27-5.31 20.27-5.31v-9.72l-5.35 2.83Z"/></g></svg>