<svg xmlns="http://www.w3.org/2000/svg" viewBox="0 0 64 64"><path fill="none" d="M0 0h64v64H0z"/><path d="M47.94 19.97C47.94 11.15 40.79 4 31.97 4c-6.74 0-12.42 4.21-14.76 10.11-.06.11-.11.22-.15.34-.02.05-.05.1-.07.15h.03c-.1.33-.2.66-.2 1.01 0 1.88 1.52 3.4 3.4 3.4 1.35 0 2.49-.8 3.04-1.94l.04.02c1.46-4.37 6.07-7.3 11.17-5.95 3.04.81 5.52 3.28 6.33 6.32 1.6 6.01-2.74 11.39-8.41 11.66v.03h-7.22c-5.07.01-9.18 4.12-9.18 9.19v17.62c0 2.2 1.78 3.98 3.98 3.98h24.01c2.2 0 3.98-1.78 3.98-3.98V19.97h-.03ZM32.12 56h-.03c-1.57 0-2.67-1.19-2.67-2.76s1.12-2.77 2.7-2.77 2.7 1.12 2.73 2.77c0 1.57-1.09 2.76-2.74 2.76Zm3.68-11.33c-1.12 1.24-1.58 2.43-1.54 3.79v.55h-4.04l-.03-.79c-.09-1.55.43-3.13 1.79-4.74.97-1.18 1.76-2.16 1.76-3.18s-.7-1.77-2.22-1.82c-1 0-2.22.36-3.01.91l-1.03-3.31c1.13-.64 2.92-1.24 5.07-1.24 4.01 0 5.83 2.21 5.83 4.74 0 2.31-1.43 3.82-2.58 5.1Z" fill="#6e6e6e"/></svg>