<svg xmlns="http://www.w3.org/2000/svg" viewBox="0 0 64 64"><path fill="none" d="M0 0h64v64H0z"/><path d="M22.29 44.29v-6.82l-5.05 6.82h5.05Zm21.06-24.57c1.82 0 3.3-1.48 3.3-3.29V7.32c0-1.8-1.47-3.29-3.3-3.29s-3.29 1.48-3.29 3.29v9.1c0 1.82 1.47 3.29 3.29 3.29Zm-22.7 0c1.82 0 3.29-1.48 3.29-3.29V7.32c0-1.8-1.47-3.29-3.29-3.29s-3.29 1.48-3.29 3.29v9.1a3.28 3.28 0 0 0 3.29 3.29ZM50.7 14.6v2.2c0 4.05-3.3 7.35-7.35 7.35S36 20.85 36 16.8v-2.2h-8v2.2c0 4.05-3.31 7.35-7.35 7.35s-7.35-3.3-7.35-7.35v-2.2H4v45.44h56V14.6h-9.3Zm-20.61 34c-.58.39-1.3.53-2.18.54h-.36v2.37c0 .9-.19 1.69-.71 2.25-.47.53-1.15.81-1.88.81h-.04c-.74.01-1.44-.28-1.91-.83-.51-.57-.71-1.35-.71-2.23v-2.37h-7.44c-1.11 0-2.04-.25-2.71-.85-.65-.58-.97-1.42-.97-2.35 0-.28.05-.55.15-.82.09-.27.23-.53.4-.79.15-.24.32-.48.49-.7.16-.22.36-.48.6-.79l8.51-11.38c.57-.76 1.04-1.33 1.45-1.71.46-.44 1.07-.68 1.72-.67.93 0 1.76.28 2.3.91.54.63.76 1.49.76 2.51v11.81h.07c.88 0 1.62.11 2.24.39.77.34 1.13 1.17 1.11 2.04.02.75-.27 1.46-.87 1.87Zm19.07 4.82c-.5.53-1.23.75-2.03.74H35.27c-.89 0-1.7-.27-2.28-.85-.55-.54-.87-1.25-.86-2 0-.54.18-1.11.49-1.79.31-.68.66-1.24 1.07-1.68 1.43-1.48 2.72-2.76 3.88-3.82 1.15-1.06 1.98-1.76 2.51-2.13.85-.6 1.55-1.2 2.1-1.78.54-.59.95-1.18 1.23-1.77.27-.59.4-1.15.4-1.67 0-.59-.13-1.08-.4-1.52-.28-.45-.63-.78-1.1-1.03-.47-.25-.97-.38-1.54-.38-1.22.02-2.06.48-2.8 1.57-.02.03-.23.49-.47 1.18-.26.76-.57 1.38-.95 1.85-.44.55-1.14.81-1.87.8-.67 0-1.31-.24-1.77-.71-.49-.49-.71-1.16-.71-1.89 0-.83.18-1.69.55-2.55.36-.88.91-1.68 1.62-2.38.73-.72 1.64-1.29 2.71-1.72 1.1-.44 2.37-.65 3.79-.65 1.69 0 3.18.26 4.45.82.82.38 1.55.89 2.17 1.56.62.66 1.11 1.41 1.45 2.27.35.86.52 1.76.52 2.68 0 1.43-.36 2.76-1.07 3.94-.68 1.12-1.38 2.02-2.13 2.69-.7.63-1.85 1.6-3.47 2.92-1.59 1.3-2.69 2.31-3.24 2.99v.01h7.14c.91 0 1.69.18 2.29.65.58.44.9 1.14.9 1.89 0 .66-.24 1.29-.7 1.76Z" fill="#6e6e6e"/></svg>