<svg xmlns="http://www.w3.org/2000/svg" viewBox="0 0 64 64"><path fill="none" d="M0 0h64v64H0z"/><path d="M41 56V45.35l11-7.28V18.44c1.19-.69 2-1.97 2-3.45 0-2.21-1.79-4-4-4s-4 1.79-4 4c0 1.48.81 2.75 2 3.44v17.48l-7 4.63V29.56c1.76-.77 3-2.53 3-4.58 0-2.76-2.24-5-5-5s-5 2.24-5 5c0 2.05 1.24 3.81 3 4.58v26.42h-6v-42.4c1.76-.77 3-2.53 3-4.58 0-2.76-2.24-5-5-5s-5 2.24-5 5c0 2.05 1.24 3.81 3 4.58v12.89l-6-3.6v-3.42c1.19-.69 2-1.97 2-3.45 0-2.21-1.79-4-4-4s-4 1.79-4 4c0 1.48.81 2.75 2 3.45v5.69l10 6v16.53L16 41.8v-6.35c1.19-.69 2-1.97 2-3.45 0-2.21-1.79-4-4-4s-4 1.79-4 4c0 1.48.81 2.75 2 3.45v8.76l15 8v3.8H8v4h48v-4H41Z" fill="#6e6e6e"/></svg>