<svg xmlns="http://www.w3.org/2000/svg" viewBox="0 0 64 64"><path fill="none" d="M0 0h64v64H0z"/><path d="M60 14c0-4.42-3.58-8-8-8s-8 3.58-8 8c0 3.73 2.55 6.85 6 7.74v7.34l-9.74 8.24A11.876 11.876 0 0 0 34 34.2V21.75c3.45-.89 6-4.01 6-7.74 0-4.42-3.58-8-8-8s-8 3.58-8 8c0 3.73 2.55 6.85 6 7.74V34.2c-2.41.41-4.57 1.51-6.26 3.12L14 29.08v-7.34c3.45-.89 6-4.01 6-7.74 0-4.42-3.58-8-8-8s-8 3.58-8 8c0 3.73 2.55 6.85 6 7.74v9.19l10.3 8.71 1.01.93C20.48 42.2 20 44.04 20 46c0 6.63 5.37 12 12 12s12-5.37 12-12c0-1.96-.48-3.8-1.31-5.43l1.01-.93L54 30.93v-9.19c3.45-.89 6-4.01 6-7.74Zm-33 0c0-2.76 2.24-5 5-5s5 2.24 5 5-2.24 5-5 5-5-2.24-5-5ZM7 14c0-2.76 2.24-5 5-5s5 2.24 5 5-2.24 5-5 5-5-2.24-5-5Zm25 39c-3.86 0-7-3.14-7-7s3.14-7 7-7 7 3.14 7 7-3.14 7-7 7Zm20-34c-2.76 0-5-2.24-5-5s2.24-5 5-5 5 2.24 5 5-2.24 5-5 5Z" fill="#6e6e6e"/></svg>