<svg data-name="Ebene 2" xmlns="http://www.w3.org/2000/svg" viewBox="0 0 64 64"><path fill="none" d="M0 0h64v64H0z" data-name="Viewbox 64x64"/><g fill="#6e6e6e" data-name="people &amp;amp; roles"><path d="M29.5 7H8.51C6.03 7 4 9.07 4 11.61v11.96c0 2.53 2.03 4.6 4.51 4.6h11.66c.22.3 3.65 4.83 9.83 5.81-2.17-1.99-2.65-4.16-2.6-5.81h2.1c2.48 0 4.5-2.07 4.5-4.6V11.61C34 9.08 31.97 7 29.5 7M17.87 25.44h-.02c-1.14 0-1.93-.88-1.93-2.04s.81-2.04 1.95-2.04 1.96.83 1.98 2.04c0 1.17-.79 2.04-1.98 2.04m2.66-8.37c-.81.92-1.14 1.79-1.12 2.81v.4h-2.92l-.02-.59c-.06-1.14.31-2.31 1.3-3.5.7-.87 1.28-1.59 1.28-2.36s-.51-1.3-1.6-1.34c-.72 0-1.6.27-2.17.67l-.75-2.44c.81-.47 2.11-.92 3.67-.92 2.89 0 4.21 1.63 4.21 3.5 0 1.7-1.03 2.82-1.86 3.77Z"/><circle cx="45" cy="24" r="8"/><path d="M60 53s-4 4-15.15 4S30 53 30 53V43c0-4.42 3.58-8 8-8h14c4.42 0 8 3.58 8 8z"/></g></svg>