<svg xmlns="http://www.w3.org/2000/svg" viewBox="0 0 64 64"><path fill="none" d="M0 0h64v64H0z"/><g fill="#6e6e6e"><path d="M27.56 17.03h-8.11v3.16h3.24l-8.2 23.68h-3.96v3.16h5.63c.3 0 .55-.1.76-.29.2-.19.34-.42.41-.67l2.41-7.24.16-.48h11.26l.16.48 2.41 7.24c.1.28.24.51.43.69s.44.27.76.27h5.62v-3.16h-4.05l-8.92-26.84Zm-2.79 6.68c.26-.75.52-1.7.77-2.83.12.55.25 1.06.38 1.54s.26.9.38 1.27l3.82 11.5h-9.16l3.82-11.48Zm15.66 23.32h4.76v3h-4.76zm0-33h4.76v3h-4.76zm8.23 0h4.76v3h-4.76zm0 33h4.76v3h-4.76zm-3.48-30v18.16h-3.49v3.16h3.49v8.68h3.5v-8.68h3.49v-3.16h-3.49V17.03z"/><path d="M56 8v48H8V8zm4-4H4v56h56z"/></g></svg>