<svg xmlns="http://www.w3.org/2000/svg" viewBox="0 0 64 64"><path fill="none" d="M0 0h64v64H0z"/><path d="M59.91 34.09c0-3.02-5.85-5.65-14.49-7.01-1.6-5.75-7.03-9.99-13.51-9.99s-11.9 4.24-13.51 9.99c-8.64 1.36-14.49 3.99-14.49 7.01s5.84 5.63 14.46 7l-.81 4.6a2 2 0 0 0 1.62 2.32 2 2 0 0 0 2.32-1.62l.84-4.77c.57.06 1.14.12 1.72.17 2.49.21 5.12.32 7.85.32s5.36-.11 7.85-.32c.69-.06 1.36-.12 2.03-.2l.85 4.8a2 2 0 0 0 2.32 1.62 2 2 0 0 0 1.62-2.32l-.82-4.64c8.45-1.38 14.15-3.97 14.15-6.95Zm-28 .89c-5.98 0-10.83-1.54-10.83-3.45 0-1.38.28-2.69.78-3.89 1.6-3.84 5.49-6.56 10.05-6.56s8.45 2.72 10.05 6.56c.5 1.2.78 2.51.78 3.89 0 1.9-4.85 3.45-10.83 3.45Z" fill="#6e6e6e"/></svg>