<svg xmlns="http://www.w3.org/2000/svg" viewBox="0 0 64 64"><path fill="none" d="M0 0h64v64H0z"/><path d="m59.51 27.09-1.11-.47c-1.35-.53-2.3-1.85-2.3-3.39s.95-2.85 2.3-3.38l1.11-.47a.8.8 0 0 0 .43-1.03s0-.01 0-.01l-.8-1.93-1.33-3.24a.782.782 0 0 0-1.03-.43l-1.11.45a3.58 3.58 0 0 1-4-.76c-1.08-1.08-1.33-2.69-.75-4.03l.46-1.12c.16-.4-.03-.86-.43-1.04L45.8 4.09a.78.78 0 0 0-1.03.43l-.48 1.12c-.53 1.35-1.83 2.31-3.36 2.31s-2.83-.96-3.36-2.3l-.47-1.13a.794.794 0 0 0-1.04-.42l-5.15 2.15c-.4.17-.6.63-.43 1.04l.46 1.12c.59 1.33.33 2.93-.75 4.03a3.605 3.605 0 0 1-4 .75s-1.11-.47-1.11-.47c-.4-.16-.87.03-1.04.44l-2.13 5.18c-.17.41.03.88.43 1.05l1.11.47c1.34.53 2.3 1.85 2.3 3.39s-.96 2.85-2.3 3.37l-1.11.49c-.4.15-.59.63-.43 1.03l2.13 5.18c.16.4.63.6 1.03.43l1.12-.46c1.32-.59 2.91-.34 3.99.75 1.08 1.1 1.34 2.69.75 4.03l-.46 1.12c-.16.41.02.87.43 1.04l5.15 2.15c.4.17.87-.03 1.03-.43l.47-1.12c.53-1.35 1.83-2.31 3.36-2.31 1.53 0 2.84.97 3.36 2.3l.48 1.13c.17.41.63.6 1.03.43l5.15-2.15c.4-.17.59-.63.43-1.04l-.46-1.12c-.58-1.34-.33-2.93.75-4.03a3.585 3.585 0 0 1 3.99-.76l1.1.47c.41.17.87-.03 1.04-.43l2.13-5.19c.17-.4-.02-.87-.42-1.04Zm-15.97 2.5c-3.48 1.45-7.48-.21-8.92-3.72-1.44-3.5.21-7.53 3.69-8.98 3.48-1.45 7.48.22 8.92 3.72 1.45 3.51-.22 7.53-3.69 8.98ZM30.63 43.83h-.85c-1.01.02-1.97-.58-2.38-1.57-.41-.99-.15-2.1.58-2.8l.6-.6c.21-.21.21-.57 0-.79l-2.76-2.78a.555.555 0 0 0-.79 0l-.6.6c-.7.73-1.8 1-2.79.59a2.538 2.538 0 0 1-1.55-2.4v-.85c0-.31-.26-.56-.56-.56h-3.9c-.3 0-.56.25-.55.56v.85c.02 1.02-.57 1.98-1.56 2.4-.99.41-2.09.14-2.78-.59l-.6-.6a.543.543 0 0 0-.78 0l-2.75 2.78c-.21.21-.21.56 0 .79l.58.61c.74.71 1 1.81.59 2.8-.41.99-1.38 1.59-2.38 1.56h-.85c-.31.01-.56.27-.56.58v3.93c0 .31.25.56.56.56h.85a2.51 2.51 0 0 1 2.38 1.56c.41 1 .15 2.1-.58 2.8s-.6.61-.6.61c-.21.21-.21.58 0 .78l2.76 2.78c.22.22.57.22.78 0l.6-.59c.69-.74 1.8-1 2.78-.59.99.42 1.58 1.38 1.55 2.4v.84c0 .32.25.56.55.56h3.91c.31 0 .56-.24.56-.56v-.84c-.02-1.02.58-1.98 1.56-2.4.99-.41 2.09-.14 2.79.59l.59.6c.22.22.57.22.78 0l2.76-2.78c.22-.21.22-.57 0-.78l-.59-.62a2.54 2.54 0 0 1-.58-2.8c.41-.99 1.37-1.59 2.38-1.56l.85-.02c.3 0 .55-.25.55-.55V44.4c0-.31-.25-.55-.55-.55Zm-13.04 7.33c-2.64 0-4.77-2.15-4.77-4.8s2.14-4.81 4.77-4.81 4.78 2.16 4.78 4.81-2.14 4.8-4.78 4.8Z" fill="#28497c"/></svg>