<svg xmlns="http://www.w3.org/2000/svg" viewBox="0 0 64 64"><path fill="none" d="M0 0h64v64H0z"/><path d="M50.11 19.36c-1.81.51-5.08 1.58-8.1 2.6-1.87-.77-4.08-1.35-6.52-1.64 0-.03.02-.06.02-.09 0-2.15-1.74-3.89-3.88-3.89s-3.88 1.74-3.88 3.89c0 .03.02.06.02.09-1.18.14-2.29.35-3.35.61-1.45-1.55-3.41-2.95-5.73-3.95-6.16-2.67-12.54-1.63-14.25 2.33-1.71 3.96 1.94 9.25 8.07 12 4.51 2.02 7.43 3 9.4 3.32 2.13.79 4.66 1.32 7.42 1.51-.46 1.49-1.01 3.27-2.42 4.68-.03.03-.03.05-.06.07-4.33.61-7.37 2.01-7.37 3.64 0 2.19 5.45 3.96 12.17 3.96s12.17-1.77 12.17-3.96c0-1.63-3.04-3.03-7.37-3.64-.03-.03-.03-.05-.06-.07-1.41-1.41-1.96-3.19-2.42-4.68 1.29-.09 2.55-.24 3.72-.47h.07c.02 0 .04-.01.07-.02.33-.07.62-.16.94-.23.61-.15 1.21-.3 1.76-.47.27-.09.52-.19.79-.29a15.096 15.096 0 0 0 2.34-1.05c.38-.21.75-.43 1.1-.66.19-.13.39-.24.56-.37 2.25-1.6 4.06-3.67 6.37-6.29 3.85-4.36 8.33-6.22 8.33-6.22s-3.81-2.41-9.89-.71ZM7.6 20.69c1.14-2.63 5.65-3.2 10.07-1.29 2.65 1.15 1.96 1.54 2.35 3.06-2.93 1.46-4.74 3.48-4.74 5.7 0 .47.12.92.28 1.37-.71-.15-1.39-.35-2-.61-4.43-1.92-7.1-5.6-5.96-8.23Z" fill="#28497c"/></svg>