<svg data-name="Ebene 2" xmlns="http://www.w3.org/2000/svg" viewBox="0 0 64 64"><path fill="none" d="M0 0h64v64H0z" data-name="Viewbox 64x64"/><g data-name="VIPS – excercise" fill="#28497c"><path d="m43.7 12.03 11.67 20-11.67 20H20.29l-11.67-20 11.67-20zm2.3-4H18l-14 24 14 24h28l14-24z"/><path d="m32 19.69-18 6.37 7.77 4.19 9.87-4.16 1.63.74-9.85 4.31L32 35.76l18-9.7zM20.5 31.54l-4.17 1.48 3.56 1.93.61.32z"/><path d="M43.5 31.54 32 37.73l-7.4-3.98v3.73l7.4 3.99 11.57-6.24 4.1-2.21zM21.89 43.2l1.5 1.11V31.17l-1.5-.91z"/></g></svg>