<svg xmlns="http://www.w3.org/2000/svg" viewBox="0 0 64 64"><path fill="none" d="M0 0h64v64H0z"/><g fill="#28497c"><path d="M42 28c-3.31 0-6 2.69-6 6 0 .7.13 1.37.35 2h-8.7c.22-.63.35-1.3.35-2 0-3.31-2.69-6-6-6s-6 2.69-6 6 2.69 6 6 6h20c3.31 0 6-2.69 6-6s-2.69-6-6-6Zm-22 6c0-1.1.9-2 2-2s2 .9 2 2-.9 2-2 2-2-.9-2-2Zm22 2c-1.1 0-2-.9-2-2s.9-2 2-2 2 .9 2 2-.9 2-2 2Z"/><path d="M44 12H4v34c0 3.31 2.69 6 6 6h44c3.31 0 6-2.69 6-6V12H44Zm12 34c0 1.1-.9 2-2 2H10c-1.1 0-2-.9-2-2V16h8v4c0 2.21 1.79 4 4 4h24c2.21 0 4-1.79 4-4v-4h8v30Z"/></g></svg>