<svg xmlns="http://www.w3.org/2000/svg" viewBox="0 0 64 64"><path fill="none" d="M0 0h64v64H0z"/><g fill="#28497c"><path d="M32 18.53c9.67 0 18.53 5.13 23.44 13.48-4.9 8.34-13.77 13.47-23.44 13.47S13.46 40.35 8.56 32.01C13.45 23.66 22.32 18.53 32 18.53m0-4.03c-11.58 0-22.16 6.41-27.59 16.73L4 32l.41.77C9.85 43.09 20.42 49.5 32 49.5s22.15-6.41 27.59-16.73L60 32l-.41-.77C54.15 20.91 43.58 14.5 32 14.5Z"/><path d="M32 21c-1.07 0-2.08.2-3.05.48 1.3.92 2.2 2.37 2.2 4.08 0 2.82-2.28 5.1-5.1 5.1-1.87 0-3.43-1.05-4.32-2.54-.46 1.21-.74 2.51-.74 3.88 0 6.08 4.92 11 11 11s11-4.92 11-11-4.92-11-11-11ZM8 56v-8H4v12h12v-4H8zm48-8v8h-8v4h12V48h-4zm0-40v8h4V4H48v4h8zM8 16V8h8V4H4v12h4z"/></g></svg>