<svg xmlns="http://www.w3.org/2000/svg" viewBox="0 0 64 64"><path fill="none" d="M0 0h64v64H0z"/><g fill="#28497c"><path d="M18 4.03c-3.87 0-7 3.13-7 7v42.36c0 3.67 2.97 6.64 6.64 6.64H46v-45.5H18.07c-1.97 0-3.57-1.6-3.57-3.57s1.53-3.43 3.43-3.43H49.5v42.09H53V4.03zm0 14h24.5v38.5H18.01c-1.94 0-3.51-1.57-3.51-3.51V16.79s1.12 1.24 3.5 1.24"/><path d="M23.9 36.7c2.29 0 4.14-1.85 4.14-4.14s-1.85-4.14-4.14-4.14-4.14 1.85-4.14 4.14 1.85 4.14 4.14 4.14m3.22.92h-6.44c-2.03 0-3.68 1.65-3.68 3.68v4.6s1.84 1.84 6.83 1.84 6.97-1.84 6.97-1.84v-4.6c0-2.03-1.65-3.68-3.68-3.68"/><circle cx="33.56" cy="31.18" r="3.68"/><path d="M36.57 36.11h-6.01c-.71 0-1.38.22-1.92.59 1.05.04 1.99.51 2.63 1.25.31.32.91 1.05.91 2.44v5.11c.41.03.85.05 1.32.05 4.79 0 6.5-1.72 6.5-1.72v-4.29c0-1.9-1.54-3.43-3.43-3.43"/></g></svg>