<svg xmlns="http://www.w3.org/2000/svg" viewBox="0 0 64 64"><path fill="none" d="M0 0h64v64H0z"/><path d="M36.49 11.09c-1.53 0-1.91.44-2.57 2.61L23.85 46.15c-.59 1.94-.97 3.16-.97 3.88 0 1.9 1.43 2.73 2.54 2.73 1.53 0 1.91-.44 2.57-2.61l10.07-32.44c.59-1.94.97-3.17.97-3.88 0-1.91-1.42-2.74-2.53-2.74Zm-16.66 4.93c.46-1.45-.42-2.53-1.27-2.89-1.16-.49-1.56-.27-2.6 1.18L6.04 28.02c-.68.95-1.1 1.58-1.39 2.09-.09.13-.16.27-.22.42-.02.04-.06.1-.08.14-.02.06 0 .11-.02.17-.05.18-.07.37-.07.58 0 .21.02.4.07.59.01.06 0 .11.02.16.01.03.06.1.07.13.06.16.14.29.23.43.29.51.71 1.14 1.39 2.09l9.92 13.71c1.04 1.45 1.43 1.66 2.6 1.18.85-.36 1.73-1.45 1.27-2.9-.17-.53-.77-1.35-1.69-2.64L8.92 31.42l9.22-12.74c.92-1.29 1.51-2.11 1.69-2.65Zm40.11 15.39c0-.21-.02-.4-.07-.59-.01-.06 0-.11-.02-.16-.01-.03-.06-.1-.07-.13a2.82 2.82 0 0 0-.23-.42c-.29-.51-.71-1.15-1.39-2.09l-9.92-13.71c-1.04-1.45-1.44-1.66-2.6-1.18-.85.36-1.73 1.44-1.27 2.89.17.54.77 1.36 1.68 2.65l9.22 12.74-9.22 12.75c-.92 1.29-1.51 2.11-1.68 2.64-.46 1.45.42 2.54 1.27 2.9 1.16.48 1.56.27 2.6-1.18l9.92-13.71c.67-.94 1.09-1.57 1.38-2.09.09-.13.17-.28.23-.43.01-.04.06-.1.07-.13.02-.06 0-.1.02-.16.05-.19.07-.38.07-.59Z" fill="#28497c"/></svg>