<svg xmlns="http://www.w3.org/2000/svg" viewBox="0 0 64 64"><path fill="none" d="M0 0h64v64H0z"/><path d="M59.82 25.69c-1.15-3.46-13.45.24-21.22 1.86-2.76.58 2.27-6.64 5.07-11.86 1.63-3.04-.13-4.1-9.75-4.23-9.62-.13-28 5.36-29.75 18.72-1.8 13.72 10.77 24.75 31.16 21.93 24.41-3.38 25.29-24.02 24.49-26.42Zm-49.69 1.86c0-2.09 1.69-3.78 3.78-3.78s3.78 1.69 3.78 3.78-1.69 3.78-3.78 3.78-3.78-1.69-3.78-3.78Zm5.64 16.43c-2.34 0-4.23-1.89-4.23-4.23s1.89-4.23 4.23-4.23S20 37.41 20 39.75s-1.89 4.23-4.23 4.23ZM20 20.05c0-1.7 1.38-3.08 3.08-3.08s3.08 1.38 3.08 3.08-1.38 3.08-3.08 3.08S20 21.75 20 20.05Zm9.55 28.71a4.82 4.82 0 0 1-5.33-4.24 4.82 4.82 0 0 1 4.24-5.33 4.82 4.82 0 0 1 5.33 4.24 4.82 4.82 0 0 1-4.24 5.33Zm13.32-2.31a4.82 4.82 0 0 1-5.33-4.24 4.82 4.82 0 0 1 4.24-5.33 4.82 4.82 0 0 1 5.33 4.24 4.82 4.82 0 0 1-4.24 5.33Zm8.81-9.2c-1.81.21-3.44-1.09-3.64-2.9s1.09-3.44 2.9-3.64a3.28 3.28 0 0 1 3.64 2.9 3.28 3.28 0 0 1-2.9 3.64Z" fill="#28497c"/></svg>