<svg data-name="Ebene 2" xmlns="http://www.w3.org/2000/svg" viewBox="0 0 64 64"><path fill="none" d="M0 0h64v64H0z" data-name="Viewbox 64x64"/><g fill="#28497c" data-name="people &amp;amp; roles"><path d="M4 11.61v11.96c0 2.54 2.03 4.61 4.51 4.61h11.66c.22.3 3.65 4.84 9.83 5.81-2.17-1.99-2.65-4.16-2.6-5.81h2.1c2.48 0 4.5-2.07 4.5-4.61V11.61C34 9.08 31.97 7 29.5 7H8.51C6.03 7 4 9.08 4 11.61m5.37 6.14h18.99v2.71H9.37zm0-5.61h18.99v2.71H9.37z"/><circle cx="45" cy="24" r="8"/><path d="M60 53s-4 4-15.15 4S30 53 30 53V43c0-4.42 3.58-8 8-8h14c4.42 0 8 3.58 8 8z"/></g></svg>