<svg xmlns="http://www.w3.org/2000/svg" viewBox="0 0 64 64"><path fill="none" d="M0 0h64v64H0z"/><path d="M4 11.61v11.96c0 2.54 2.03 4.61 4.51 4.61h11.66c.22.3 3.65 4.84 9.83 5.81-2.17-1.99-2.65-4.16-2.6-5.81h2.1c2.48 0 4.5-2.07 4.5-4.61V11.61C34 9.08 31.97 7 29.5 7H8.51C6.03 7 4 9.08 4 11.61Zm5.37 6.14h18.99v2.71H9.37v-2.71Zm0-5.61h18.99v2.71H9.37v-2.71Zm36.68 20.83c4.65 0 8.4-3.79 8.4-8.48s-3.75-8.48-8.4-8.48-8.4 3.8-8.4 8.48 3.76 8.48 8.4 8.48ZM60 57H32V45.49C32 40.8 35.8 37 40.49 37h11.02C56.2 37 60 40.8 60 45.49V57Z" fill="#28497c"/></svg>