<svg xmlns="http://www.w3.org/2000/svg" viewBox="0 0 64 64"><path fill="none" d="M0 0h64v64H0z"/><g fill="#28497c"><path d="M56.52 6.13c-3.32-1.92-7.57-.78-9.49 2.54l-1.16 2-1.74 3.01-2.8 4.85V7.5H4v51.33h37.33V46.32l14.84-25.69 1.74-3.01 1.16-2c1.92-3.32.78-7.57-2.54-9.49ZM7.5 55.33V11h30.33v13.6L28.5 40.75l.15 13.45 9.19-5.03v6.16H7.5Zm30.51-10.21-2.19 1.2-3.81-2.2-.03-2.45 15.16-26.24 6.02 3.47-15.15 26.22Zm18.04-31.23-1.16 2-6.02-3.47 1.16-2a3.48 3.48 0 0 1 4.75-1.27 3.47 3.47 0 0 1 1.27 4.74Z"/><path d="M11 14.5h23.33v4.67H11zm0 8.17h23.33v4.67H11zm0 8.16h15.17v4.67H11z"/></g></svg>