<svg data-name="Ebene 2" xmlns="http://www.w3.org/2000/svg" viewBox="0 0 64 64"><path fill="none" d="M0 0h64v64H0z" data-name="Viewbox 64x64"/><g fill="#28497c" data-name="media &amp;amp; books"><path d="M18 4.03c-3.87 0-7 3.13-7 7v42.36c0 3.67 2.97 6.64 6.64 6.64H46v-45.5H18.07c-1.97 0-3.57-1.6-3.57-3.57s1.53-3.43 3.43-3.43H49.5v42.09H53V4.03zm0 14h24.5v38.5H18.01c-1.94 0-3.51-1.57-3.51-3.51V16.79s1.12 1.24 3.5 1.24"/><path d="M30.03 34.96c-2.19 0-3.98-1.79-3.98-3.98S27.84 27 30.03 27s3.98 1.79 3.98 3.98-1.79 3.98-3.98 3.98"/><path d="M30.03 29c1.09 0 1.98.89 1.98 1.98s-.89 1.98-1.98 1.98-1.98-.89-1.98-1.98.89-1.98 1.98-1.98m0-4c-3.3 0-5.98 2.68-5.98 5.98s2.68 5.98 5.98 5.98 5.98-2.68 5.98-5.98S33.33 25 30.03 25m-.09 25.9c-4.38 0-6.82-1.07-7.87-1.68V43.6c0-1.83 1.49-3.32 3.32-3.32h9.3c1.83 0 3.31 1.49 3.31 3.32v5.62c-1.04.6-3.53 1.68-8.06 1.68"/><path d="M34.68 42.29c.73 0 1.32.59 1.32 1.32v4.36c-1.14.44-3.09.94-6.06.94s-4.75-.49-5.87-.93v-4.37c0-.73.59-1.32 1.32-1.32h9.3m-.01-4h-9.3c-2.94 0-5.32 2.38-5.32 5.32v6.64s2.66 2.66 9.87 2.66 10.06-2.66 10.06-2.66v-6.64c0-2.94-2.38-5.32-5.32-5.32Z"/></g></svg>