<svg xmlns="http://www.w3.org/2000/svg" viewBox="0 0 64 64"><path fill="none" d="M0 0h64v64H0z"/><path d="M18 4v49h21.71c1.87 0 3.67-.75 4.99-2.09l6.29-6.39A6.99 6.99 0 0 0 53 39.61V4H18Zm24.5 43.99v-5.5h5.41l-5.41 5.5Zm6.89-12.5c0 1.93-1.57 3.5-3.5 3.5H39v6.89c0 1.93-1.57 3.5-3.5 3.5H21.61V7.61h27.78V35.5ZM11 40h4v4h-4zm0 8h4v4h-4zm0-16h4v4h-4zm0-7h4v4h-4zm0-7h4v4h-4zm0 38v4h4v-4h-4zm0-41h4v-4h-4v4zm8 41h4v4h-4zm8 0h4v4h-4zm8 0h4v4h-4zm8 4h1.04A2.96 2.96 0 0 0 47 57.04V56h-4v4Z" fill="#28497c"/></svg>