<svg xmlns="http://www.w3.org/2000/svg" viewBox="0 0 64 64"><path fill="none" d="M0 0h64v64H0z"/><g fill="#28497c"><path d="M24.5 20.91h-3v6h3l4.5 3h1.5v-12H29l-4.5 3zm10.11-4.03-1.97 1.97a7.068 7.068 0 0 1 0 9.98l1.97 1.97c3.84-3.84 3.84-10.07 0-13.92Z"/><path d="m38.15 13.33-1.97 1.97c2.36 2.36 3.53 5.44 3.54 8.53 0 3.09-1.18 6.17-3.54 8.53l1.97 1.97c5.8-5.8 5.8-15.2 0-21Z"/><path d="M12 4v56h27c1.87 0 3.21-.75 4.53-2.09l6.29-6.39C51.11 50.21 52 48.84 52 47V4H12Zm4 4h32v35c0 1.93-1.34 3-3.28 3h-6.89v6.89c0 1.93-.9 3.11-2.83 3.11H16V8Zm25.33 47v-5.5h5.41L41.33 55Z"/></g></svg>