<svg xmlns="http://www.w3.org/2000/svg" viewBox="0 0 64 64"><path fill="none" d="M0 0h64v64H0z"/><g fill="#28497c"><path d="M35.5 20.33c1.93 0 3.5-1.57 3.5-3.5s-1.57-3.5-3.5-3.5-3.5 1.57-3.5 3.5 1.57 3.5 3.5 3.5Z"/><path d="M12 4v56h27c1.87 0 3.21-.75 4.53-2.09l6.29-6.39C51.11 50.21 52 48.84 52 47V4H12Zm36 4v22.38L45.89 29l-5.14-3.37-6.78 5.74-10.75-11.03-5.11 6.19L16 29.08V8h32Zm-6.67 47v-5.5h5.41L41.33 55Zm3.39-9h-6.89v6.89c0 1.93-.9 3.11-2.83 3.11H16V37.83h32V43c0 1.93-1.34 3-3.28 3Z"/></g></svg>