<svg xmlns="http://www.w3.org/2000/svg" viewBox="0 0 64 64"><path fill="none" d="M0 0h64v64H0z"/><g fill="#28497c"><path d="M32 21c-7.18 0-13 5.82-13 13.01C19 41.19 24.82 47 32 47s13-5.82 13-12.99S39.18 21 32 21Zm.93 9.59c.91-.04 1.85-.12 2.77-.23.08.84.13 1.75.15 2.71h-2.92v-2.49Zm0-1.85v-5.06c.55.05 1.09.15 1.61.28.25.83.64 2.41.95 4.56-.85.1-1.72.18-2.56.22Zm-1.85 0c-.82-.04-1.68-.12-2.53-.22.3-2.18.7-3.75.95-4.56.52-.13 1.04-.23 1.59-.27v5.06Zm0 1.85v2.49h-2.89c.02-.97.07-1.88.15-2.72.92.11 1.85.2 2.74.23Zm-4.74 2.49h-4.66c.12-1.32.49-2.56 1.05-3.69.93.2 2.28.47 3.77.71-.08.92-.14 1.91-.16 2.98Zm0 1.85c.02 1.13.08 2.18.17 3.16-1.46.23-2.77.5-3.7.7-.61-1.17-1.01-2.48-1.13-3.86h4.66Zm1.85 0h2.89v2.68c-.9.03-1.83.12-2.74.22-.08-.9-.14-1.87-.16-2.9Zm2.89 4.53v4.87c-.56-.05-1.11-.15-1.64-.29-.25-.87-.61-2.38-.89-4.37.84-.1 1.7-.18 2.53-.21Zm1.85 0c.83.04 1.7.12 2.57.23-.28 2-.63 3.48-.89 4.34-.54.14-1.1.25-1.68.3v-4.87Zm0-1.85v-2.68h2.92c-.02 1.05-.07 2.02-.15 2.92-.93-.11-1.87-.2-2.77-.24Zm4.77-2.68h4.62c-.12 1.39-.52 2.69-1.14 3.87-.92-.2-2.22-.46-3.65-.69.09-.97.15-2.03.17-3.18Zm0-1.85c-.03-1.06-.08-2.05-.17-2.97 1.49-.24 2.82-.51 3.75-.71.56 1.13.93 2.37 1.05 3.68H37.7Zm2.54-5.35c-.81.17-1.82.37-2.92.54-.2-1.42-.43-2.61-.65-3.51 1.4.71 2.62 1.73 3.57 2.97Zm-12.87-2.98c-.22.9-.46 2.08-.65 3.51-1.1-.18-2.11-.37-2.93-.54.95-1.24 2.17-2.26 3.58-2.97Zm-3.47 15.7c.8-.17 1.77-.35 2.82-.52.18 1.32.4 2.44.61 3.32a10.25 10.25 0 0 1-3.43-2.8Zm12.84 2.77c.21-.87.42-1.96.6-3.27 1.03.17 1.99.35 2.78.51-.91 1.14-2.06 2.09-3.37 2.76Z"/><path d="M34 14v-2c0-1.66-1.34-3-3-3H17c-1.66 0-3 1.34-3 3v2H4v40h56V14H34Zm22 36H8V18h48v32Z"/></g></svg>