<svg xmlns="http://www.w3.org/2000/svg" viewBox="0 0 64 64"><path fill="none" d="M0 0h64v64H0z"/><g fill="#28497c"><path d="M34.21 25.92c-1.55-.86-3.53-.35-4.42 1.14l-.54.9-.81 1.35-7.28 12.15.07 6.04 5.54-2.92 7.28-12.15.81-1.35.54-.9c.89-1.49.36-3.4-1.18-4.26Zm-8.62 17.5-1.02.54-1.78-.99v-1.1l7.05-11.78 2.8 1.56-7.05 11.77Zm5.06-14.68.54-.9c.45-.74 1.44-1 2.21-.57s1.04 1.39.59 2.13l-.54.9-2.8-1.56Z"/><path d="M33 8H21c-1.66 0-3 1.34-3 3v1h-7v4h45v31h4V12H36v-1c0-1.66-1.34-3-3-3Z"/><path d="M49 23v27H8V23h41m4-4H4v35h49V19Z"/></g></svg>