<svg xmlns="http://www.w3.org/2000/svg" viewBox="0 0 64 64"><path fill="none" d="M0 0h64v64H0z"/><g fill="#28497c"><path d="M27.57 28.63c0-2.45 1.98-4.42 4.43-4.42s4.42 1.98 4.42 4.42v2.2h2.71v-2.2c0-3.94-3.19-7.13-7.13-7.13s-7.13 3.19-7.13 7.13v2.2h2.71v-2.2Zm-5.02 4.08V46.5h18.9V32.71h-18.9Zm11.11 9.19c0 .92-.74 1.66-1.66 1.66s-1.67-.74-1.67-1.66v-4.58c0-.91.75-1.66 1.66-1.66s1.66.75 1.66 1.66v4.58Z"/><path d="M34 14v-2c0-1.66-1.34-3-3-3H17c-1.66 0-3 1.34-3 3v2H4v40h56V14H34Zm22 36H8V18h48v32Z"/></g></svg>