<svg xmlns="http://www.w3.org/2000/svg" viewBox="0 0 64 64"><path fill="none" d="M0 0h64v64H0z"/><g fill="#28497c"><path d="M18 4.03c-3.87 0-7 3.13-7 7v42.36c0 3.67 2.97 6.64 6.64 6.64H46v-45.5H18.07c-1.97 0-3.57-1.6-3.57-3.57s1.53-3.43 3.43-3.43H49.5v42.09H53V4.03H18Zm0 14h24.5v38.5H18.01c-1.94 0-3.51-1.57-3.51-3.51V16.79s1.12 1.24 3.5 1.24Z"/><path d="M30.07 28.33c2.03 0 3.67-1.65 3.67-3.66S32.1 21 30.07 21s-3.67 1.64-3.67 3.67 1.64 3.66 3.67 3.66Zm3.62 21.09V32.08H22.71v2.73h3.6v14.61H22.7v3.63h14.61v-3.63h-3.62Z"/></g></svg>