<svg xmlns="http://www.w3.org/2000/svg" viewBox="0 0 64 64"><path fill="none" d="M0 0h64v64H0z"/><g fill="#28497c"><path d="M14.17 29.27c3.97 0 7.17-3.22 7.17-7.19s-3.2-7.18-7.17-7.18S7 18.12 7 22.08s3.21 7.19 7.17 7.19Zm3.26 3.41h-6.54C7.09 32.68 4 35.8 4 39.61v9h20.34v-9c0-3.81-3.11-6.93-6.91-6.93Zm32.4 5.1c3.97 0 7.17-3.22 7.17-7.18s-3.2-7.19-7.17-7.19-7.16 3.22-7.16 7.19 3.21 7.18 7.16 7.18Zm3.26 3.41h-6.54c-3.8 0-6.88 3.12-6.88 6.92v9h20.34v-9c0-3.8-3.11-6.92-6.91-6.92ZM30.02 21.32c3.97 0 7.17-3.21 7.17-7.19s-3.2-7.18-7.17-7.18-7.16 3.22-7.16 7.18 3.21 7.19 7.16 7.19Z"/><path d="M40.19 40.66v-9c0-3.8-3.11-6.92-6.91-6.92h-6.54c-3.7 0-6.71 2.96-6.86 6.65 3.54 1.06 6.15 4.33 6.15 8.23v1.05h14.15Z"/></g></svg>