<svg xmlns="http://www.w3.org/2000/svg" viewBox="0 0 64 64"><path fill="none" d="M0 0h64v64H0z"/><g fill="#28497c"><path d="M12.5 32.4c0-6.48 3.24-9.4 6.75-9.4 2.21 0 3.82.97 4.88 2.09l-2.04 2.4c-.57-.67-1.61-1.25-2.59-1.25-1.94 0-3.47 1.54-3.47 6.16 0 4.31 1.3 5.58 2.71 5.58 1.14 0 2.1-.84 2.1-2.8 0-1.83-.93-2.53-2.19-2.53-.87 0-1.84.5-2.6 1.87l-.17-2.62c.86-1.31 2.42-2.08 3.51-2.08 2.86 0 4.97 1.69 4.97 5.36s-2.53 5.81-5.55 5.81c-3.24 0-6.31-2.51-6.31-8.6Zm13.78-.48c0-5.9 2.38-8.92 5.97-8.92s5.97 3.04 5.97 8.92S35.84 41 32.25 41s-5.97-3.18-5.97-9.08Zm8.29 0c0-4.73-1.01-5.82-2.32-5.82s-2.31 1.09-2.31 5.82 1.01 5.97 2.31 5.97 2.32-1.24 2.32-5.97Zm5.73 4.99c0-2.86 2.19-4.4 7.34-4.97-.08-1.18-.65-1.96-2.06-1.96-1.09 0-2.19.48-3.45 1.22l-1.37-2.64c1.65-1.05 3.52-1.78 5.57-1.78 3.33 0 5.18 1.98 5.18 6.13v7.75h-3.15l-.28-1.39h-.1c-1.1 1-2.33 1.72-3.79 1.72-2.38 0-3.89-1.8-3.89-4.09Zm7.34-.18v-2.37c-2.75.39-3.64 1.2-3.64 2.22 0 .87.58 1.3 1.5 1.3s1.46-.45 2.15-1.16Z"/><path d="M32 8c13.23 0 24 10.77 24 24S45.23 56 32 56 8 45.23 8 32 18.77 8 32 8m0-4C16.54 4 4 16.54 4 32s12.54 28 28 28 28-12.54 28-28S47.46 4 32 4Z"/></g></svg>