<svg xmlns="http://www.w3.org/2000/svg" viewBox="0 0 64 64"><path fill="none" d="M0 0h64v64H0z"/><path d="M38.42 50.67H25.59c-.97 0-1.75.78-1.75 1.75s.78 1.75 1.75 1.75h12.83c.97 0 1.75-.78 1.75-1.75s-.78-1.75-1.75-1.75Zm-1.17 5.83h-10.5c-.97 0-1.75.78-1.75 1.75S25.78 60 26.75 60h10.5c.97 0 1.75-.78 1.75-1.75s-.78-1.75-1.75-1.75ZM29.71 4.13c-9 1.01-16.3 8.22-17.39 17.21-1 8.16 2.97 15.49 9.29 19.39.67.42 1.06 1.17 1.06 1.97v3.89c0 .97.78 1.75 1.75 1.75h15.17c.97 0 1.75-.78 1.75-1.75v-3.91c0-.79.39-1.54 1.06-1.95 5.67-3.49 9.44-9.75 9.44-16.89 0-11.71-10.14-21.04-22.12-19.71ZM19.54 20.76a12.83 12.83 0 0 0-.08 5.77 1.751 1.751 0 0 1-1.71 2.12c-.81 0-1.53-.56-1.71-1.38-.24-1.13-.37-2.28-.37-3.44 0-1.32.16-2.64.48-3.91a1.75 1.75 0 1 1 3.4.84Zm20-9.53c-.39.88-1.43 1.28-2.31.88C35.58 11.37 33.82 11 32 11c-4.18 0-8.11 2.05-10.51 5.47-.34.49-.88.75-1.44.75-.35 0-.7-.1-1-.32-.79-.55-.98-1.65-.43-2.44C21.67 10.1 26.68 7.49 32 7.49c2.31 0 4.55.48 6.65 1.42.88.39 1.28 1.43.89 2.31Z" fill="#28497c"/></svg>