<svg xmlns="http://www.w3.org/2000/svg" viewBox="0 0 64 64"><path fill="none" d="M0 0h64v64H0z"/><g fill="#28497c"><path d="M18 4.03c-3.87 0-7 3.13-7 7v42.36c0 3.67 2.97 6.64 6.64 6.64H46v-45.5H18.07c-1.97 0-3.57-1.6-3.57-3.57s1.53-3.43 3.43-3.43H49.5v42.09H53V4.03H18Zm0 14h24.5v38.5H18.01c-1.94 0-3.51-1.57-3.51-3.51V16.79s1.12 1.24 3.5 1.24Z"/><path d="M28.27 44.91c-2.31 0-3.95 1.64-3.95 4.04S25.92 53 28.23 53h.04c2.4 0 4.01-1.73 4.01-4.05-.04-2.39-1.6-4.04-4.01-4.04ZM28.9 22c-3.16 0-5.78.89-7.43 1.83l1.52 4.84c1.15-.8 2.93-1.33 4.41-1.33 2.22.09 3.25 1.11 3.25 2.67s-1.16 2.94-2.59 4.67c-2 2.36-2.75 4.67-2.62 6.94l.04 1.16h5.92v-.8c-.04-2 .62-3.75 2.27-5.56 1.7-1.88 3.78-4.1 3.78-7.48 0-3.69-2.67-6.94-8.54-6.94Z"/></g></svg>