<svg xmlns="http://www.w3.org/2000/svg" viewBox="0 0 64 64"><path fill="none" d="M0 0h64v64H0z"/><path d="M18 4.03c-3.87 0-7 3.13-7 7v42.36c0 3.67 2.97 6.64 6.64 6.64H46v-45.5H18.07c-1.97 0-3.57-1.6-3.57-3.57s1.53-3.43 3.43-3.43H49.5v42H53V4.03H18ZM28.08 55h-.04c-2.51 0-4.23-1.87-4.23-4.38s1.78-4.37 4.28-4.37 4.29 1.78 4.34 4.37c0 2.51-1.73 4.38-4.34 4.38Zm.68-33.55c6.35 0 9.24 3.51 9.24 7.51 0 3.66-2.26 6.07-4.09 8.1-1.78 1.96-2.5 3.85-2.46 6.02v.86h-6.4L25 42.69c-.14-2.46.67-4.96 2.84-7.51 1.54-1.87 2.8-3.42 2.8-5.06s-1.11-2.79-3.52-2.89c-1.6 0-3.52.58-4.77 1.44l-1.64-5.24c1.78-1.01 4.62-1.98 8.04-1.98Z" fill="#28497c"/></svg>