<svg xmlns="http://www.w3.org/2000/svg" viewBox="0 0 64 64"><path fill="none" d="M0 0h64v64H0z"/><path d="m60 53.07-.47-19.12c.08-.32.09-.79.09-1.47v-3.86c0-2.89.24-12.79.24-16.17s-2.9-.72-4.1 3.62c-1.21 4.35-3.14 18.1.24 18.34.23.02.4.03.6.05l-.44 18.6h3.83ZM12.87 22.01c0-2.45-.84-10.94-1.67-10.94s-.31 10.94-.91 10.94-1.15-10.77-1.83-10.77h-.04c-.69 0-1.22 10.77-1.83 10.77s-.08-10.94-.91-10.94S4 19.56 4 22.01c0 2.23.95 4.08 3.01 4.4l-.49 26.67h3.83l-.51-26.67c2.07-.32 3.03-2.16 3.03-4.4Zm19.97-8.34c-10.51 0-19.04 8.52-19.04 19.04s8.53 19.04 19.04 19.04 19.04-8.52 19.04-19.04-8.52-19.04-19.04-19.04Zm0 32.37c-7.36 0-13.33-5.97-13.33-13.33s5.97-13.33 13.33-13.33 13.33 5.97 13.33 13.33-5.97 13.33-13.33 13.33Z" fill="#28497c"/></svg>