<svg xmlns="http://www.w3.org/2000/svg" viewBox="0 0 64 64"><path fill="none" d="M0 0h64v64H0z"/><path d="M25.8 59.21c15.01 3.64 30.16-5.59 33.8-20.59l-8.1-1.97c-2.56 10.53-13.19 17.02-23.73 14.46-10.55-2.56-17.03-13.2-14.48-23.74 2.56-10.56 13.19-17.04 23.74-14.48l1.96-8.1c-15.02-3.64-30.15 5.6-33.8 20.62C1.55 40.42 10.77 55.56 25.8 59.2Zm2.74-23.34c2.13 2.13 5.59 2.13 7.72 0s2.13-5.59 0-7.71c-2.13-2.13-5.59-2.14-7.72 0s-2.13 5.59 0 7.72Zm18.8-13.36c-5.24-8.24-16.19-10.68-24.43-5.44l2.83 4.45c5.78-3.68 13.47-1.97 17.16 3.82 3.69 5.79 1.97 13.48-3.81 17.16s-13.48 1.98-17.17-3.81l-4.45 2.83c5.25 8.25 16.19 10.68 24.44 5.43 8.24-5.24 10.68-16.19 5.43-24.43Zm-5.75 14.52c2.77-5.07.91-11.43-4.16-14.21l-1.5 2.74a7.352 7.352 0 0 1 2.92 9.98 7.367 7.367 0 0 1-9.98 2.93 7.367 7.367 0 0 1-2.93-9.98l-2.73-1.5c-2.77 5.07-.9 11.44 4.17 14.21 5.07 2.77 11.43.91 14.21-4.17Z" fill="#28497c"/></svg>