<svg xmlns="http://www.w3.org/2000/svg" viewBox="0 0 64 64"><path fill="none" d="M0 0h64v64H0z"/><g fill="#28497c"><path d="M49 21h-6c-3.86 0-7.25 1.99-9.21 5h5.63c1.05-.63 2.27-1 3.59-1h6c3.86 0 7 3.14 7 7s-3.14 7-7 7h-6c-1.36 0-2.63-.4-3.71-1.07h-5.55c1.96 3.05 5.37 5.07 9.26 5.07h6c6.08 0 11-4.92 11-11s-4.92-11-11-11ZM21 39h-6c-3.86 0-7-3.14-7-7s3.14-7 7-7h6c1.31 0 2.54.37 3.59 1h5.63c-1.96-3.01-5.35-5-9.21-5h-6c-6.08 0-11 4.92-11 11s4.92 11 11 11h6c3.86 0 7.25-1.99 9.21-5h-5.63c-1.05.63-2.27 1-3.59 1Z"/><path d="M16 32c0 2.21 1.79 4 4 4h24c2.21 0 4-1.79 4-4s-1.79-4-4-4H20c-2.21 0-4 1.79-4 4Z"/></g></svg>