<svg data-name="Ebene 2" xmlns="http://www.w3.org/2000/svg" viewBox="0 0 64 64"><path fill="none" d="M0 0h64v64H0z" data-name="Viewbox 64x64"/><g fill="#28497c" data-name="people &amp;amp; roles"><path d="M30.74 4.04v3.94c4.72 0 8.97 1.91 12.06 4.99 3.09 3.1 4.99 7.35 4.99 12.07h3.94c0-11.6-9.4-20.99-20.99-21m0 7.08v3.93c5.51.01 9.97 4.48 9.98 9.99h3.93c0-7.69-6.23-13.91-13.91-13.91Z"/><circle cx="28" cy="27" r="8"/><path d="M43 56s-4 4-15.15 4S13 56 13 56V46c0-4.42 3.58-8 8-8h14c4.42 0 8 3.58 8 8z"/></g></svg>