<svg xmlns="http://www.w3.org/2000/svg" viewBox="0 0 64 64"><path fill="none" d="M0 0h64v64H0z"/><g fill="#28497c"><path d="M43.36 46.04c-.39 0-.79.1-1.16.3a16.183 16.183 0 0 1-7.86 2.03c-9.61 0-17.29-8.31-16.24-18.14.77-7.2 6.38-13.14 13.52-14.31a16.518 16.518 0 0 1 6.84.31c.2.05.41.08.61.08 1.35 0 2.48-1.18 2.31-2.62l-1.21-9.7H4v56h43.17l-1.49-11.93c-.15-1.23-1.19-2.03-2.32-2.03ZM7.5 56.5v-49h29.58l.62 4.99c-1.11-.19-2.24-.29-3.37-.29s-2.19.09-3.28.27c-8.74 1.43-15.5 8.58-16.44 17.39-.6 5.63 1.21 11.25 4.96 15.43 3.76 4.18 9.14 6.58 14.76 6.58 2.78 0 5.54-.59 8.07-1.73l.79 6.36H7.5Z"/><path d="m43.67 4 1.94 15.52c.26 2.06-2.07 3.35-3.75 2.12-2.42-1.76-5.49-2.7-8.78-2.38-6.29.6-11.31 5.93-11.57 12.25-.29 7.33 5.56 13.36 12.82 13.36 3.97 0 7.51-1.8 9.87-4.63 1.32-1.59 3.88-.9 4.14 1.15C49.36 49.52 50.67 60 50.67 60H60V4H43.67Z"/></g></svg>