<svg xmlns="http://www.w3.org/2000/svg" viewBox="0 0 64 64"><path fill="none" d="M0 0h64v64H0z"/><path d="M45.71 29.25c2.07.02 3.94.8 5.37 2.06.75.66 1.92.12 1.92-.88V19H39.68c-1 0-1.54-1.17-.88-1.93a7.718 7.718 0 0 0 1.94-5.02c.05-4.4-3.56-8-8.07-8.04-4.5-.04-8.2 3.49-8.24 7.88-.02 1.99.71 3.8 1.94 5.19.66.75.11 1.92-.88 1.92H11v41.01h8.74c.99 0 1.54-1.17.89-1.91a7.822 7.822 0 0 1-1.95-5.24c.04-4.4 3.73-7.93 8.24-7.89 4.51.04 8.12 3.65 8.07 8.05-.02 1.94-.75 3.7-1.95 5.07-.66.75-.12 1.92.88 1.92h19.09V44.02c0-.99-1.17-1.55-1.91-.89a8.276 8.276 0 0 1-5.55 2.05c-4.51-.04-8.12-3.64-8.08-8.04.04-4.4 3.74-7.93 8.24-7.89Z" fill="#28497c"/></svg>