<svg xmlns="http://www.w3.org/2000/svg" viewBox="0 0 64 64"><path fill="none" d="M0 0h64v64H0z"/><path d="M55.18 20.15 43.85 8.81c-3.11-3.11-7.22-4.82-11.57-4.82s-8.2 1.63-11.16 4.6L8.6 21.11c-6.2 6.21-6.1 16.4.22 22.73l11.34 11.33c3.11 3.11 7.22 4.82 11.57 4.82s8.19-1.63 11.16-4.6l12.52-12.52c3.01-3.01 4.65-7.04 4.6-11.34-.05-4.28-1.76-8.33-4.82-11.39ZM52.5 39.97l-3.51 3.51c2.22-3.28 3.53-7.23 3.53-11.48 0-4.86-1.7-9.32-4.53-12.84l-6.05 6.05c1.32 1.93 2.1 4.27 2.1 6.79s-.78 4.86-2.1 6.79l5.87 5.87-3.15 3.15-5.87-5.87c-1.93 1.32-4.27 2.1-6.79 2.1s-4.86-.78-6.79-2.1l-6.05 6.05c3.52 2.83 7.98 4.53 12.84 4.53 4.26 0 8.21-1.3 11.48-3.53l-3.51 3.51c-4.46 4.47-12.34 4.35-16.92-.22L11.71 40.95c-4.72-4.73-4.83-12.32-.22-16.92L15 20.52a20.43 20.43 0 0 0-3.53 11.49c0 4.86 1.7 9.32 4.52 12.84l6.05-6.05c-1.32-1.93-2.1-4.27-2.1-6.79s.78-4.86 2.1-6.79l-5.87-5.87 3.15-3.15 5.87 5.87c1.93-1.32 4.27-2.1 6.79-2.1s4.86.78 6.79 2.1l6.05-6.05a20.419 20.419 0 0 0-12.84-4.53c-4.26 0-8.21 1.3-11.49 3.53L24 11.51c2.19-2.19 5.12-3.39 8.25-3.39s6.33 1.29 8.66 3.62l11.33 11.34c2.3 2.3 3.58 5.33 3.62 8.53.04 3.18-1.17 6.16-3.39 8.39Z" fill="#28497c"/></svg>