<svg width="16" height="16" xmlns="http://www.w3.org/2000/svg" viewBox="0 0 16 16" shape-rendering="geometricPrecision" fill="#28497c"><path d="M14.307 9.69c.143-.537.227-1.1.227-1.682a6.525 6.525 0 0 0-6.525-6.525c-.581 0-1.142.084-1.678.227A3.321 3.321 0 0 0 1.71 6.329a6.5 6.5 0 0 0-.226 1.68 6.525 6.525 0 0 0 6.525 6.525 6.5 6.5 0 0 0 1.683-.229 3.322 3.322 0 0 0 4.615-4.615m-3.332 1.299a2.4 2.4 0 0 1-.63.832 3.1 3.1 0 0 1-1.002.568 3.9 3.9 0 0 1-1.333.209 4.5 4.5 0 0 1-1.72-.338 4.5 4.5 0 0 1-1.464-.96l.908-1.07a4 4 0 0 0 1.083.725 2.9 2.9 0 0 0 1.232.277q.744 0 1.145-.311a1 1 0 0 0 .399-.826.96.96 0 0 0-.102-.461 1 1 0 0 0-.283-.332 2.5 2.5 0 0 0-.44-.264 10 10 0 0 0-.556-.242l-1.205-.529a4.4 4.4 0 0 1-.65-.34 2.6 2.6 0 0 1-.576-.487 2.26 2.26 0 0 1-.562-1.531q0-.527.224-.983.223-.452.616-.79c.262-.227.573-.4.934-.527q.542-.19 1.192-.19.785-.001 1.503.305t1.232.818l-.812 1.002a3.7 3.7 0 0 0-.887-.555 2.6 2.6 0 0 0-1.036-.203q-.636 0-1.009.277a.9.9 0 0 0-.373.766q0 .255.116.439.115.183.312.325.195.144.453.258c.171.078.347.15.528.225l1.192.5q.393.162.724.381.332.216.569.498.237.286.366.658.128.372.128.861 0 .54-.216 1.015"/></svg>