<svg xmlns="http://www.w3.org/2000/svg" viewBox="0 0 64 64"><path fill="none" d="M0 0h64v64H0z"/><path d="M49.24 45.82c4.32 7.78 8.69 14.76 10.2 14.14 1.35-.55.07-6.83-1.94-14.14l-1.47-5.15c-2.85-9.55-6.18-19.05-6.18-19.05-1.21-2.98-4.63-4.42-7.64-3.23s-4.47 4.57-3.27 7.55c0 0 3.42 7.05 7.5 14.73l2.79 5.15ZM34.03 8.07c1.37 1.54 1.06 3.34.96 4.58 0 .06 0 .09-.02.22-.01.42-.03.84.09 1.26.64 2.27 3.02 3.6 5.32 2.97 2.3-.63 3.64-2.99 3-5.26 0 0-1.08-3.83-4.72-6.31-3.2-2.17-8.39-1.76-8.44-.49-.06 1.42 2.05 1.04 3.81 3.02ZM13.26 20.49c1.44-.1 2.46-2.3 2.28-4.91s-1.5-4.66-2.94-4.56-2.46 2.3-2.28 4.91c.18 2.62 1.5 4.66 2.94 4.56Zm8.97-5.63c1.14-.54 1.18-2.84.07-5.13s-2.93-3.72-4.07-3.19c-1.14.54-1.18 2.84-.07 5.13 1.1 2.3 2.93 3.72 4.07 3.19ZM11.76 33.39c3.37 1.38 7.32 1.56 10.96.45 3.62-1.14 6.85-3.69 8.58-6.93 1.77-3.19 2.35-6.81 1.59-10.13-2.72 6.16-6.48 10.68-11.74 12.16-2.56.86-5.4.98-8.28.59-2.9-.4-5.78-1.43-8.86-2.93 1.54 3.03 4.37 5.49 7.76 6.79Z" fill="#28497c"/></svg>