<svg viewBox="0 0 100 100" xmlns="http://www.w3.org/2000/svg" xml:space="preserve" fill-rule="evenodd" clip-rule="evenodd" stroke-linejoin="round" stroke-miterlimit="2"><path d="M71.542 41.801C68.868 34.547 60.247 27.741 50 27.741s-18.868 6.806-21.542 14.06c-13.45 1.749-22.554 5.076-22.554 8.9 0 3.991 9.925 7.436 24.354 9.114l-2.37 6.615-.016-.002h-.003a2.93 2.93 0 0 0-2.917 2.917 2.93 2.93 0 0 0 2.917 2.916 2.93 2.93 0 0 0 2.917-2.916v-.001c0-.615-.232-1.155-.557-1.623l5.312-7.39c4.533.365 9.384.574 14.458.574 5.075 0 9.925-.209 14.458-.574l5.313 7.39c-.326.468-.558 1.009-.558 1.623a2.93 2.93 0 0 0 2.914 2.915h.003a2.93 2.93 0 0 0 2.914-2.914v-.001a2.93 2.93 0 0 0-2.917-2.917l-.017.003-2.37-6.614c14.432-1.676 24.357-5.123 24.357-9.114 0-3.824-9.105-7.152-22.554-8.899zm-3.128 4.94c0 .018-.04.32-.134.523-1.088 1.99-8.848 3.532-18.28 3.532s-17.192-1.542-18.28-3.532a2 2 0 0 1-.134-.523c-.003-.06-.009-.084-.009-.158 0-5.936 7.912-15.085 18.423-15.085s18.422 9.15 18.422 15.085c0 .074-.005.098-.01.158z" fill="#28497c" fill-rule="nonzero"/></svg>