<svg xmlns="http://www.w3.org/2000/svg" viewBox="0 0 64 64"><path fill="none" d="M0 0h64v64H0z"/><g fill="#28497c"><circle cx="31.97" cy="22.19" r="5.4" transform="rotate(-45 31.962 22.191)"/><path d="M23 33.7v5.93S25.4 42 31.91 42 41 39.63 41 39.63V33.7c0-2.62-2.15-4.75-4.8-4.75h-8.4c-2.65 0-4.8 2.12-4.8 4.75M32 14c2.76 0 5-2.24 5-5s-2.24-5-5-5-5 2.24-5 5 2.24 5 5 5m0-7c1.1 0 2 .9 2 2s-.9 2-2 2-2-.9-2-2 .9-2 2-2m11 44h-4v5H25v-5h-4v5h-3v4h28v-4h-3z"/><path d="M39 9c0 1.49-.47 2.87-1.26 4H56v32H8V13h18.26A6.96 6.96 0 0 1 25 9H4v40h56V9z"/></g></svg>