<svg xmlns="http://www.w3.org/2000/svg" width="20" height="20" viewBox="-2 0 18 18"><path fill="#24437C" d="M13.67 7.312v6.781A1.915 1.915 0 0 1 11.749 16H1.917a1.916 1.916 0 0 1-1.921-1.907V4.329c0-1.053.863-1.908 1.921-1.908h9.832c.475 0 .911.171 1.244.458l-.982.983a.53.53 0 0 0-.262-.067H1.917a.537.537 0 0 0-.538.535v9.764c0 .296.241.534.538.534h9.832c.297 0 .54-.238.54-.534V8.69z"/><path fill="#24437C" d="m8.341 11.406 7.664-7.664-1.321-1.32-7.664 7.665L3.902 6.97l-1.32 1.32 4.436 4.438h.002l1.066-1.066z"/></svg>