<svg xmlns="http://www.w3.org/2000/svg" viewBox="0 0 64 64"><path fill="none" d="M0 0h64v64H0z"/><path d="M53.62 48.89 34.49 29.76l-2.92-2.92-2.92 2.92-2.51 2.51-2.92 2.92 2.92 2.92 19.13 19.13 2.92 2.92 2.92-2.92 2.51-2.51 2.92-2.92-2.92-2.92Zm-19.29-7.65-6.11-6.11 3.3-3.3 6.11 6.11-3.3 3.3Zm-19.45-6.25-1.77 4.75-4.75 1.77 4.75 1.77 1.77 4.75 1.77-4.75 4.75-1.77-4.75-1.77-1.77-4.75zm6.4-12.55 2.5-6.7 6.7-2.5-6.7-2.5-2.5-6.7-2.5 6.7-6.7 2.5 6.7 2.5 2.5 6.7zm19.76 3.08 1.64-4.39 4.39-1.64-4.39-1.65-1.64-4.39-1.65 4.39L35 19.49l4.39 1.64 1.65 4.39z" fill="#28497c"/></svg>